G04 #@! TF.GenerationSoftware,KiCad,Pcbnew,(5.1.10)-1*
G04 #@! TF.CreationDate,2021-10-31T21:23:51-04:00*
G04 #@! TF.ProjectId,Hardware-YurtThermostat,48617264-7761-4726-952d-597572745468,rev?*
G04 #@! TF.SameCoordinates,Original*
G04 #@! TF.FileFunction,Copper,L2,Inr*
G04 #@! TF.FilePolarity,Positive*
%FSLAX46Y46*%
G04 Gerber Fmt 4.6, Leading zero omitted, Abs format (unit mm)*
G04 Created by KiCad (PCBNEW (5.1.10)-1) date 2021-10-31 21:23:51*
%MOMM*%
%LPD*%
G01*
G04 APERTURE LIST*
G04 #@! TA.AperFunction,ComponentPad*
%ADD10C,5.000000*%
G04 #@! TD*
G04 #@! TA.AperFunction,ComponentPad*
%ADD11C,3.400000*%
G04 #@! TD*
G04 #@! TA.AperFunction,ComponentPad*
%ADD12C,1.597660*%
G04 #@! TD*
G04 #@! TA.AperFunction,ComponentPad*
%ADD13R,2.500000X2.500000*%
G04 #@! TD*
G04 #@! TA.AperFunction,ComponentPad*
%ADD14C,2.500000*%
G04 #@! TD*
G04 #@! TA.AperFunction,ComponentPad*
%ADD15C,1.500000*%
G04 #@! TD*
G04 #@! TA.AperFunction,ComponentPad*
%ADD16C,2.000000*%
G04 #@! TD*
G04 #@! TA.AperFunction,ComponentPad*
%ADD17O,1.524000X2.000000*%
G04 #@! TD*
G04 #@! TA.AperFunction,ViaPad*
%ADD18C,0.800000*%
G04 #@! TD*
G04 #@! TA.AperFunction,Conductor*
%ADD19C,0.254000*%
G04 #@! TD*
G04 #@! TA.AperFunction,Conductor*
%ADD20C,0.100000*%
G04 #@! TD*
G04 APERTURE END LIST*
D10*
X97950000Y-113270000D03*
X97950000Y-64730000D03*
X192050000Y-64730000D03*
X192050000Y-113270000D03*
D11*
X215000000Y-115000000D03*
X112000000Y-115000000D03*
X215000000Y-55000000D03*
X95000000Y-55000000D03*
D12*
X107696000Y-105869740D03*
X107696000Y-103868220D03*
X107696000Y-101871780D03*
X107696000Y-99870260D03*
D13*
X129620000Y-55000000D03*
D14*
X134620000Y-55000000D03*
D15*
X156464000Y-57658000D03*
X151384000Y-57658000D03*
X148844000Y-57658000D03*
X146304000Y-57658000D03*
X143764000Y-57658000D03*
X143764000Y-52578000D03*
X146304000Y-52578000D03*
X148844000Y-52578000D03*
X151384000Y-52578000D03*
G04 #@! TA.AperFunction,ComponentPad*
G36*
G01*
X155964500Y-51828000D02*
X156963500Y-51828000D01*
G75*
G02*
X157214000Y-52078500I0J-250500D01*
G01*
X157214000Y-53077500D01*
G75*
G02*
X156963500Y-53328000I-250500J0D01*
G01*
X155964500Y-53328000D01*
G75*
G02*
X155714000Y-53077500I0J250500D01*
G01*
X155714000Y-52078500D01*
G75*
G02*
X155964500Y-51828000I250500J0D01*
G01*
G37*
G04 #@! TD.AperFunction*
D16*
X204450000Y-54100000D03*
X206990000Y-56640000D03*
X201910000Y-56640000D03*
X204450000Y-59180000D03*
D17*
X211594000Y-80021000D03*
X209054000Y-80021000D03*
X206514000Y-80021000D03*
X203974000Y-80021000D03*
X201434000Y-80021000D03*
X198894000Y-80021000D03*
X196354000Y-80021000D03*
X193814000Y-80021000D03*
X191274000Y-80021000D03*
X188734000Y-80021000D03*
X188734000Y-95261000D03*
X191274000Y-95261000D03*
X193814000Y-95261000D03*
X196354000Y-95261000D03*
X198894000Y-95261000D03*
X201434000Y-95261000D03*
X203974000Y-95261000D03*
X206514000Y-95261000D03*
X209054000Y-95261000D03*
X211594000Y-95261000D03*
D18*
X158750000Y-67056000D03*
X146304000Y-66802000D03*
X145542000Y-64008000D03*
X158242000Y-64008000D03*
X139954000Y-104521000D03*
X201930000Y-113792000D03*
X207588000Y-114858000D03*
X198374000Y-62738000D03*
X190500000Y-56642000D03*
X166624000Y-66802000D03*
X175768000Y-63754000D03*
X186182000Y-70866000D03*
X183642000Y-70104000D03*
X143510000Y-104521000D03*
X143510000Y-105791000D03*
X143510000Y-103505000D03*
X139954000Y-105791000D03*
X139954000Y-103505000D03*
X139954000Y-106807000D03*
X139954000Y-102235000D03*
X143510000Y-102235000D03*
X143510000Y-106807000D03*
X145542000Y-65278000D03*
X158242000Y-65532000D03*
X172720000Y-102997000D03*
X172720000Y-105029000D03*
X172720000Y-104013000D03*
X169164000Y-102997000D03*
X169164000Y-104013000D03*
X169164000Y-106045000D03*
X169164000Y-105029000D03*
X172720000Y-106045000D03*
X181991000Y-68199000D03*
X211582000Y-85471000D03*
X198882000Y-89789000D03*
X201422000Y-89789000D03*
X205994000Y-113538000D03*
X177292000Y-66802000D03*
X200152000Y-82931000D03*
X200151996Y-74930000D03*
X197611996Y-82931004D03*
X197612000Y-71120000D03*
D19*
X215768083Y-50731173D02*
X216511891Y-50934656D01*
X217207905Y-51266638D01*
X217834130Y-51716626D01*
X218370777Y-52270403D01*
X218800871Y-52910451D01*
X219110829Y-53616553D01*
X219292065Y-54371457D01*
X219340000Y-55024207D01*
X219340001Y-114970597D01*
X219268827Y-115768083D01*
X219065344Y-116511890D01*
X218733363Y-117207904D01*
X218283374Y-117834130D01*
X217729597Y-118370777D01*
X217089549Y-118800871D01*
X216383447Y-119110829D01*
X215628543Y-119292065D01*
X214975793Y-119340000D01*
X95029392Y-119340000D01*
X94231917Y-119268827D01*
X93488110Y-119065344D01*
X92792096Y-118733363D01*
X92165870Y-118283374D01*
X91629223Y-117729597D01*
X91199129Y-117089549D01*
X90889171Y-116383447D01*
X90707935Y-115628543D01*
X90696524Y-115473148D01*
X95926457Y-115473148D01*
X96202627Y-115891118D01*
X96747557Y-116181649D01*
X97338696Y-116360287D01*
X97953328Y-116420168D01*
X98567831Y-116358990D01*
X99158592Y-116179103D01*
X99697373Y-115891118D01*
X99973543Y-115473148D01*
X97950000Y-113449605D01*
X95926457Y-115473148D01*
X90696524Y-115473148D01*
X90660000Y-114975793D01*
X90660000Y-113273328D01*
X94799832Y-113273328D01*
X94861010Y-113887831D01*
X95040897Y-114478592D01*
X95328882Y-115017373D01*
X95746852Y-115293543D01*
X97770395Y-113270000D01*
X98129605Y-113270000D01*
X100153148Y-115293543D01*
X100571118Y-115017373D01*
X100702993Y-114770023D01*
X109665000Y-114770023D01*
X109665000Y-115229977D01*
X109754733Y-115681094D01*
X109930750Y-116106037D01*
X110186287Y-116488476D01*
X110511524Y-116813713D01*
X110893963Y-117069250D01*
X111318906Y-117245267D01*
X111770023Y-117335000D01*
X112229977Y-117335000D01*
X112681094Y-117245267D01*
X113106037Y-117069250D01*
X113488476Y-116813713D01*
X113813713Y-116488476D01*
X114069250Y-116106037D01*
X114245267Y-115681094D01*
X114286630Y-115473148D01*
X190026457Y-115473148D01*
X190302627Y-115891118D01*
X190847557Y-116181649D01*
X191438696Y-116360287D01*
X192053328Y-116420168D01*
X192667831Y-116358990D01*
X193258592Y-116179103D01*
X193797373Y-115891118D01*
X194073543Y-115473148D01*
X192050000Y-113449605D01*
X190026457Y-115473148D01*
X114286630Y-115473148D01*
X114335000Y-115229977D01*
X114335000Y-114770023D01*
X114245267Y-114318906D01*
X114069250Y-113893963D01*
X113813713Y-113511524D01*
X113575517Y-113273328D01*
X188899832Y-113273328D01*
X188961010Y-113887831D01*
X189140897Y-114478592D01*
X189428882Y-115017373D01*
X189846852Y-115293543D01*
X191870395Y-113270000D01*
X192229605Y-113270000D01*
X194253148Y-115293543D01*
X194671118Y-115017373D01*
X194802993Y-114770023D01*
X212665000Y-114770023D01*
X212665000Y-115229977D01*
X212754733Y-115681094D01*
X212930750Y-116106037D01*
X213186287Y-116488476D01*
X213511524Y-116813713D01*
X213893963Y-117069250D01*
X214318906Y-117245267D01*
X214770023Y-117335000D01*
X215229977Y-117335000D01*
X215681094Y-117245267D01*
X216106037Y-117069250D01*
X216488476Y-116813713D01*
X216813713Y-116488476D01*
X217069250Y-116106037D01*
X217245267Y-115681094D01*
X217335000Y-115229977D01*
X217335000Y-114770023D01*
X217245267Y-114318906D01*
X217069250Y-113893963D01*
X216813713Y-113511524D01*
X216488476Y-113186287D01*
X216106037Y-112930750D01*
X215681094Y-112754733D01*
X215229977Y-112665000D01*
X214770023Y-112665000D01*
X214318906Y-112754733D01*
X213893963Y-112930750D01*
X213511524Y-113186287D01*
X213186287Y-113511524D01*
X212930750Y-113893963D01*
X212754733Y-114318906D01*
X212665000Y-114770023D01*
X194802993Y-114770023D01*
X194961649Y-114472443D01*
X195140287Y-113881304D01*
X195183665Y-113436061D01*
X204959000Y-113436061D01*
X204959000Y-113639939D01*
X204998774Y-113839898D01*
X205076795Y-114028256D01*
X205190063Y-114197774D01*
X205334226Y-114341937D01*
X205503744Y-114455205D01*
X205692102Y-114533226D01*
X205892061Y-114573000D01*
X206095939Y-114573000D01*
X206295898Y-114533226D01*
X206484256Y-114455205D01*
X206653774Y-114341937D01*
X206797937Y-114197774D01*
X206911205Y-114028256D01*
X206989226Y-113839898D01*
X207029000Y-113639939D01*
X207029000Y-113436061D01*
X206989226Y-113236102D01*
X206911205Y-113047744D01*
X206797937Y-112878226D01*
X206653774Y-112734063D01*
X206484256Y-112620795D01*
X206295898Y-112542774D01*
X206095939Y-112503000D01*
X205892061Y-112503000D01*
X205692102Y-112542774D01*
X205503744Y-112620795D01*
X205334226Y-112734063D01*
X205190063Y-112878226D01*
X205076795Y-113047744D01*
X204998774Y-113236102D01*
X204959000Y-113436061D01*
X195183665Y-113436061D01*
X195200168Y-113266672D01*
X195138990Y-112652169D01*
X194959103Y-112061408D01*
X194671118Y-111522627D01*
X194253148Y-111246457D01*
X192229605Y-113270000D01*
X191870395Y-113270000D01*
X189846852Y-111246457D01*
X189428882Y-111522627D01*
X189138351Y-112067557D01*
X188959713Y-112658696D01*
X188899832Y-113273328D01*
X113575517Y-113273328D01*
X113488476Y-113186287D01*
X113106037Y-112930750D01*
X112681094Y-112754733D01*
X112229977Y-112665000D01*
X111770023Y-112665000D01*
X111318906Y-112754733D01*
X110893963Y-112930750D01*
X110511524Y-113186287D01*
X110186287Y-113511524D01*
X109930750Y-113893963D01*
X109754733Y-114318906D01*
X109665000Y-114770023D01*
X100702993Y-114770023D01*
X100861649Y-114472443D01*
X101040287Y-113881304D01*
X101100168Y-113266672D01*
X101038990Y-112652169D01*
X100859103Y-112061408D01*
X100571118Y-111522627D01*
X100153148Y-111246457D01*
X98129605Y-113270000D01*
X97770395Y-113270000D01*
X95746852Y-111246457D01*
X95328882Y-111522627D01*
X95038351Y-112067557D01*
X94859713Y-112658696D01*
X94799832Y-113273328D01*
X90660000Y-113273328D01*
X90660000Y-111066852D01*
X95926457Y-111066852D01*
X97950000Y-113090395D01*
X99973543Y-111066852D01*
X190026457Y-111066852D01*
X192050000Y-113090395D01*
X194073543Y-111066852D01*
X193797373Y-110648882D01*
X193252443Y-110358351D01*
X192661304Y-110179713D01*
X192046672Y-110119832D01*
X191432169Y-110181010D01*
X190841408Y-110360897D01*
X190302627Y-110648882D01*
X190026457Y-111066852D01*
X99973543Y-111066852D01*
X99697373Y-110648882D01*
X99152443Y-110358351D01*
X98561304Y-110179713D01*
X97946672Y-110119832D01*
X97332169Y-110181010D01*
X96741408Y-110360897D01*
X96202627Y-110648882D01*
X95926457Y-111066852D01*
X90660000Y-111066852D01*
X90660000Y-99940818D01*
X106256960Y-99940818D01*
X106298376Y-100220205D01*
X106393502Y-100486144D01*
X106460282Y-100611081D01*
X106704131Y-100682521D01*
X106587854Y-100798798D01*
X106664547Y-100875491D01*
X106582271Y-100957766D01*
X106425356Y-101192607D01*
X106317271Y-101453547D01*
X106262170Y-101730560D01*
X106262170Y-102013000D01*
X106317271Y-102290013D01*
X106425356Y-102550953D01*
X106582271Y-102785794D01*
X106666477Y-102870000D01*
X106582271Y-102954206D01*
X106425356Y-103189047D01*
X106317271Y-103449987D01*
X106262170Y-103727000D01*
X106262170Y-104009440D01*
X106317271Y-104286453D01*
X106425356Y-104547393D01*
X106582271Y-104782234D01*
X106669017Y-104868980D01*
X106582271Y-104955726D01*
X106425356Y-105190567D01*
X106317271Y-105451507D01*
X106262170Y-105728520D01*
X106262170Y-106010960D01*
X106317271Y-106287973D01*
X106425356Y-106548913D01*
X106582271Y-106783754D01*
X106781986Y-106983469D01*
X107016827Y-107140384D01*
X107277767Y-107248469D01*
X107554780Y-107303570D01*
X107837220Y-107303570D01*
X108114233Y-107248469D01*
X108375173Y-107140384D01*
X108610014Y-106983469D01*
X108809729Y-106783754D01*
X108966644Y-106548913D01*
X109074729Y-106287973D01*
X109129830Y-106010960D01*
X109129830Y-105728520D01*
X109074729Y-105451507D01*
X108966644Y-105190567D01*
X108809729Y-104955726D01*
X108722983Y-104868980D01*
X108809729Y-104782234D01*
X108966644Y-104547393D01*
X109074729Y-104286453D01*
X109129830Y-104009440D01*
X109129830Y-103727000D01*
X109074729Y-103449987D01*
X108966644Y-103189047D01*
X108809729Y-102954206D01*
X108750584Y-102895061D01*
X168129000Y-102895061D01*
X168129000Y-103098939D01*
X168168774Y-103298898D01*
X168246795Y-103487256D01*
X168258651Y-103505000D01*
X168246795Y-103522744D01*
X168168774Y-103711102D01*
X168129000Y-103911061D01*
X168129000Y-104114939D01*
X168168774Y-104314898D01*
X168246795Y-104503256D01*
X168258651Y-104521000D01*
X168246795Y-104538744D01*
X168168774Y-104727102D01*
X168129000Y-104927061D01*
X168129000Y-105130939D01*
X168168774Y-105330898D01*
X168246795Y-105519256D01*
X168258651Y-105537000D01*
X168246795Y-105554744D01*
X168168774Y-105743102D01*
X168129000Y-105943061D01*
X168129000Y-106146939D01*
X168168774Y-106346898D01*
X168246795Y-106535256D01*
X168360063Y-106704774D01*
X168504226Y-106848937D01*
X168673744Y-106962205D01*
X168862102Y-107040226D01*
X169062061Y-107080000D01*
X169265939Y-107080000D01*
X169465898Y-107040226D01*
X169654256Y-106962205D01*
X169823774Y-106848937D01*
X169967937Y-106704774D01*
X170081205Y-106535256D01*
X170159226Y-106346898D01*
X170199000Y-106146939D01*
X170199000Y-105943061D01*
X170159226Y-105743102D01*
X170081205Y-105554744D01*
X170069349Y-105537000D01*
X170081205Y-105519256D01*
X170159226Y-105330898D01*
X170199000Y-105130939D01*
X170199000Y-104927061D01*
X170159226Y-104727102D01*
X170081205Y-104538744D01*
X170069349Y-104521000D01*
X170081205Y-104503256D01*
X170159226Y-104314898D01*
X170199000Y-104114939D01*
X170199000Y-103911061D01*
X170159226Y-103711102D01*
X170081205Y-103522744D01*
X170069349Y-103505000D01*
X170081205Y-103487256D01*
X170159226Y-103298898D01*
X170199000Y-103098939D01*
X170199000Y-102895061D01*
X171685000Y-102895061D01*
X171685000Y-103098939D01*
X171724774Y-103298898D01*
X171802795Y-103487256D01*
X171814651Y-103505000D01*
X171802795Y-103522744D01*
X171724774Y-103711102D01*
X171685000Y-103911061D01*
X171685000Y-104114939D01*
X171724774Y-104314898D01*
X171802795Y-104503256D01*
X171814651Y-104521000D01*
X171802795Y-104538744D01*
X171724774Y-104727102D01*
X171685000Y-104927061D01*
X171685000Y-105130939D01*
X171724774Y-105330898D01*
X171802795Y-105519256D01*
X171814651Y-105537000D01*
X171802795Y-105554744D01*
X171724774Y-105743102D01*
X171685000Y-105943061D01*
X171685000Y-106146939D01*
X171724774Y-106346898D01*
X171802795Y-106535256D01*
X171916063Y-106704774D01*
X172060226Y-106848937D01*
X172229744Y-106962205D01*
X172418102Y-107040226D01*
X172618061Y-107080000D01*
X172821939Y-107080000D01*
X173021898Y-107040226D01*
X173210256Y-106962205D01*
X173379774Y-106848937D01*
X173523937Y-106704774D01*
X173637205Y-106535256D01*
X173715226Y-106346898D01*
X173755000Y-106146939D01*
X173755000Y-105943061D01*
X173715226Y-105743102D01*
X173637205Y-105554744D01*
X173625349Y-105537000D01*
X173637205Y-105519256D01*
X173715226Y-105330898D01*
X173755000Y-105130939D01*
X173755000Y-104927061D01*
X173715226Y-104727102D01*
X173637205Y-104538744D01*
X173625349Y-104521000D01*
X173637205Y-104503256D01*
X173715226Y-104314898D01*
X173755000Y-104114939D01*
X173755000Y-103911061D01*
X173715226Y-103711102D01*
X173637205Y-103522744D01*
X173625349Y-103505000D01*
X173637205Y-103487256D01*
X173715226Y-103298898D01*
X173755000Y-103098939D01*
X173755000Y-102895061D01*
X173715226Y-102695102D01*
X173637205Y-102506744D01*
X173523937Y-102337226D01*
X173379774Y-102193063D01*
X173210256Y-102079795D01*
X173021898Y-102001774D01*
X172821939Y-101962000D01*
X172618061Y-101962000D01*
X172418102Y-102001774D01*
X172229744Y-102079795D01*
X172060226Y-102193063D01*
X171916063Y-102337226D01*
X171802795Y-102506744D01*
X171724774Y-102695102D01*
X171685000Y-102895061D01*
X170199000Y-102895061D01*
X170159226Y-102695102D01*
X170081205Y-102506744D01*
X169967937Y-102337226D01*
X169823774Y-102193063D01*
X169654256Y-102079795D01*
X169465898Y-102001774D01*
X169265939Y-101962000D01*
X169062061Y-101962000D01*
X168862102Y-102001774D01*
X168673744Y-102079795D01*
X168504226Y-102193063D01*
X168360063Y-102337226D01*
X168246795Y-102506744D01*
X168168774Y-102695102D01*
X168129000Y-102895061D01*
X108750584Y-102895061D01*
X108725523Y-102870000D01*
X108809729Y-102785794D01*
X108966644Y-102550953D01*
X109074729Y-102290013D01*
X109129830Y-102013000D01*
X109129830Y-101730560D01*
X109074729Y-101453547D01*
X108966644Y-101192607D01*
X108809729Y-100957766D01*
X108727454Y-100875491D01*
X108804146Y-100798798D01*
X108687869Y-100682521D01*
X108931718Y-100611081D01*
X109052501Y-100355769D01*
X109121155Y-100081800D01*
X109135040Y-99799702D01*
X109093624Y-99520315D01*
X108998498Y-99254376D01*
X108931718Y-99129439D01*
X108687867Y-99057998D01*
X107875605Y-99870260D01*
X107889748Y-99884403D01*
X107710143Y-100064008D01*
X107696000Y-100049865D01*
X107681858Y-100064008D01*
X107502253Y-99884403D01*
X107516395Y-99870260D01*
X106704133Y-99057998D01*
X106460282Y-99129439D01*
X106339499Y-99384751D01*
X106270845Y-99658720D01*
X106256960Y-99940818D01*
X90660000Y-99940818D01*
X90660000Y-98878393D01*
X106883738Y-98878393D01*
X107696000Y-99690655D01*
X108508262Y-98878393D01*
X108436821Y-98634542D01*
X108181509Y-98513759D01*
X107907540Y-98445105D01*
X107625442Y-98431220D01*
X107346055Y-98472636D01*
X107080116Y-98567762D01*
X106955179Y-98634542D01*
X106883738Y-98878393D01*
X90660000Y-98878393D01*
X90660000Y-94954375D01*
X187337000Y-94954375D01*
X187337000Y-95567624D01*
X187357214Y-95772859D01*
X187437096Y-96036194D01*
X187566817Y-96278886D01*
X187741392Y-96491607D01*
X187954113Y-96666183D01*
X188196805Y-96795904D01*
X188460140Y-96875786D01*
X188734000Y-96902759D01*
X189007859Y-96875786D01*
X189271194Y-96795904D01*
X189513886Y-96666183D01*
X189726607Y-96491608D01*
X189901183Y-96278887D01*
X190004000Y-96086529D01*
X190106817Y-96278886D01*
X190281392Y-96491607D01*
X190494113Y-96666183D01*
X190736805Y-96795904D01*
X191000140Y-96875786D01*
X191274000Y-96902759D01*
X191547859Y-96875786D01*
X191811194Y-96795904D01*
X192053886Y-96666183D01*
X192266607Y-96491608D01*
X192441183Y-96278887D01*
X192544000Y-96086529D01*
X192646817Y-96278886D01*
X192821392Y-96491607D01*
X193034113Y-96666183D01*
X193276805Y-96795904D01*
X193540140Y-96875786D01*
X193814000Y-96902759D01*
X194087859Y-96875786D01*
X194351194Y-96795904D01*
X194593886Y-96666183D01*
X194806607Y-96491608D01*
X194981183Y-96278887D01*
X195084000Y-96086529D01*
X195186817Y-96278886D01*
X195361392Y-96491607D01*
X195574113Y-96666183D01*
X195816805Y-96795904D01*
X196080140Y-96875786D01*
X196354000Y-96902759D01*
X196627859Y-96875786D01*
X196891194Y-96795904D01*
X197133886Y-96666183D01*
X197346607Y-96491608D01*
X197521183Y-96278887D01*
X197624000Y-96086529D01*
X197726817Y-96278886D01*
X197901392Y-96491607D01*
X198114113Y-96666183D01*
X198356805Y-96795904D01*
X198620140Y-96875786D01*
X198894000Y-96902759D01*
X199167859Y-96875786D01*
X199431194Y-96795904D01*
X199673886Y-96666183D01*
X199886607Y-96491608D01*
X200061183Y-96278887D01*
X200164000Y-96086529D01*
X200266817Y-96278886D01*
X200441392Y-96491607D01*
X200654113Y-96666183D01*
X200896805Y-96795904D01*
X201160140Y-96875786D01*
X201434000Y-96902759D01*
X201707859Y-96875786D01*
X201971194Y-96795904D01*
X202213886Y-96666183D01*
X202426607Y-96491608D01*
X202601183Y-96278887D01*
X202704000Y-96086529D01*
X202806817Y-96278886D01*
X202981392Y-96491607D01*
X203194113Y-96666183D01*
X203436805Y-96795904D01*
X203700140Y-96875786D01*
X203974000Y-96902759D01*
X204247859Y-96875786D01*
X204511194Y-96795904D01*
X204753886Y-96666183D01*
X204966607Y-96491608D01*
X205141183Y-96278887D01*
X205244000Y-96086529D01*
X205346817Y-96278886D01*
X205521392Y-96491607D01*
X205734113Y-96666183D01*
X205976805Y-96795904D01*
X206240140Y-96875786D01*
X206514000Y-96902759D01*
X206787859Y-96875786D01*
X207051194Y-96795904D01*
X207293886Y-96666183D01*
X207506607Y-96491608D01*
X207681183Y-96278887D01*
X207784000Y-96086529D01*
X207886817Y-96278886D01*
X208061392Y-96491607D01*
X208274113Y-96666183D01*
X208516805Y-96795904D01*
X208780140Y-96875786D01*
X209054000Y-96902759D01*
X209327859Y-96875786D01*
X209591194Y-96795904D01*
X209833886Y-96666183D01*
X210046607Y-96491608D01*
X210221183Y-96278887D01*
X210322198Y-96089901D01*
X210340574Y-96136917D01*
X210489110Y-96369191D01*
X210680106Y-96568024D01*
X210906222Y-96725775D01*
X211158769Y-96836382D01*
X211250930Y-96853220D01*
X211467000Y-96730720D01*
X211467000Y-95388000D01*
X211721000Y-95388000D01*
X211721000Y-96730720D01*
X211937070Y-96853220D01*
X212029231Y-96836382D01*
X212281778Y-96725775D01*
X212507894Y-96568024D01*
X212698890Y-96369191D01*
X212847426Y-96136917D01*
X212947793Y-95880128D01*
X212996135Y-95608693D01*
X212837282Y-95388000D01*
X211721000Y-95388000D01*
X211467000Y-95388000D01*
X211447000Y-95388000D01*
X211447000Y-95134000D01*
X211467000Y-95134000D01*
X211467000Y-93791280D01*
X211721000Y-93791280D01*
X211721000Y-95134000D01*
X212837282Y-95134000D01*
X212996135Y-94913307D01*
X212947793Y-94641872D01*
X212847426Y-94385083D01*
X212698890Y-94152809D01*
X212507894Y-93953976D01*
X212281778Y-93796225D01*
X212029231Y-93685618D01*
X211937070Y-93668780D01*
X211721000Y-93791280D01*
X211467000Y-93791280D01*
X211250930Y-93668780D01*
X211158769Y-93685618D01*
X210906222Y-93796225D01*
X210680106Y-93953976D01*
X210489110Y-94152809D01*
X210340574Y-94385083D01*
X210322197Y-94432099D01*
X210221183Y-94243113D01*
X210046608Y-94030392D01*
X209833887Y-93855817D01*
X209591195Y-93726096D01*
X209327860Y-93646214D01*
X209054000Y-93619241D01*
X208780141Y-93646214D01*
X208516806Y-93726096D01*
X208274114Y-93855817D01*
X208061393Y-94030392D01*
X207886817Y-94243113D01*
X207784000Y-94435471D01*
X207681183Y-94243113D01*
X207506608Y-94030392D01*
X207293887Y-93855817D01*
X207051195Y-93726096D01*
X206787860Y-93646214D01*
X206514000Y-93619241D01*
X206240141Y-93646214D01*
X205976806Y-93726096D01*
X205734114Y-93855817D01*
X205521393Y-94030392D01*
X205346817Y-94243113D01*
X205244000Y-94435471D01*
X205141183Y-94243113D01*
X204966608Y-94030392D01*
X204753887Y-93855817D01*
X204511195Y-93726096D01*
X204247860Y-93646214D01*
X203974000Y-93619241D01*
X203700141Y-93646214D01*
X203436806Y-93726096D01*
X203194114Y-93855817D01*
X202981393Y-94030392D01*
X202806817Y-94243113D01*
X202704000Y-94435471D01*
X202601183Y-94243113D01*
X202426608Y-94030392D01*
X202213887Y-93855817D01*
X201971195Y-93726096D01*
X201707860Y-93646214D01*
X201434000Y-93619241D01*
X201160141Y-93646214D01*
X200896806Y-93726096D01*
X200654114Y-93855817D01*
X200441393Y-94030392D01*
X200266817Y-94243113D01*
X200164000Y-94435471D01*
X200061183Y-94243113D01*
X199886608Y-94030392D01*
X199673887Y-93855817D01*
X199431195Y-93726096D01*
X199167860Y-93646214D01*
X198894000Y-93619241D01*
X198620141Y-93646214D01*
X198356806Y-93726096D01*
X198114114Y-93855817D01*
X197901393Y-94030392D01*
X197726817Y-94243113D01*
X197624000Y-94435471D01*
X197521183Y-94243113D01*
X197346608Y-94030392D01*
X197133887Y-93855817D01*
X196891195Y-93726096D01*
X196627860Y-93646214D01*
X196354000Y-93619241D01*
X196080141Y-93646214D01*
X195816806Y-93726096D01*
X195574114Y-93855817D01*
X195361393Y-94030392D01*
X195186817Y-94243113D01*
X195084000Y-94435471D01*
X194981183Y-94243113D01*
X194806608Y-94030392D01*
X194593887Y-93855817D01*
X194351195Y-93726096D01*
X194087860Y-93646214D01*
X193814000Y-93619241D01*
X193540141Y-93646214D01*
X193276806Y-93726096D01*
X193034114Y-93855817D01*
X192821393Y-94030392D01*
X192646817Y-94243113D01*
X192544000Y-94435471D01*
X192441183Y-94243113D01*
X192266608Y-94030392D01*
X192053887Y-93855817D01*
X191811195Y-93726096D01*
X191547860Y-93646214D01*
X191274000Y-93619241D01*
X191000141Y-93646214D01*
X190736806Y-93726096D01*
X190494114Y-93855817D01*
X190281393Y-94030392D01*
X190106817Y-94243113D01*
X190004000Y-94435471D01*
X189901183Y-94243113D01*
X189726608Y-94030392D01*
X189513887Y-93855817D01*
X189271195Y-93726096D01*
X189007860Y-93646214D01*
X188734000Y-93619241D01*
X188460141Y-93646214D01*
X188196806Y-93726096D01*
X187954114Y-93855817D01*
X187741393Y-94030392D01*
X187566817Y-94243113D01*
X187437096Y-94485805D01*
X187357214Y-94749140D01*
X187337000Y-94954375D01*
X90660000Y-94954375D01*
X90660000Y-66933148D01*
X95926457Y-66933148D01*
X96202627Y-67351118D01*
X96747557Y-67641649D01*
X97338696Y-67820287D01*
X97953328Y-67880168D01*
X98567831Y-67818990D01*
X99158592Y-67639103D01*
X99697373Y-67351118D01*
X99973543Y-66933148D01*
X97950000Y-64909605D01*
X95926457Y-66933148D01*
X90660000Y-66933148D01*
X90660000Y-64733328D01*
X94799832Y-64733328D01*
X94861010Y-65347831D01*
X95040897Y-65938592D01*
X95328882Y-66477373D01*
X95746852Y-66753543D01*
X97770395Y-64730000D01*
X98129605Y-64730000D01*
X100153148Y-66753543D01*
X100571118Y-66477373D01*
X100825630Y-66000000D01*
X109336807Y-66000000D01*
X109340000Y-66032419D01*
X109340001Y-93967571D01*
X109336807Y-94000000D01*
X109349550Y-94129383D01*
X109387290Y-94253793D01*
X109448575Y-94368450D01*
X109531052Y-94468948D01*
X109631550Y-94551425D01*
X109746207Y-94612710D01*
X109870617Y-94650450D01*
X109967581Y-94660000D01*
X110000000Y-94663193D01*
X110032419Y-94660000D01*
X167967581Y-94660000D01*
X168000000Y-94663193D01*
X168032419Y-94660000D01*
X168129383Y-94650450D01*
X168253793Y-94612710D01*
X168368450Y-94551425D01*
X168468948Y-94468948D01*
X168551425Y-94368450D01*
X168612710Y-94253793D01*
X168650450Y-94129383D01*
X168663193Y-94000000D01*
X168660000Y-93967581D01*
X168660000Y-89687061D01*
X197847000Y-89687061D01*
X197847000Y-89890939D01*
X197886774Y-90090898D01*
X197964795Y-90279256D01*
X198078063Y-90448774D01*
X198222226Y-90592937D01*
X198391744Y-90706205D01*
X198580102Y-90784226D01*
X198780061Y-90824000D01*
X198983939Y-90824000D01*
X199183898Y-90784226D01*
X199372256Y-90706205D01*
X199541774Y-90592937D01*
X199685937Y-90448774D01*
X199799205Y-90279256D01*
X199877226Y-90090898D01*
X199917000Y-89890939D01*
X199917000Y-89687061D01*
X200387000Y-89687061D01*
X200387000Y-89890939D01*
X200426774Y-90090898D01*
X200504795Y-90279256D01*
X200618063Y-90448774D01*
X200762226Y-90592937D01*
X200931744Y-90706205D01*
X201120102Y-90784226D01*
X201320061Y-90824000D01*
X201523939Y-90824000D01*
X201723898Y-90784226D01*
X201912256Y-90706205D01*
X202081774Y-90592937D01*
X202225937Y-90448774D01*
X202339205Y-90279256D01*
X202417226Y-90090898D01*
X202457000Y-89890939D01*
X202457000Y-89687061D01*
X202417226Y-89487102D01*
X202339205Y-89298744D01*
X202225937Y-89129226D01*
X202081774Y-88985063D01*
X201912256Y-88871795D01*
X201723898Y-88793774D01*
X201523939Y-88754000D01*
X201320061Y-88754000D01*
X201120102Y-88793774D01*
X200931744Y-88871795D01*
X200762226Y-88985063D01*
X200618063Y-89129226D01*
X200504795Y-89298744D01*
X200426774Y-89487102D01*
X200387000Y-89687061D01*
X199917000Y-89687061D01*
X199877226Y-89487102D01*
X199799205Y-89298744D01*
X199685937Y-89129226D01*
X199541774Y-88985063D01*
X199372256Y-88871795D01*
X199183898Y-88793774D01*
X198983939Y-88754000D01*
X198780061Y-88754000D01*
X198580102Y-88793774D01*
X198391744Y-88871795D01*
X198222226Y-88985063D01*
X198078063Y-89129226D01*
X197964795Y-89298744D01*
X197886774Y-89487102D01*
X197847000Y-89687061D01*
X168660000Y-89687061D01*
X168660000Y-85369061D01*
X210547000Y-85369061D01*
X210547000Y-85572939D01*
X210586774Y-85772898D01*
X210664795Y-85961256D01*
X210778063Y-86130774D01*
X210922226Y-86274937D01*
X211091744Y-86388205D01*
X211280102Y-86466226D01*
X211480061Y-86506000D01*
X211683939Y-86506000D01*
X211883898Y-86466226D01*
X212072256Y-86388205D01*
X212241774Y-86274937D01*
X212385937Y-86130774D01*
X212499205Y-85961256D01*
X212577226Y-85772898D01*
X212617000Y-85572939D01*
X212617000Y-85369061D01*
X212577226Y-85169102D01*
X212499205Y-84980744D01*
X212385937Y-84811226D01*
X212241774Y-84667063D01*
X212072256Y-84553795D01*
X211883898Y-84475774D01*
X211683939Y-84436000D01*
X211480061Y-84436000D01*
X211280102Y-84475774D01*
X211091744Y-84553795D01*
X210922226Y-84667063D01*
X210778063Y-84811226D01*
X210664795Y-84980744D01*
X210586774Y-85169102D01*
X210547000Y-85369061D01*
X168660000Y-85369061D01*
X168660000Y-82829065D01*
X196576996Y-82829065D01*
X196576996Y-83032943D01*
X196616770Y-83232902D01*
X196694791Y-83421260D01*
X196808059Y-83590778D01*
X196952222Y-83734941D01*
X197121740Y-83848209D01*
X197310098Y-83926230D01*
X197510057Y-83966004D01*
X197713935Y-83966004D01*
X197913894Y-83926230D01*
X198102252Y-83848209D01*
X198271770Y-83734941D01*
X198415933Y-83590778D01*
X198529201Y-83421260D01*
X198607222Y-83232902D01*
X198646996Y-83032943D01*
X198646996Y-82829065D01*
X198646996Y-82829061D01*
X199117000Y-82829061D01*
X199117000Y-83032939D01*
X199156774Y-83232898D01*
X199234795Y-83421256D01*
X199348063Y-83590774D01*
X199492226Y-83734937D01*
X199661744Y-83848205D01*
X199850102Y-83926226D01*
X200050061Y-83966000D01*
X200253939Y-83966000D01*
X200453898Y-83926226D01*
X200642256Y-83848205D01*
X200811774Y-83734937D01*
X200955937Y-83590774D01*
X201069205Y-83421256D01*
X201147226Y-83232898D01*
X201187000Y-83032939D01*
X201187000Y-82829061D01*
X201147226Y-82629102D01*
X201069205Y-82440744D01*
X200955937Y-82271226D01*
X200811774Y-82127063D01*
X200642256Y-82013795D01*
X200453898Y-81935774D01*
X200253939Y-81896000D01*
X200050061Y-81896000D01*
X199850102Y-81935774D01*
X199661744Y-82013795D01*
X199492226Y-82127063D01*
X199348063Y-82271226D01*
X199234795Y-82440744D01*
X199156774Y-82629102D01*
X199117000Y-82829061D01*
X198646996Y-82829061D01*
X198607222Y-82629106D01*
X198529201Y-82440748D01*
X198415933Y-82271230D01*
X198271770Y-82127067D01*
X198102252Y-82013799D01*
X197913894Y-81935778D01*
X197713935Y-81896004D01*
X197510057Y-81896004D01*
X197310098Y-81935778D01*
X197121740Y-82013799D01*
X196952222Y-82127067D01*
X196808059Y-82271230D01*
X196694791Y-82440748D01*
X196616770Y-82629106D01*
X196576996Y-82829065D01*
X168660000Y-82829065D01*
X168660000Y-79714375D01*
X187337000Y-79714375D01*
X187337000Y-80327624D01*
X187357214Y-80532859D01*
X187437096Y-80796194D01*
X187566817Y-81038886D01*
X187741392Y-81251607D01*
X187954113Y-81426183D01*
X188196805Y-81555904D01*
X188460140Y-81635786D01*
X188734000Y-81662759D01*
X189007859Y-81635786D01*
X189271194Y-81555904D01*
X189513886Y-81426183D01*
X189726607Y-81251608D01*
X189901183Y-81038887D01*
X190002198Y-80849901D01*
X190020574Y-80896917D01*
X190169110Y-81129191D01*
X190360106Y-81328024D01*
X190586222Y-81485775D01*
X190838769Y-81596382D01*
X190930930Y-81613220D01*
X191147000Y-81490720D01*
X191147000Y-80148000D01*
X191127000Y-80148000D01*
X191127000Y-79894000D01*
X191147000Y-79894000D01*
X191147000Y-78551280D01*
X191401000Y-78551280D01*
X191401000Y-79894000D01*
X191421000Y-79894000D01*
X191421000Y-80148000D01*
X191401000Y-80148000D01*
X191401000Y-81490720D01*
X191617070Y-81613220D01*
X191709231Y-81596382D01*
X191961778Y-81485775D01*
X192187894Y-81328024D01*
X192378890Y-81129191D01*
X192527426Y-80896917D01*
X192545803Y-80849900D01*
X192646817Y-81038886D01*
X192821392Y-81251607D01*
X193034113Y-81426183D01*
X193276805Y-81555904D01*
X193540140Y-81635786D01*
X193814000Y-81662759D01*
X194087859Y-81635786D01*
X194351194Y-81555904D01*
X194593886Y-81426183D01*
X194806607Y-81251608D01*
X194981183Y-81038887D01*
X195084000Y-80846529D01*
X195186817Y-81038886D01*
X195361392Y-81251607D01*
X195574113Y-81426183D01*
X195816805Y-81555904D01*
X196080140Y-81635786D01*
X196354000Y-81662759D01*
X196627859Y-81635786D01*
X196891194Y-81555904D01*
X197133886Y-81426183D01*
X197346607Y-81251608D01*
X197521183Y-81038887D01*
X197624000Y-80846529D01*
X197726817Y-81038886D01*
X197901392Y-81251607D01*
X198114113Y-81426183D01*
X198356805Y-81555904D01*
X198620140Y-81635786D01*
X198894000Y-81662759D01*
X199167859Y-81635786D01*
X199431194Y-81555904D01*
X199673886Y-81426183D01*
X199886607Y-81251608D01*
X200061183Y-81038887D01*
X200164000Y-80846529D01*
X200266817Y-81038886D01*
X200441392Y-81251607D01*
X200654113Y-81426183D01*
X200896805Y-81555904D01*
X201160140Y-81635786D01*
X201434000Y-81662759D01*
X201707859Y-81635786D01*
X201971194Y-81555904D01*
X202213886Y-81426183D01*
X202426607Y-81251608D01*
X202601183Y-81038887D01*
X202704000Y-80846529D01*
X202806817Y-81038886D01*
X202981392Y-81251607D01*
X203194113Y-81426183D01*
X203436805Y-81555904D01*
X203700140Y-81635786D01*
X203974000Y-81662759D01*
X204247859Y-81635786D01*
X204511194Y-81555904D01*
X204753886Y-81426183D01*
X204966607Y-81251608D01*
X205141183Y-81038887D01*
X205244000Y-80846529D01*
X205346817Y-81038886D01*
X205521392Y-81251607D01*
X205734113Y-81426183D01*
X205976805Y-81555904D01*
X206240140Y-81635786D01*
X206514000Y-81662759D01*
X206787859Y-81635786D01*
X207051194Y-81555904D01*
X207293886Y-81426183D01*
X207506607Y-81251608D01*
X207681183Y-81038887D01*
X207784000Y-80846529D01*
X207886817Y-81038886D01*
X208061392Y-81251607D01*
X208274113Y-81426183D01*
X208516805Y-81555904D01*
X208780140Y-81635786D01*
X209054000Y-81662759D01*
X209327859Y-81635786D01*
X209591194Y-81555904D01*
X209833886Y-81426183D01*
X210046607Y-81251608D01*
X210221183Y-81038887D01*
X210324000Y-80846529D01*
X210426817Y-81038886D01*
X210601392Y-81251607D01*
X210814113Y-81426183D01*
X211056805Y-81555904D01*
X211320140Y-81635786D01*
X211594000Y-81662759D01*
X211867859Y-81635786D01*
X212131194Y-81555904D01*
X212373886Y-81426183D01*
X212586607Y-81251608D01*
X212761183Y-81038887D01*
X212890904Y-80796195D01*
X212970786Y-80532860D01*
X212991000Y-80327625D01*
X212991000Y-79714376D01*
X212970786Y-79509141D01*
X212890904Y-79245806D01*
X212761183Y-79003113D01*
X212586608Y-78790392D01*
X212373887Y-78615817D01*
X212131195Y-78486096D01*
X211867860Y-78406214D01*
X211594000Y-78379241D01*
X211320141Y-78406214D01*
X211056806Y-78486096D01*
X210814114Y-78615817D01*
X210601393Y-78790392D01*
X210426817Y-79003113D01*
X210324000Y-79195471D01*
X210221183Y-79003113D01*
X210046608Y-78790392D01*
X209833887Y-78615817D01*
X209591195Y-78486096D01*
X209327860Y-78406214D01*
X209054000Y-78379241D01*
X208780141Y-78406214D01*
X208516806Y-78486096D01*
X208274114Y-78615817D01*
X208061393Y-78790392D01*
X207886817Y-79003113D01*
X207784000Y-79195471D01*
X207681183Y-79003113D01*
X207506608Y-78790392D01*
X207293887Y-78615817D01*
X207051195Y-78486096D01*
X206787860Y-78406214D01*
X206514000Y-78379241D01*
X206240141Y-78406214D01*
X205976806Y-78486096D01*
X205734114Y-78615817D01*
X205521393Y-78790392D01*
X205346817Y-79003113D01*
X205244000Y-79195471D01*
X205141183Y-79003113D01*
X204966608Y-78790392D01*
X204753887Y-78615817D01*
X204511195Y-78486096D01*
X204247860Y-78406214D01*
X203974000Y-78379241D01*
X203700141Y-78406214D01*
X203436806Y-78486096D01*
X203194114Y-78615817D01*
X202981393Y-78790392D01*
X202806817Y-79003113D01*
X202704000Y-79195471D01*
X202601183Y-79003113D01*
X202426608Y-78790392D01*
X202213887Y-78615817D01*
X201971195Y-78486096D01*
X201707860Y-78406214D01*
X201434000Y-78379241D01*
X201160141Y-78406214D01*
X200896806Y-78486096D01*
X200654114Y-78615817D01*
X200441393Y-78790392D01*
X200266817Y-79003113D01*
X200164000Y-79195471D01*
X200061183Y-79003113D01*
X199886608Y-78790392D01*
X199673887Y-78615817D01*
X199431195Y-78486096D01*
X199167860Y-78406214D01*
X198894000Y-78379241D01*
X198620141Y-78406214D01*
X198356806Y-78486096D01*
X198114114Y-78615817D01*
X197901393Y-78790392D01*
X197726817Y-79003113D01*
X197624000Y-79195471D01*
X197521183Y-79003113D01*
X197346608Y-78790392D01*
X197133887Y-78615817D01*
X196891195Y-78486096D01*
X196627860Y-78406214D01*
X196354000Y-78379241D01*
X196080141Y-78406214D01*
X195816806Y-78486096D01*
X195574114Y-78615817D01*
X195361393Y-78790392D01*
X195186817Y-79003113D01*
X195084000Y-79195471D01*
X194981183Y-79003113D01*
X194806608Y-78790392D01*
X194593887Y-78615817D01*
X194351195Y-78486096D01*
X194087860Y-78406214D01*
X193814000Y-78379241D01*
X193540141Y-78406214D01*
X193276806Y-78486096D01*
X193034114Y-78615817D01*
X192821393Y-78790392D01*
X192646817Y-79003113D01*
X192545802Y-79192099D01*
X192527426Y-79145083D01*
X192378890Y-78912809D01*
X192187894Y-78713976D01*
X191961778Y-78556225D01*
X191709231Y-78445618D01*
X191617070Y-78428780D01*
X191401000Y-78551280D01*
X191147000Y-78551280D01*
X190930930Y-78428780D01*
X190838769Y-78445618D01*
X190586222Y-78556225D01*
X190360106Y-78713976D01*
X190169110Y-78912809D01*
X190020574Y-79145083D01*
X190002197Y-79192099D01*
X189901183Y-79003113D01*
X189726608Y-78790392D01*
X189513887Y-78615817D01*
X189271195Y-78486096D01*
X189007860Y-78406214D01*
X188734000Y-78379241D01*
X188460141Y-78406214D01*
X188196806Y-78486096D01*
X187954114Y-78615817D01*
X187741393Y-78790392D01*
X187566817Y-79003113D01*
X187437096Y-79245805D01*
X187357214Y-79509140D01*
X187337000Y-79714375D01*
X168660000Y-79714375D01*
X168660000Y-75032419D01*
X168663193Y-75000000D01*
X168650450Y-74870617D01*
X168637541Y-74828061D01*
X199116996Y-74828061D01*
X199116996Y-75031939D01*
X199156770Y-75231898D01*
X199234791Y-75420256D01*
X199348059Y-75589774D01*
X199492222Y-75733937D01*
X199661740Y-75847205D01*
X199850098Y-75925226D01*
X200050057Y-75965000D01*
X200253935Y-75965000D01*
X200453894Y-75925226D01*
X200642252Y-75847205D01*
X200811770Y-75733937D01*
X200955933Y-75589774D01*
X201069201Y-75420256D01*
X201147222Y-75231898D01*
X201186996Y-75031939D01*
X201186996Y-74828061D01*
X201147222Y-74628102D01*
X201069201Y-74439744D01*
X200955933Y-74270226D01*
X200811770Y-74126063D01*
X200642252Y-74012795D01*
X200453894Y-73934774D01*
X200253935Y-73895000D01*
X200050057Y-73895000D01*
X199850098Y-73934774D01*
X199661740Y-74012795D01*
X199492222Y-74126063D01*
X199348059Y-74270226D01*
X199234791Y-74439744D01*
X199156770Y-74628102D01*
X199116996Y-74828061D01*
X168637541Y-74828061D01*
X168612710Y-74746207D01*
X168551425Y-74631550D01*
X168468948Y-74531052D01*
X168368450Y-74448575D01*
X168253793Y-74387290D01*
X168129383Y-74349550D01*
X168032419Y-74340000D01*
X168000000Y-74336807D01*
X167967581Y-74340000D01*
X141273381Y-74340000D01*
X138660000Y-71726620D01*
X138660000Y-71018061D01*
X196577000Y-71018061D01*
X196577000Y-71221939D01*
X196616774Y-71421898D01*
X196694795Y-71610256D01*
X196808063Y-71779774D01*
X196952226Y-71923937D01*
X197121744Y-72037205D01*
X197310102Y-72115226D01*
X197510061Y-72155000D01*
X197713939Y-72155000D01*
X197913898Y-72115226D01*
X198102256Y-72037205D01*
X198271774Y-71923937D01*
X198415937Y-71779774D01*
X198529205Y-71610256D01*
X198607226Y-71421898D01*
X198647000Y-71221939D01*
X198647000Y-71018061D01*
X198607226Y-70818102D01*
X198529205Y-70629744D01*
X198415937Y-70460226D01*
X198271774Y-70316063D01*
X198102256Y-70202795D01*
X197913898Y-70124774D01*
X197713939Y-70085000D01*
X197510061Y-70085000D01*
X197310102Y-70124774D01*
X197121744Y-70202795D01*
X196952226Y-70316063D01*
X196808063Y-70460226D01*
X196694795Y-70629744D01*
X196616774Y-70818102D01*
X196577000Y-71018061D01*
X138660000Y-71018061D01*
X138660000Y-68097061D01*
X180956000Y-68097061D01*
X180956000Y-68300939D01*
X180995774Y-68500898D01*
X181073795Y-68689256D01*
X181187063Y-68858774D01*
X181331226Y-69002937D01*
X181500744Y-69116205D01*
X181689102Y-69194226D01*
X181889061Y-69234000D01*
X182092939Y-69234000D01*
X182292898Y-69194226D01*
X182481256Y-69116205D01*
X182650774Y-69002937D01*
X182794937Y-68858774D01*
X182908205Y-68689256D01*
X182986226Y-68500898D01*
X183026000Y-68300939D01*
X183026000Y-68097061D01*
X182986226Y-67897102D01*
X182908205Y-67708744D01*
X182794937Y-67539226D01*
X182650774Y-67395063D01*
X182481256Y-67281795D01*
X182292898Y-67203774D01*
X182092939Y-67164000D01*
X181889061Y-67164000D01*
X181689102Y-67203774D01*
X181500744Y-67281795D01*
X181331226Y-67395063D01*
X181187063Y-67539226D01*
X181073795Y-67708744D01*
X180995774Y-67897102D01*
X180956000Y-68097061D01*
X138660000Y-68097061D01*
X138660000Y-66700061D01*
X176257000Y-66700061D01*
X176257000Y-66903939D01*
X176296774Y-67103898D01*
X176374795Y-67292256D01*
X176488063Y-67461774D01*
X176632226Y-67605937D01*
X176801744Y-67719205D01*
X176990102Y-67797226D01*
X177190061Y-67837000D01*
X177393939Y-67837000D01*
X177593898Y-67797226D01*
X177782256Y-67719205D01*
X177951774Y-67605937D01*
X178095937Y-67461774D01*
X178209205Y-67292256D01*
X178287226Y-67103898D01*
X178321190Y-66933148D01*
X190026457Y-66933148D01*
X190302627Y-67351118D01*
X190847557Y-67641649D01*
X191438696Y-67820287D01*
X192053328Y-67880168D01*
X192667831Y-67818990D01*
X193258592Y-67639103D01*
X193797373Y-67351118D01*
X194073543Y-66933148D01*
X192050000Y-64909605D01*
X190026457Y-66933148D01*
X178321190Y-66933148D01*
X178327000Y-66903939D01*
X178327000Y-66700061D01*
X178287226Y-66500102D01*
X178209205Y-66311744D01*
X178095937Y-66142226D01*
X177951774Y-65998063D01*
X177782256Y-65884795D01*
X177593898Y-65806774D01*
X177393939Y-65767000D01*
X177190061Y-65767000D01*
X176990102Y-65806774D01*
X176801744Y-65884795D01*
X176632226Y-65998063D01*
X176488063Y-66142226D01*
X176374795Y-66311744D01*
X176296774Y-66500102D01*
X176257000Y-66700061D01*
X138660000Y-66700061D01*
X138660000Y-66032419D01*
X138663193Y-66000000D01*
X138650450Y-65870617D01*
X138612710Y-65746207D01*
X138551425Y-65631550D01*
X138468948Y-65531052D01*
X138368450Y-65448575D01*
X138253793Y-65387290D01*
X138129383Y-65349550D01*
X138000000Y-65336807D01*
X137967581Y-65340000D01*
X110032419Y-65340000D01*
X110000000Y-65336807D01*
X109870617Y-65349550D01*
X109746207Y-65387290D01*
X109631550Y-65448575D01*
X109531052Y-65531052D01*
X109448575Y-65631550D01*
X109387290Y-65746207D01*
X109349550Y-65870617D01*
X109336807Y-66000000D01*
X100825630Y-66000000D01*
X100861649Y-65932443D01*
X101040287Y-65341304D01*
X101099519Y-64733328D01*
X188899832Y-64733328D01*
X188961010Y-65347831D01*
X189140897Y-65938592D01*
X189428882Y-66477373D01*
X189846852Y-66753543D01*
X191870395Y-64730000D01*
X192229605Y-64730000D01*
X194253148Y-66753543D01*
X194671118Y-66477373D01*
X194961649Y-65932443D01*
X195140287Y-65341304D01*
X195200168Y-64726672D01*
X195138990Y-64112169D01*
X194959103Y-63521408D01*
X194671118Y-62982627D01*
X194253148Y-62706457D01*
X192229605Y-64730000D01*
X191870395Y-64730000D01*
X189846852Y-62706457D01*
X189428882Y-62982627D01*
X189138351Y-63527557D01*
X188959713Y-64118696D01*
X188899832Y-64733328D01*
X101099519Y-64733328D01*
X101100168Y-64726672D01*
X101038990Y-64112169D01*
X100859103Y-63521408D01*
X100571118Y-62982627D01*
X100153148Y-62706457D01*
X98129605Y-64730000D01*
X97770395Y-64730000D01*
X95746852Y-62706457D01*
X95328882Y-62982627D01*
X95038351Y-63527557D01*
X94859713Y-64118696D01*
X94799832Y-64733328D01*
X90660000Y-64733328D01*
X90660000Y-62526852D01*
X95926457Y-62526852D01*
X97950000Y-64550395D01*
X99973543Y-62526852D01*
X190026457Y-62526852D01*
X192050000Y-64550395D01*
X194073543Y-62526852D01*
X193797373Y-62108882D01*
X193252443Y-61818351D01*
X192661304Y-61639713D01*
X192046672Y-61579832D01*
X191432169Y-61641010D01*
X190841408Y-61820897D01*
X190302627Y-62108882D01*
X190026457Y-62526852D01*
X99973543Y-62526852D01*
X99697373Y-62108882D01*
X99152443Y-61818351D01*
X98561304Y-61639713D01*
X97946672Y-61579832D01*
X97332169Y-61641010D01*
X96741408Y-61820897D01*
X96202627Y-62108882D01*
X95926457Y-62526852D01*
X90660000Y-62526852D01*
X90660000Y-60315413D01*
X203494192Y-60315413D01*
X203589956Y-60579814D01*
X203879571Y-60720704D01*
X204191108Y-60802384D01*
X204512595Y-60821718D01*
X204831675Y-60777961D01*
X205136088Y-60672795D01*
X205310044Y-60579814D01*
X205405808Y-60315413D01*
X204450000Y-59359605D01*
X203494192Y-60315413D01*
X90660000Y-60315413D01*
X90660000Y-59242595D01*
X202808282Y-59242595D01*
X202852039Y-59561675D01*
X202957205Y-59866088D01*
X203050186Y-60040044D01*
X203314587Y-60135808D01*
X204270395Y-59180000D01*
X204629605Y-59180000D01*
X205585413Y-60135808D01*
X205849814Y-60040044D01*
X205990704Y-59750429D01*
X206072384Y-59438892D01*
X206091718Y-59117405D01*
X206047961Y-58798325D01*
X205942795Y-58493912D01*
X205849814Y-58319956D01*
X205585413Y-58224192D01*
X204629605Y-59180000D01*
X204270395Y-59180000D01*
X203314587Y-58224192D01*
X203050186Y-58319956D01*
X202909296Y-58609571D01*
X202827616Y-58921108D01*
X202808282Y-59242595D01*
X90660000Y-59242595D01*
X90660000Y-57521589D01*
X142379000Y-57521589D01*
X142379000Y-57794411D01*
X142432225Y-58061989D01*
X142536629Y-58314043D01*
X142688201Y-58540886D01*
X142881114Y-58733799D01*
X143107957Y-58885371D01*
X143360011Y-58989775D01*
X143627589Y-59043000D01*
X143900411Y-59043000D01*
X144167989Y-58989775D01*
X144420043Y-58885371D01*
X144646886Y-58733799D01*
X144839799Y-58540886D01*
X144991371Y-58314043D01*
X145034000Y-58211127D01*
X145076629Y-58314043D01*
X145228201Y-58540886D01*
X145421114Y-58733799D01*
X145647957Y-58885371D01*
X145900011Y-58989775D01*
X146167589Y-59043000D01*
X146440411Y-59043000D01*
X146707989Y-58989775D01*
X146960043Y-58885371D01*
X147186886Y-58733799D01*
X147379799Y-58540886D01*
X147531371Y-58314043D01*
X147574000Y-58211127D01*
X147616629Y-58314043D01*
X147768201Y-58540886D01*
X147961114Y-58733799D01*
X148187957Y-58885371D01*
X148440011Y-58989775D01*
X148707589Y-59043000D01*
X148980411Y-59043000D01*
X149247989Y-58989775D01*
X149500043Y-58885371D01*
X149726886Y-58733799D01*
X149919799Y-58540886D01*
X150071371Y-58314043D01*
X150114000Y-58211127D01*
X150156629Y-58314043D01*
X150308201Y-58540886D01*
X150501114Y-58733799D01*
X150727957Y-58885371D01*
X150980011Y-58989775D01*
X151247589Y-59043000D01*
X151520411Y-59043000D01*
X151787989Y-58989775D01*
X152040043Y-58885371D01*
X152266886Y-58733799D01*
X152459799Y-58540886D01*
X152611371Y-58314043D01*
X152715775Y-58061989D01*
X152769000Y-57794411D01*
X152769000Y-57521589D01*
X155079000Y-57521589D01*
X155079000Y-57794411D01*
X155132225Y-58061989D01*
X155236629Y-58314043D01*
X155388201Y-58540886D01*
X155581114Y-58733799D01*
X155807957Y-58885371D01*
X156060011Y-58989775D01*
X156327589Y-59043000D01*
X156600411Y-59043000D01*
X156867989Y-58989775D01*
X157120043Y-58885371D01*
X157346886Y-58733799D01*
X157539799Y-58540886D01*
X157691371Y-58314043D01*
X157795775Y-58061989D01*
X157849000Y-57794411D01*
X157849000Y-57521589D01*
X157795775Y-57254011D01*
X157691371Y-57001957D01*
X157539799Y-56775114D01*
X157346886Y-56582201D01*
X157192386Y-56478967D01*
X200275000Y-56478967D01*
X200275000Y-56801033D01*
X200337832Y-57116912D01*
X200461082Y-57414463D01*
X200640013Y-57682252D01*
X200867748Y-57909987D01*
X201135537Y-58088918D01*
X201433088Y-58212168D01*
X201748967Y-58275000D01*
X202071033Y-58275000D01*
X202386912Y-58212168D01*
X202684463Y-58088918D01*
X202750808Y-58044587D01*
X203494192Y-58044587D01*
X204450000Y-59000395D01*
X205405808Y-58044587D01*
X205310044Y-57780186D01*
X205300233Y-57775413D01*
X206034192Y-57775413D01*
X206129956Y-58039814D01*
X206419571Y-58180704D01*
X206731108Y-58262384D01*
X207052595Y-58281718D01*
X207371675Y-58237961D01*
X207676088Y-58132795D01*
X207850044Y-58039814D01*
X207945808Y-57775413D01*
X206990000Y-56819605D01*
X206034192Y-57775413D01*
X205300233Y-57775413D01*
X205020429Y-57639296D01*
X204708892Y-57557616D01*
X204387405Y-57538282D01*
X204068325Y-57582039D01*
X203763912Y-57687205D01*
X203589956Y-57780186D01*
X203494192Y-58044587D01*
X202750808Y-58044587D01*
X202952252Y-57909987D01*
X203179987Y-57682252D01*
X203358918Y-57414463D01*
X203482168Y-57116912D01*
X203545000Y-56801033D01*
X203545000Y-56702595D01*
X205348282Y-56702595D01*
X205392039Y-57021675D01*
X205497205Y-57326088D01*
X205590186Y-57500044D01*
X205854587Y-57595808D01*
X206810395Y-56640000D01*
X207169605Y-56640000D01*
X208125413Y-57595808D01*
X208389814Y-57500044D01*
X208530704Y-57210429D01*
X208612384Y-56898892D01*
X208631718Y-56577405D01*
X208587961Y-56258325D01*
X208482795Y-55953912D01*
X208389814Y-55779956D01*
X208125413Y-55684192D01*
X207169605Y-56640000D01*
X206810395Y-56640000D01*
X205854587Y-55684192D01*
X205590186Y-55779956D01*
X205449296Y-56069571D01*
X205367616Y-56381108D01*
X205348282Y-56702595D01*
X203545000Y-56702595D01*
X203545000Y-56478967D01*
X203482168Y-56163088D01*
X203358918Y-55865537D01*
X203179987Y-55597748D01*
X202952252Y-55370013D01*
X202684463Y-55191082D01*
X202386912Y-55067832D01*
X202071033Y-55005000D01*
X201748967Y-55005000D01*
X201433088Y-55067832D01*
X201135537Y-55191082D01*
X200867748Y-55370013D01*
X200640013Y-55597748D01*
X200461082Y-55865537D01*
X200337832Y-56163088D01*
X200275000Y-56478967D01*
X157192386Y-56478967D01*
X157120043Y-56430629D01*
X156867989Y-56326225D01*
X156600411Y-56273000D01*
X156327589Y-56273000D01*
X156060011Y-56326225D01*
X155807957Y-56430629D01*
X155581114Y-56582201D01*
X155388201Y-56775114D01*
X155236629Y-57001957D01*
X155132225Y-57254011D01*
X155079000Y-57521589D01*
X152769000Y-57521589D01*
X152715775Y-57254011D01*
X152611371Y-57001957D01*
X152459799Y-56775114D01*
X152266886Y-56582201D01*
X152040043Y-56430629D01*
X151787989Y-56326225D01*
X151520411Y-56273000D01*
X151247589Y-56273000D01*
X150980011Y-56326225D01*
X150727957Y-56430629D01*
X150501114Y-56582201D01*
X150308201Y-56775114D01*
X150156629Y-57001957D01*
X150114000Y-57104873D01*
X150071371Y-57001957D01*
X149919799Y-56775114D01*
X149726886Y-56582201D01*
X149500043Y-56430629D01*
X149247989Y-56326225D01*
X148980411Y-56273000D01*
X148707589Y-56273000D01*
X148440011Y-56326225D01*
X148187957Y-56430629D01*
X147961114Y-56582201D01*
X147768201Y-56775114D01*
X147616629Y-57001957D01*
X147574000Y-57104873D01*
X147531371Y-57001957D01*
X147379799Y-56775114D01*
X147186886Y-56582201D01*
X146960043Y-56430629D01*
X146707989Y-56326225D01*
X146440411Y-56273000D01*
X146167589Y-56273000D01*
X145900011Y-56326225D01*
X145647957Y-56430629D01*
X145421114Y-56582201D01*
X145228201Y-56775114D01*
X145076629Y-57001957D01*
X145034000Y-57104873D01*
X144991371Y-57001957D01*
X144839799Y-56775114D01*
X144646886Y-56582201D01*
X144420043Y-56430629D01*
X144167989Y-56326225D01*
X143900411Y-56273000D01*
X143627589Y-56273000D01*
X143360011Y-56326225D01*
X143107957Y-56430629D01*
X142881114Y-56582201D01*
X142688201Y-56775114D01*
X142536629Y-57001957D01*
X142432225Y-57254011D01*
X142379000Y-57521589D01*
X90660000Y-57521589D01*
X90660000Y-55029392D01*
X90683148Y-54770023D01*
X92665000Y-54770023D01*
X92665000Y-55229977D01*
X92754733Y-55681094D01*
X92930750Y-56106037D01*
X93186287Y-56488476D01*
X93511524Y-56813713D01*
X93893963Y-57069250D01*
X94318906Y-57245267D01*
X94770023Y-57335000D01*
X95229977Y-57335000D01*
X95681094Y-57245267D01*
X96106037Y-57069250D01*
X96488476Y-56813713D01*
X96813713Y-56488476D01*
X97069250Y-56106037D01*
X97245267Y-55681094D01*
X97335000Y-55229977D01*
X97335000Y-54770023D01*
X97245267Y-54318906D01*
X97069250Y-53893963D01*
X96973058Y-53750000D01*
X127731928Y-53750000D01*
X127731928Y-56250000D01*
X127744188Y-56374482D01*
X127780498Y-56494180D01*
X127839463Y-56604494D01*
X127918815Y-56701185D01*
X128015506Y-56780537D01*
X128125820Y-56839502D01*
X128245518Y-56875812D01*
X128370000Y-56888072D01*
X130870000Y-56888072D01*
X130994482Y-56875812D01*
X131114180Y-56839502D01*
X131224494Y-56780537D01*
X131321185Y-56701185D01*
X131400537Y-56604494D01*
X131459502Y-56494180D01*
X131495812Y-56374482D01*
X131508072Y-56250000D01*
X131508072Y-54814344D01*
X132735000Y-54814344D01*
X132735000Y-55185656D01*
X132807439Y-55549834D01*
X132949534Y-55892882D01*
X133155825Y-56201618D01*
X133418382Y-56464175D01*
X133727118Y-56670466D01*
X134070166Y-56812561D01*
X134434344Y-56885000D01*
X134805656Y-56885000D01*
X135169834Y-56812561D01*
X135512882Y-56670466D01*
X135821618Y-56464175D01*
X136084175Y-56201618D01*
X136290466Y-55892882D01*
X136432561Y-55549834D01*
X136505000Y-55185656D01*
X136505000Y-54814344D01*
X136432561Y-54450166D01*
X136290466Y-54107118D01*
X136084175Y-53798382D01*
X135821618Y-53535825D01*
X135512882Y-53329534D01*
X135169834Y-53187439D01*
X134805656Y-53115000D01*
X134434344Y-53115000D01*
X134070166Y-53187439D01*
X133727118Y-53329534D01*
X133418382Y-53535825D01*
X133155825Y-53798382D01*
X132949534Y-54107118D01*
X132807439Y-54450166D01*
X132735000Y-54814344D01*
X131508072Y-54814344D01*
X131508072Y-53750000D01*
X131495812Y-53625518D01*
X131459502Y-53505820D01*
X131400537Y-53395506D01*
X131321185Y-53298815D01*
X131224494Y-53219463D01*
X131114180Y-53160498D01*
X130994482Y-53124188D01*
X130870000Y-53111928D01*
X128370000Y-53111928D01*
X128245518Y-53124188D01*
X128125820Y-53160498D01*
X128015506Y-53219463D01*
X127918815Y-53298815D01*
X127839463Y-53395506D01*
X127780498Y-53505820D01*
X127744188Y-53625518D01*
X127731928Y-53750000D01*
X96973058Y-53750000D01*
X96813713Y-53511524D01*
X96488476Y-53186287D01*
X96106037Y-52930750D01*
X95681094Y-52754733D01*
X95229977Y-52665000D01*
X94770023Y-52665000D01*
X94318906Y-52754733D01*
X93893963Y-52930750D01*
X93511524Y-53186287D01*
X93186287Y-53511524D01*
X92930750Y-53893963D01*
X92754733Y-54318906D01*
X92665000Y-54770023D01*
X90683148Y-54770023D01*
X90731173Y-54231917D01*
X90934656Y-53488109D01*
X91266638Y-52792095D01*
X91518501Y-52441589D01*
X142379000Y-52441589D01*
X142379000Y-52714411D01*
X142432225Y-52981989D01*
X142536629Y-53234043D01*
X142688201Y-53460886D01*
X142881114Y-53653799D01*
X143107957Y-53805371D01*
X143360011Y-53909775D01*
X143627589Y-53963000D01*
X143900411Y-53963000D01*
X144167989Y-53909775D01*
X144420043Y-53805371D01*
X144646886Y-53653799D01*
X144839799Y-53460886D01*
X144991371Y-53234043D01*
X145034000Y-53131127D01*
X145076629Y-53234043D01*
X145228201Y-53460886D01*
X145421114Y-53653799D01*
X145647957Y-53805371D01*
X145900011Y-53909775D01*
X146167589Y-53963000D01*
X146440411Y-53963000D01*
X146707989Y-53909775D01*
X146960043Y-53805371D01*
X147186886Y-53653799D01*
X147379799Y-53460886D01*
X147531371Y-53234043D01*
X147574000Y-53131127D01*
X147616629Y-53234043D01*
X147768201Y-53460886D01*
X147961114Y-53653799D01*
X148187957Y-53805371D01*
X148440011Y-53909775D01*
X148707589Y-53963000D01*
X148980411Y-53963000D01*
X149247989Y-53909775D01*
X149500043Y-53805371D01*
X149726886Y-53653799D01*
X149919799Y-53460886D01*
X150071371Y-53234043D01*
X150114000Y-53131127D01*
X150156629Y-53234043D01*
X150308201Y-53460886D01*
X150501114Y-53653799D01*
X150727957Y-53805371D01*
X150980011Y-53909775D01*
X151247589Y-53963000D01*
X151520411Y-53963000D01*
X151787989Y-53909775D01*
X152040043Y-53805371D01*
X152266886Y-53653799D01*
X152459799Y-53460886D01*
X152611371Y-53234043D01*
X152715775Y-52981989D01*
X152769000Y-52714411D01*
X152769000Y-52441589D01*
X152715775Y-52174011D01*
X152676214Y-52078500D01*
X155075928Y-52078500D01*
X155075928Y-53077500D01*
X155093002Y-53250852D01*
X155143567Y-53417542D01*
X155225679Y-53571164D01*
X155336185Y-53705815D01*
X155470836Y-53816321D01*
X155624458Y-53898433D01*
X155791148Y-53948998D01*
X155964500Y-53966072D01*
X156963500Y-53966072D01*
X157136852Y-53948998D01*
X157169919Y-53938967D01*
X202815000Y-53938967D01*
X202815000Y-54261033D01*
X202877832Y-54576912D01*
X203001082Y-54874463D01*
X203180013Y-55142252D01*
X203407748Y-55369987D01*
X203675537Y-55548918D01*
X203973088Y-55672168D01*
X204288967Y-55735000D01*
X204611033Y-55735000D01*
X204926912Y-55672168D01*
X205224463Y-55548918D01*
X205290808Y-55504587D01*
X206034192Y-55504587D01*
X206990000Y-56460395D01*
X207945808Y-55504587D01*
X207850044Y-55240186D01*
X207560429Y-55099296D01*
X207248892Y-55017616D01*
X206927405Y-54998282D01*
X206608325Y-55042039D01*
X206303912Y-55147205D01*
X206129956Y-55240186D01*
X206034192Y-55504587D01*
X205290808Y-55504587D01*
X205492252Y-55369987D01*
X205719987Y-55142252D01*
X205898918Y-54874463D01*
X205942178Y-54770023D01*
X212665000Y-54770023D01*
X212665000Y-55229977D01*
X212754733Y-55681094D01*
X212930750Y-56106037D01*
X213186287Y-56488476D01*
X213511524Y-56813713D01*
X213893963Y-57069250D01*
X214318906Y-57245267D01*
X214770023Y-57335000D01*
X215229977Y-57335000D01*
X215681094Y-57245267D01*
X216106037Y-57069250D01*
X216488476Y-56813713D01*
X216813713Y-56488476D01*
X217069250Y-56106037D01*
X217245267Y-55681094D01*
X217335000Y-55229977D01*
X217335000Y-54770023D01*
X217245267Y-54318906D01*
X217069250Y-53893963D01*
X216813713Y-53511524D01*
X216488476Y-53186287D01*
X216106037Y-52930750D01*
X215681094Y-52754733D01*
X215229977Y-52665000D01*
X214770023Y-52665000D01*
X214318906Y-52754733D01*
X213893963Y-52930750D01*
X213511524Y-53186287D01*
X213186287Y-53511524D01*
X212930750Y-53893963D01*
X212754733Y-54318906D01*
X212665000Y-54770023D01*
X205942178Y-54770023D01*
X206022168Y-54576912D01*
X206085000Y-54261033D01*
X206085000Y-53938967D01*
X206022168Y-53623088D01*
X205898918Y-53325537D01*
X205719987Y-53057748D01*
X205492252Y-52830013D01*
X205224463Y-52651082D01*
X204926912Y-52527832D01*
X204611033Y-52465000D01*
X204288967Y-52465000D01*
X203973088Y-52527832D01*
X203675537Y-52651082D01*
X203407748Y-52830013D01*
X203180013Y-53057748D01*
X203001082Y-53325537D01*
X202877832Y-53623088D01*
X202815000Y-53938967D01*
X157169919Y-53938967D01*
X157303542Y-53898433D01*
X157457164Y-53816321D01*
X157591815Y-53705815D01*
X157702321Y-53571164D01*
X157784433Y-53417542D01*
X157834998Y-53250852D01*
X157852072Y-53077500D01*
X157852072Y-52078500D01*
X157834998Y-51905148D01*
X157784433Y-51738458D01*
X157702321Y-51584836D01*
X157591815Y-51450185D01*
X157457164Y-51339679D01*
X157303542Y-51257567D01*
X157136852Y-51207002D01*
X156963500Y-51189928D01*
X155964500Y-51189928D01*
X155791148Y-51207002D01*
X155624458Y-51257567D01*
X155470836Y-51339679D01*
X155336185Y-51450185D01*
X155225679Y-51584836D01*
X155143567Y-51738458D01*
X155093002Y-51905148D01*
X155075928Y-52078500D01*
X152676214Y-52078500D01*
X152611371Y-51921957D01*
X152459799Y-51695114D01*
X152266886Y-51502201D01*
X152040043Y-51350629D01*
X151787989Y-51246225D01*
X151520411Y-51193000D01*
X151247589Y-51193000D01*
X150980011Y-51246225D01*
X150727957Y-51350629D01*
X150501114Y-51502201D01*
X150308201Y-51695114D01*
X150156629Y-51921957D01*
X150114000Y-52024873D01*
X150071371Y-51921957D01*
X149919799Y-51695114D01*
X149726886Y-51502201D01*
X149500043Y-51350629D01*
X149247989Y-51246225D01*
X148980411Y-51193000D01*
X148707589Y-51193000D01*
X148440011Y-51246225D01*
X148187957Y-51350629D01*
X147961114Y-51502201D01*
X147768201Y-51695114D01*
X147616629Y-51921957D01*
X147574000Y-52024873D01*
X147531371Y-51921957D01*
X147379799Y-51695114D01*
X147186886Y-51502201D01*
X146960043Y-51350629D01*
X146707989Y-51246225D01*
X146440411Y-51193000D01*
X146167589Y-51193000D01*
X145900011Y-51246225D01*
X145647957Y-51350629D01*
X145421114Y-51502201D01*
X145228201Y-51695114D01*
X145076629Y-51921957D01*
X145034000Y-52024873D01*
X144991371Y-51921957D01*
X144839799Y-51695114D01*
X144646886Y-51502201D01*
X144420043Y-51350629D01*
X144167989Y-51246225D01*
X143900411Y-51193000D01*
X143627589Y-51193000D01*
X143360011Y-51246225D01*
X143107957Y-51350629D01*
X142881114Y-51502201D01*
X142688201Y-51695114D01*
X142536629Y-51921957D01*
X142432225Y-52174011D01*
X142379000Y-52441589D01*
X91518501Y-52441589D01*
X91716626Y-52165870D01*
X92270403Y-51629223D01*
X92910451Y-51199129D01*
X93616553Y-50889171D01*
X94371457Y-50707935D01*
X95024207Y-50660000D01*
X214970608Y-50660000D01*
X215768083Y-50731173D01*
G04 #@! TA.AperFunction,Conductor*
D20*
G36*
X215768083Y-50731173D02*
G01*
X216511891Y-50934656D01*
X217207905Y-51266638D01*
X217834130Y-51716626D01*
X218370777Y-52270403D01*
X218800871Y-52910451D01*
X219110829Y-53616553D01*
X219292065Y-54371457D01*
X219340000Y-55024207D01*
X219340001Y-114970597D01*
X219268827Y-115768083D01*
X219065344Y-116511890D01*
X218733363Y-117207904D01*
X218283374Y-117834130D01*
X217729597Y-118370777D01*
X217089549Y-118800871D01*
X216383447Y-119110829D01*
X215628543Y-119292065D01*
X214975793Y-119340000D01*
X95029392Y-119340000D01*
X94231917Y-119268827D01*
X93488110Y-119065344D01*
X92792096Y-118733363D01*
X92165870Y-118283374D01*
X91629223Y-117729597D01*
X91199129Y-117089549D01*
X90889171Y-116383447D01*
X90707935Y-115628543D01*
X90696524Y-115473148D01*
X95926457Y-115473148D01*
X96202627Y-115891118D01*
X96747557Y-116181649D01*
X97338696Y-116360287D01*
X97953328Y-116420168D01*
X98567831Y-116358990D01*
X99158592Y-116179103D01*
X99697373Y-115891118D01*
X99973543Y-115473148D01*
X97950000Y-113449605D01*
X95926457Y-115473148D01*
X90696524Y-115473148D01*
X90660000Y-114975793D01*
X90660000Y-113273328D01*
X94799832Y-113273328D01*
X94861010Y-113887831D01*
X95040897Y-114478592D01*
X95328882Y-115017373D01*
X95746852Y-115293543D01*
X97770395Y-113270000D01*
X98129605Y-113270000D01*
X100153148Y-115293543D01*
X100571118Y-115017373D01*
X100702993Y-114770023D01*
X109665000Y-114770023D01*
X109665000Y-115229977D01*
X109754733Y-115681094D01*
X109930750Y-116106037D01*
X110186287Y-116488476D01*
X110511524Y-116813713D01*
X110893963Y-117069250D01*
X111318906Y-117245267D01*
X111770023Y-117335000D01*
X112229977Y-117335000D01*
X112681094Y-117245267D01*
X113106037Y-117069250D01*
X113488476Y-116813713D01*
X113813713Y-116488476D01*
X114069250Y-116106037D01*
X114245267Y-115681094D01*
X114286630Y-115473148D01*
X190026457Y-115473148D01*
X190302627Y-115891118D01*
X190847557Y-116181649D01*
X191438696Y-116360287D01*
X192053328Y-116420168D01*
X192667831Y-116358990D01*
X193258592Y-116179103D01*
X193797373Y-115891118D01*
X194073543Y-115473148D01*
X192050000Y-113449605D01*
X190026457Y-115473148D01*
X114286630Y-115473148D01*
X114335000Y-115229977D01*
X114335000Y-114770023D01*
X114245267Y-114318906D01*
X114069250Y-113893963D01*
X113813713Y-113511524D01*
X113575517Y-113273328D01*
X188899832Y-113273328D01*
X188961010Y-113887831D01*
X189140897Y-114478592D01*
X189428882Y-115017373D01*
X189846852Y-115293543D01*
X191870395Y-113270000D01*
X192229605Y-113270000D01*
X194253148Y-115293543D01*
X194671118Y-115017373D01*
X194802993Y-114770023D01*
X212665000Y-114770023D01*
X212665000Y-115229977D01*
X212754733Y-115681094D01*
X212930750Y-116106037D01*
X213186287Y-116488476D01*
X213511524Y-116813713D01*
X213893963Y-117069250D01*
X214318906Y-117245267D01*
X214770023Y-117335000D01*
X215229977Y-117335000D01*
X215681094Y-117245267D01*
X216106037Y-117069250D01*
X216488476Y-116813713D01*
X216813713Y-116488476D01*
X217069250Y-116106037D01*
X217245267Y-115681094D01*
X217335000Y-115229977D01*
X217335000Y-114770023D01*
X217245267Y-114318906D01*
X217069250Y-113893963D01*
X216813713Y-113511524D01*
X216488476Y-113186287D01*
X216106037Y-112930750D01*
X215681094Y-112754733D01*
X215229977Y-112665000D01*
X214770023Y-112665000D01*
X214318906Y-112754733D01*
X213893963Y-112930750D01*
X213511524Y-113186287D01*
X213186287Y-113511524D01*
X212930750Y-113893963D01*
X212754733Y-114318906D01*
X212665000Y-114770023D01*
X194802993Y-114770023D01*
X194961649Y-114472443D01*
X195140287Y-113881304D01*
X195183665Y-113436061D01*
X204959000Y-113436061D01*
X204959000Y-113639939D01*
X204998774Y-113839898D01*
X205076795Y-114028256D01*
X205190063Y-114197774D01*
X205334226Y-114341937D01*
X205503744Y-114455205D01*
X205692102Y-114533226D01*
X205892061Y-114573000D01*
X206095939Y-114573000D01*
X206295898Y-114533226D01*
X206484256Y-114455205D01*
X206653774Y-114341937D01*
X206797937Y-114197774D01*
X206911205Y-114028256D01*
X206989226Y-113839898D01*
X207029000Y-113639939D01*
X207029000Y-113436061D01*
X206989226Y-113236102D01*
X206911205Y-113047744D01*
X206797937Y-112878226D01*
X206653774Y-112734063D01*
X206484256Y-112620795D01*
X206295898Y-112542774D01*
X206095939Y-112503000D01*
X205892061Y-112503000D01*
X205692102Y-112542774D01*
X205503744Y-112620795D01*
X205334226Y-112734063D01*
X205190063Y-112878226D01*
X205076795Y-113047744D01*
X204998774Y-113236102D01*
X204959000Y-113436061D01*
X195183665Y-113436061D01*
X195200168Y-113266672D01*
X195138990Y-112652169D01*
X194959103Y-112061408D01*
X194671118Y-111522627D01*
X194253148Y-111246457D01*
X192229605Y-113270000D01*
X191870395Y-113270000D01*
X189846852Y-111246457D01*
X189428882Y-111522627D01*
X189138351Y-112067557D01*
X188959713Y-112658696D01*
X188899832Y-113273328D01*
X113575517Y-113273328D01*
X113488476Y-113186287D01*
X113106037Y-112930750D01*
X112681094Y-112754733D01*
X112229977Y-112665000D01*
X111770023Y-112665000D01*
X111318906Y-112754733D01*
X110893963Y-112930750D01*
X110511524Y-113186287D01*
X110186287Y-113511524D01*
X109930750Y-113893963D01*
X109754733Y-114318906D01*
X109665000Y-114770023D01*
X100702993Y-114770023D01*
X100861649Y-114472443D01*
X101040287Y-113881304D01*
X101100168Y-113266672D01*
X101038990Y-112652169D01*
X100859103Y-112061408D01*
X100571118Y-111522627D01*
X100153148Y-111246457D01*
X98129605Y-113270000D01*
X97770395Y-113270000D01*
X95746852Y-111246457D01*
X95328882Y-111522627D01*
X95038351Y-112067557D01*
X94859713Y-112658696D01*
X94799832Y-113273328D01*
X90660000Y-113273328D01*
X90660000Y-111066852D01*
X95926457Y-111066852D01*
X97950000Y-113090395D01*
X99973543Y-111066852D01*
X190026457Y-111066852D01*
X192050000Y-113090395D01*
X194073543Y-111066852D01*
X193797373Y-110648882D01*
X193252443Y-110358351D01*
X192661304Y-110179713D01*
X192046672Y-110119832D01*
X191432169Y-110181010D01*
X190841408Y-110360897D01*
X190302627Y-110648882D01*
X190026457Y-111066852D01*
X99973543Y-111066852D01*
X99697373Y-110648882D01*
X99152443Y-110358351D01*
X98561304Y-110179713D01*
X97946672Y-110119832D01*
X97332169Y-110181010D01*
X96741408Y-110360897D01*
X96202627Y-110648882D01*
X95926457Y-111066852D01*
X90660000Y-111066852D01*
X90660000Y-99940818D01*
X106256960Y-99940818D01*
X106298376Y-100220205D01*
X106393502Y-100486144D01*
X106460282Y-100611081D01*
X106704131Y-100682521D01*
X106587854Y-100798798D01*
X106664547Y-100875491D01*
X106582271Y-100957766D01*
X106425356Y-101192607D01*
X106317271Y-101453547D01*
X106262170Y-101730560D01*
X106262170Y-102013000D01*
X106317271Y-102290013D01*
X106425356Y-102550953D01*
X106582271Y-102785794D01*
X106666477Y-102870000D01*
X106582271Y-102954206D01*
X106425356Y-103189047D01*
X106317271Y-103449987D01*
X106262170Y-103727000D01*
X106262170Y-104009440D01*
X106317271Y-104286453D01*
X106425356Y-104547393D01*
X106582271Y-104782234D01*
X106669017Y-104868980D01*
X106582271Y-104955726D01*
X106425356Y-105190567D01*
X106317271Y-105451507D01*
X106262170Y-105728520D01*
X106262170Y-106010960D01*
X106317271Y-106287973D01*
X106425356Y-106548913D01*
X106582271Y-106783754D01*
X106781986Y-106983469D01*
X107016827Y-107140384D01*
X107277767Y-107248469D01*
X107554780Y-107303570D01*
X107837220Y-107303570D01*
X108114233Y-107248469D01*
X108375173Y-107140384D01*
X108610014Y-106983469D01*
X108809729Y-106783754D01*
X108966644Y-106548913D01*
X109074729Y-106287973D01*
X109129830Y-106010960D01*
X109129830Y-105728520D01*
X109074729Y-105451507D01*
X108966644Y-105190567D01*
X108809729Y-104955726D01*
X108722983Y-104868980D01*
X108809729Y-104782234D01*
X108966644Y-104547393D01*
X109074729Y-104286453D01*
X109129830Y-104009440D01*
X109129830Y-103727000D01*
X109074729Y-103449987D01*
X108966644Y-103189047D01*
X108809729Y-102954206D01*
X108750584Y-102895061D01*
X168129000Y-102895061D01*
X168129000Y-103098939D01*
X168168774Y-103298898D01*
X168246795Y-103487256D01*
X168258651Y-103505000D01*
X168246795Y-103522744D01*
X168168774Y-103711102D01*
X168129000Y-103911061D01*
X168129000Y-104114939D01*
X168168774Y-104314898D01*
X168246795Y-104503256D01*
X168258651Y-104521000D01*
X168246795Y-104538744D01*
X168168774Y-104727102D01*
X168129000Y-104927061D01*
X168129000Y-105130939D01*
X168168774Y-105330898D01*
X168246795Y-105519256D01*
X168258651Y-105537000D01*
X168246795Y-105554744D01*
X168168774Y-105743102D01*
X168129000Y-105943061D01*
X168129000Y-106146939D01*
X168168774Y-106346898D01*
X168246795Y-106535256D01*
X168360063Y-106704774D01*
X168504226Y-106848937D01*
X168673744Y-106962205D01*
X168862102Y-107040226D01*
X169062061Y-107080000D01*
X169265939Y-107080000D01*
X169465898Y-107040226D01*
X169654256Y-106962205D01*
X169823774Y-106848937D01*
X169967937Y-106704774D01*
X170081205Y-106535256D01*
X170159226Y-106346898D01*
X170199000Y-106146939D01*
X170199000Y-105943061D01*
X170159226Y-105743102D01*
X170081205Y-105554744D01*
X170069349Y-105537000D01*
X170081205Y-105519256D01*
X170159226Y-105330898D01*
X170199000Y-105130939D01*
X170199000Y-104927061D01*
X170159226Y-104727102D01*
X170081205Y-104538744D01*
X170069349Y-104521000D01*
X170081205Y-104503256D01*
X170159226Y-104314898D01*
X170199000Y-104114939D01*
X170199000Y-103911061D01*
X170159226Y-103711102D01*
X170081205Y-103522744D01*
X170069349Y-103505000D01*
X170081205Y-103487256D01*
X170159226Y-103298898D01*
X170199000Y-103098939D01*
X170199000Y-102895061D01*
X171685000Y-102895061D01*
X171685000Y-103098939D01*
X171724774Y-103298898D01*
X171802795Y-103487256D01*
X171814651Y-103505000D01*
X171802795Y-103522744D01*
X171724774Y-103711102D01*
X171685000Y-103911061D01*
X171685000Y-104114939D01*
X171724774Y-104314898D01*
X171802795Y-104503256D01*
X171814651Y-104521000D01*
X171802795Y-104538744D01*
X171724774Y-104727102D01*
X171685000Y-104927061D01*
X171685000Y-105130939D01*
X171724774Y-105330898D01*
X171802795Y-105519256D01*
X171814651Y-105537000D01*
X171802795Y-105554744D01*
X171724774Y-105743102D01*
X171685000Y-105943061D01*
X171685000Y-106146939D01*
X171724774Y-106346898D01*
X171802795Y-106535256D01*
X171916063Y-106704774D01*
X172060226Y-106848937D01*
X172229744Y-106962205D01*
X172418102Y-107040226D01*
X172618061Y-107080000D01*
X172821939Y-107080000D01*
X173021898Y-107040226D01*
X173210256Y-106962205D01*
X173379774Y-106848937D01*
X173523937Y-106704774D01*
X173637205Y-106535256D01*
X173715226Y-106346898D01*
X173755000Y-106146939D01*
X173755000Y-105943061D01*
X173715226Y-105743102D01*
X173637205Y-105554744D01*
X173625349Y-105537000D01*
X173637205Y-105519256D01*
X173715226Y-105330898D01*
X173755000Y-105130939D01*
X173755000Y-104927061D01*
X173715226Y-104727102D01*
X173637205Y-104538744D01*
X173625349Y-104521000D01*
X173637205Y-104503256D01*
X173715226Y-104314898D01*
X173755000Y-104114939D01*
X173755000Y-103911061D01*
X173715226Y-103711102D01*
X173637205Y-103522744D01*
X173625349Y-103505000D01*
X173637205Y-103487256D01*
X173715226Y-103298898D01*
X173755000Y-103098939D01*
X173755000Y-102895061D01*
X173715226Y-102695102D01*
X173637205Y-102506744D01*
X173523937Y-102337226D01*
X173379774Y-102193063D01*
X173210256Y-102079795D01*
X173021898Y-102001774D01*
X172821939Y-101962000D01*
X172618061Y-101962000D01*
X172418102Y-102001774D01*
X172229744Y-102079795D01*
X172060226Y-102193063D01*
X171916063Y-102337226D01*
X171802795Y-102506744D01*
X171724774Y-102695102D01*
X171685000Y-102895061D01*
X170199000Y-102895061D01*
X170159226Y-102695102D01*
X170081205Y-102506744D01*
X169967937Y-102337226D01*
X169823774Y-102193063D01*
X169654256Y-102079795D01*
X169465898Y-102001774D01*
X169265939Y-101962000D01*
X169062061Y-101962000D01*
X168862102Y-102001774D01*
X168673744Y-102079795D01*
X168504226Y-102193063D01*
X168360063Y-102337226D01*
X168246795Y-102506744D01*
X168168774Y-102695102D01*
X168129000Y-102895061D01*
X108750584Y-102895061D01*
X108725523Y-102870000D01*
X108809729Y-102785794D01*
X108966644Y-102550953D01*
X109074729Y-102290013D01*
X109129830Y-102013000D01*
X109129830Y-101730560D01*
X109074729Y-101453547D01*
X108966644Y-101192607D01*
X108809729Y-100957766D01*
X108727454Y-100875491D01*
X108804146Y-100798798D01*
X108687869Y-100682521D01*
X108931718Y-100611081D01*
X109052501Y-100355769D01*
X109121155Y-100081800D01*
X109135040Y-99799702D01*
X109093624Y-99520315D01*
X108998498Y-99254376D01*
X108931718Y-99129439D01*
X108687867Y-99057998D01*
X107875605Y-99870260D01*
X107889748Y-99884403D01*
X107710143Y-100064008D01*
X107696000Y-100049865D01*
X107681858Y-100064008D01*
X107502253Y-99884403D01*
X107516395Y-99870260D01*
X106704133Y-99057998D01*
X106460282Y-99129439D01*
X106339499Y-99384751D01*
X106270845Y-99658720D01*
X106256960Y-99940818D01*
X90660000Y-99940818D01*
X90660000Y-98878393D01*
X106883738Y-98878393D01*
X107696000Y-99690655D01*
X108508262Y-98878393D01*
X108436821Y-98634542D01*
X108181509Y-98513759D01*
X107907540Y-98445105D01*
X107625442Y-98431220D01*
X107346055Y-98472636D01*
X107080116Y-98567762D01*
X106955179Y-98634542D01*
X106883738Y-98878393D01*
X90660000Y-98878393D01*
X90660000Y-94954375D01*
X187337000Y-94954375D01*
X187337000Y-95567624D01*
X187357214Y-95772859D01*
X187437096Y-96036194D01*
X187566817Y-96278886D01*
X187741392Y-96491607D01*
X187954113Y-96666183D01*
X188196805Y-96795904D01*
X188460140Y-96875786D01*
X188734000Y-96902759D01*
X189007859Y-96875786D01*
X189271194Y-96795904D01*
X189513886Y-96666183D01*
X189726607Y-96491608D01*
X189901183Y-96278887D01*
X190004000Y-96086529D01*
X190106817Y-96278886D01*
X190281392Y-96491607D01*
X190494113Y-96666183D01*
X190736805Y-96795904D01*
X191000140Y-96875786D01*
X191274000Y-96902759D01*
X191547859Y-96875786D01*
X191811194Y-96795904D01*
X192053886Y-96666183D01*
X192266607Y-96491608D01*
X192441183Y-96278887D01*
X192544000Y-96086529D01*
X192646817Y-96278886D01*
X192821392Y-96491607D01*
X193034113Y-96666183D01*
X193276805Y-96795904D01*
X193540140Y-96875786D01*
X193814000Y-96902759D01*
X194087859Y-96875786D01*
X194351194Y-96795904D01*
X194593886Y-96666183D01*
X194806607Y-96491608D01*
X194981183Y-96278887D01*
X195084000Y-96086529D01*
X195186817Y-96278886D01*
X195361392Y-96491607D01*
X195574113Y-96666183D01*
X195816805Y-96795904D01*
X196080140Y-96875786D01*
X196354000Y-96902759D01*
X196627859Y-96875786D01*
X196891194Y-96795904D01*
X197133886Y-96666183D01*
X197346607Y-96491608D01*
X197521183Y-96278887D01*
X197624000Y-96086529D01*
X197726817Y-96278886D01*
X197901392Y-96491607D01*
X198114113Y-96666183D01*
X198356805Y-96795904D01*
X198620140Y-96875786D01*
X198894000Y-96902759D01*
X199167859Y-96875786D01*
X199431194Y-96795904D01*
X199673886Y-96666183D01*
X199886607Y-96491608D01*
X200061183Y-96278887D01*
X200164000Y-96086529D01*
X200266817Y-96278886D01*
X200441392Y-96491607D01*
X200654113Y-96666183D01*
X200896805Y-96795904D01*
X201160140Y-96875786D01*
X201434000Y-96902759D01*
X201707859Y-96875786D01*
X201971194Y-96795904D01*
X202213886Y-96666183D01*
X202426607Y-96491608D01*
X202601183Y-96278887D01*
X202704000Y-96086529D01*
X202806817Y-96278886D01*
X202981392Y-96491607D01*
X203194113Y-96666183D01*
X203436805Y-96795904D01*
X203700140Y-96875786D01*
X203974000Y-96902759D01*
X204247859Y-96875786D01*
X204511194Y-96795904D01*
X204753886Y-96666183D01*
X204966607Y-96491608D01*
X205141183Y-96278887D01*
X205244000Y-96086529D01*
X205346817Y-96278886D01*
X205521392Y-96491607D01*
X205734113Y-96666183D01*
X205976805Y-96795904D01*
X206240140Y-96875786D01*
X206514000Y-96902759D01*
X206787859Y-96875786D01*
X207051194Y-96795904D01*
X207293886Y-96666183D01*
X207506607Y-96491608D01*
X207681183Y-96278887D01*
X207784000Y-96086529D01*
X207886817Y-96278886D01*
X208061392Y-96491607D01*
X208274113Y-96666183D01*
X208516805Y-96795904D01*
X208780140Y-96875786D01*
X209054000Y-96902759D01*
X209327859Y-96875786D01*
X209591194Y-96795904D01*
X209833886Y-96666183D01*
X210046607Y-96491608D01*
X210221183Y-96278887D01*
X210322198Y-96089901D01*
X210340574Y-96136917D01*
X210489110Y-96369191D01*
X210680106Y-96568024D01*
X210906222Y-96725775D01*
X211158769Y-96836382D01*
X211250930Y-96853220D01*
X211467000Y-96730720D01*
X211467000Y-95388000D01*
X211721000Y-95388000D01*
X211721000Y-96730720D01*
X211937070Y-96853220D01*
X212029231Y-96836382D01*
X212281778Y-96725775D01*
X212507894Y-96568024D01*
X212698890Y-96369191D01*
X212847426Y-96136917D01*
X212947793Y-95880128D01*
X212996135Y-95608693D01*
X212837282Y-95388000D01*
X211721000Y-95388000D01*
X211467000Y-95388000D01*
X211447000Y-95388000D01*
X211447000Y-95134000D01*
X211467000Y-95134000D01*
X211467000Y-93791280D01*
X211721000Y-93791280D01*
X211721000Y-95134000D01*
X212837282Y-95134000D01*
X212996135Y-94913307D01*
X212947793Y-94641872D01*
X212847426Y-94385083D01*
X212698890Y-94152809D01*
X212507894Y-93953976D01*
X212281778Y-93796225D01*
X212029231Y-93685618D01*
X211937070Y-93668780D01*
X211721000Y-93791280D01*
X211467000Y-93791280D01*
X211250930Y-93668780D01*
X211158769Y-93685618D01*
X210906222Y-93796225D01*
X210680106Y-93953976D01*
X210489110Y-94152809D01*
X210340574Y-94385083D01*
X210322197Y-94432099D01*
X210221183Y-94243113D01*
X210046608Y-94030392D01*
X209833887Y-93855817D01*
X209591195Y-93726096D01*
X209327860Y-93646214D01*
X209054000Y-93619241D01*
X208780141Y-93646214D01*
X208516806Y-93726096D01*
X208274114Y-93855817D01*
X208061393Y-94030392D01*
X207886817Y-94243113D01*
X207784000Y-94435471D01*
X207681183Y-94243113D01*
X207506608Y-94030392D01*
X207293887Y-93855817D01*
X207051195Y-93726096D01*
X206787860Y-93646214D01*
X206514000Y-93619241D01*
X206240141Y-93646214D01*
X205976806Y-93726096D01*
X205734114Y-93855817D01*
X205521393Y-94030392D01*
X205346817Y-94243113D01*
X205244000Y-94435471D01*
X205141183Y-94243113D01*
X204966608Y-94030392D01*
X204753887Y-93855817D01*
X204511195Y-93726096D01*
X204247860Y-93646214D01*
X203974000Y-93619241D01*
X203700141Y-93646214D01*
X203436806Y-93726096D01*
X203194114Y-93855817D01*
X202981393Y-94030392D01*
X202806817Y-94243113D01*
X202704000Y-94435471D01*
X202601183Y-94243113D01*
X202426608Y-94030392D01*
X202213887Y-93855817D01*
X201971195Y-93726096D01*
X201707860Y-93646214D01*
X201434000Y-93619241D01*
X201160141Y-93646214D01*
X200896806Y-93726096D01*
X200654114Y-93855817D01*
X200441393Y-94030392D01*
X200266817Y-94243113D01*
X200164000Y-94435471D01*
X200061183Y-94243113D01*
X199886608Y-94030392D01*
X199673887Y-93855817D01*
X199431195Y-93726096D01*
X199167860Y-93646214D01*
X198894000Y-93619241D01*
X198620141Y-93646214D01*
X198356806Y-93726096D01*
X198114114Y-93855817D01*
X197901393Y-94030392D01*
X197726817Y-94243113D01*
X197624000Y-94435471D01*
X197521183Y-94243113D01*
X197346608Y-94030392D01*
X197133887Y-93855817D01*
X196891195Y-93726096D01*
X196627860Y-93646214D01*
X196354000Y-93619241D01*
X196080141Y-93646214D01*
X195816806Y-93726096D01*
X195574114Y-93855817D01*
X195361393Y-94030392D01*
X195186817Y-94243113D01*
X195084000Y-94435471D01*
X194981183Y-94243113D01*
X194806608Y-94030392D01*
X194593887Y-93855817D01*
X194351195Y-93726096D01*
X194087860Y-93646214D01*
X193814000Y-93619241D01*
X193540141Y-93646214D01*
X193276806Y-93726096D01*
X193034114Y-93855817D01*
X192821393Y-94030392D01*
X192646817Y-94243113D01*
X192544000Y-94435471D01*
X192441183Y-94243113D01*
X192266608Y-94030392D01*
X192053887Y-93855817D01*
X191811195Y-93726096D01*
X191547860Y-93646214D01*
X191274000Y-93619241D01*
X191000141Y-93646214D01*
X190736806Y-93726096D01*
X190494114Y-93855817D01*
X190281393Y-94030392D01*
X190106817Y-94243113D01*
X190004000Y-94435471D01*
X189901183Y-94243113D01*
X189726608Y-94030392D01*
X189513887Y-93855817D01*
X189271195Y-93726096D01*
X189007860Y-93646214D01*
X188734000Y-93619241D01*
X188460141Y-93646214D01*
X188196806Y-93726096D01*
X187954114Y-93855817D01*
X187741393Y-94030392D01*
X187566817Y-94243113D01*
X187437096Y-94485805D01*
X187357214Y-94749140D01*
X187337000Y-94954375D01*
X90660000Y-94954375D01*
X90660000Y-66933148D01*
X95926457Y-66933148D01*
X96202627Y-67351118D01*
X96747557Y-67641649D01*
X97338696Y-67820287D01*
X97953328Y-67880168D01*
X98567831Y-67818990D01*
X99158592Y-67639103D01*
X99697373Y-67351118D01*
X99973543Y-66933148D01*
X97950000Y-64909605D01*
X95926457Y-66933148D01*
X90660000Y-66933148D01*
X90660000Y-64733328D01*
X94799832Y-64733328D01*
X94861010Y-65347831D01*
X95040897Y-65938592D01*
X95328882Y-66477373D01*
X95746852Y-66753543D01*
X97770395Y-64730000D01*
X98129605Y-64730000D01*
X100153148Y-66753543D01*
X100571118Y-66477373D01*
X100825630Y-66000000D01*
X109336807Y-66000000D01*
X109340000Y-66032419D01*
X109340001Y-93967571D01*
X109336807Y-94000000D01*
X109349550Y-94129383D01*
X109387290Y-94253793D01*
X109448575Y-94368450D01*
X109531052Y-94468948D01*
X109631550Y-94551425D01*
X109746207Y-94612710D01*
X109870617Y-94650450D01*
X109967581Y-94660000D01*
X110000000Y-94663193D01*
X110032419Y-94660000D01*
X167967581Y-94660000D01*
X168000000Y-94663193D01*
X168032419Y-94660000D01*
X168129383Y-94650450D01*
X168253793Y-94612710D01*
X168368450Y-94551425D01*
X168468948Y-94468948D01*
X168551425Y-94368450D01*
X168612710Y-94253793D01*
X168650450Y-94129383D01*
X168663193Y-94000000D01*
X168660000Y-93967581D01*
X168660000Y-89687061D01*
X197847000Y-89687061D01*
X197847000Y-89890939D01*
X197886774Y-90090898D01*
X197964795Y-90279256D01*
X198078063Y-90448774D01*
X198222226Y-90592937D01*
X198391744Y-90706205D01*
X198580102Y-90784226D01*
X198780061Y-90824000D01*
X198983939Y-90824000D01*
X199183898Y-90784226D01*
X199372256Y-90706205D01*
X199541774Y-90592937D01*
X199685937Y-90448774D01*
X199799205Y-90279256D01*
X199877226Y-90090898D01*
X199917000Y-89890939D01*
X199917000Y-89687061D01*
X200387000Y-89687061D01*
X200387000Y-89890939D01*
X200426774Y-90090898D01*
X200504795Y-90279256D01*
X200618063Y-90448774D01*
X200762226Y-90592937D01*
X200931744Y-90706205D01*
X201120102Y-90784226D01*
X201320061Y-90824000D01*
X201523939Y-90824000D01*
X201723898Y-90784226D01*
X201912256Y-90706205D01*
X202081774Y-90592937D01*
X202225937Y-90448774D01*
X202339205Y-90279256D01*
X202417226Y-90090898D01*
X202457000Y-89890939D01*
X202457000Y-89687061D01*
X202417226Y-89487102D01*
X202339205Y-89298744D01*
X202225937Y-89129226D01*
X202081774Y-88985063D01*
X201912256Y-88871795D01*
X201723898Y-88793774D01*
X201523939Y-88754000D01*
X201320061Y-88754000D01*
X201120102Y-88793774D01*
X200931744Y-88871795D01*
X200762226Y-88985063D01*
X200618063Y-89129226D01*
X200504795Y-89298744D01*
X200426774Y-89487102D01*
X200387000Y-89687061D01*
X199917000Y-89687061D01*
X199877226Y-89487102D01*
X199799205Y-89298744D01*
X199685937Y-89129226D01*
X199541774Y-88985063D01*
X199372256Y-88871795D01*
X199183898Y-88793774D01*
X198983939Y-88754000D01*
X198780061Y-88754000D01*
X198580102Y-88793774D01*
X198391744Y-88871795D01*
X198222226Y-88985063D01*
X198078063Y-89129226D01*
X197964795Y-89298744D01*
X197886774Y-89487102D01*
X197847000Y-89687061D01*
X168660000Y-89687061D01*
X168660000Y-85369061D01*
X210547000Y-85369061D01*
X210547000Y-85572939D01*
X210586774Y-85772898D01*
X210664795Y-85961256D01*
X210778063Y-86130774D01*
X210922226Y-86274937D01*
X211091744Y-86388205D01*
X211280102Y-86466226D01*
X211480061Y-86506000D01*
X211683939Y-86506000D01*
X211883898Y-86466226D01*
X212072256Y-86388205D01*
X212241774Y-86274937D01*
X212385937Y-86130774D01*
X212499205Y-85961256D01*
X212577226Y-85772898D01*
X212617000Y-85572939D01*
X212617000Y-85369061D01*
X212577226Y-85169102D01*
X212499205Y-84980744D01*
X212385937Y-84811226D01*
X212241774Y-84667063D01*
X212072256Y-84553795D01*
X211883898Y-84475774D01*
X211683939Y-84436000D01*
X211480061Y-84436000D01*
X211280102Y-84475774D01*
X211091744Y-84553795D01*
X210922226Y-84667063D01*
X210778063Y-84811226D01*
X210664795Y-84980744D01*
X210586774Y-85169102D01*
X210547000Y-85369061D01*
X168660000Y-85369061D01*
X168660000Y-82829065D01*
X196576996Y-82829065D01*
X196576996Y-83032943D01*
X196616770Y-83232902D01*
X196694791Y-83421260D01*
X196808059Y-83590778D01*
X196952222Y-83734941D01*
X197121740Y-83848209D01*
X197310098Y-83926230D01*
X197510057Y-83966004D01*
X197713935Y-83966004D01*
X197913894Y-83926230D01*
X198102252Y-83848209D01*
X198271770Y-83734941D01*
X198415933Y-83590778D01*
X198529201Y-83421260D01*
X198607222Y-83232902D01*
X198646996Y-83032943D01*
X198646996Y-82829065D01*
X198646996Y-82829061D01*
X199117000Y-82829061D01*
X199117000Y-83032939D01*
X199156774Y-83232898D01*
X199234795Y-83421256D01*
X199348063Y-83590774D01*
X199492226Y-83734937D01*
X199661744Y-83848205D01*
X199850102Y-83926226D01*
X200050061Y-83966000D01*
X200253939Y-83966000D01*
X200453898Y-83926226D01*
X200642256Y-83848205D01*
X200811774Y-83734937D01*
X200955937Y-83590774D01*
X201069205Y-83421256D01*
X201147226Y-83232898D01*
X201187000Y-83032939D01*
X201187000Y-82829061D01*
X201147226Y-82629102D01*
X201069205Y-82440744D01*
X200955937Y-82271226D01*
X200811774Y-82127063D01*
X200642256Y-82013795D01*
X200453898Y-81935774D01*
X200253939Y-81896000D01*
X200050061Y-81896000D01*
X199850102Y-81935774D01*
X199661744Y-82013795D01*
X199492226Y-82127063D01*
X199348063Y-82271226D01*
X199234795Y-82440744D01*
X199156774Y-82629102D01*
X199117000Y-82829061D01*
X198646996Y-82829061D01*
X198607222Y-82629106D01*
X198529201Y-82440748D01*
X198415933Y-82271230D01*
X198271770Y-82127067D01*
X198102252Y-82013799D01*
X197913894Y-81935778D01*
X197713935Y-81896004D01*
X197510057Y-81896004D01*
X197310098Y-81935778D01*
X197121740Y-82013799D01*
X196952222Y-82127067D01*
X196808059Y-82271230D01*
X196694791Y-82440748D01*
X196616770Y-82629106D01*
X196576996Y-82829065D01*
X168660000Y-82829065D01*
X168660000Y-79714375D01*
X187337000Y-79714375D01*
X187337000Y-80327624D01*
X187357214Y-80532859D01*
X187437096Y-80796194D01*
X187566817Y-81038886D01*
X187741392Y-81251607D01*
X187954113Y-81426183D01*
X188196805Y-81555904D01*
X188460140Y-81635786D01*
X188734000Y-81662759D01*
X189007859Y-81635786D01*
X189271194Y-81555904D01*
X189513886Y-81426183D01*
X189726607Y-81251608D01*
X189901183Y-81038887D01*
X190002198Y-80849901D01*
X190020574Y-80896917D01*
X190169110Y-81129191D01*
X190360106Y-81328024D01*
X190586222Y-81485775D01*
X190838769Y-81596382D01*
X190930930Y-81613220D01*
X191147000Y-81490720D01*
X191147000Y-80148000D01*
X191127000Y-80148000D01*
X191127000Y-79894000D01*
X191147000Y-79894000D01*
X191147000Y-78551280D01*
X191401000Y-78551280D01*
X191401000Y-79894000D01*
X191421000Y-79894000D01*
X191421000Y-80148000D01*
X191401000Y-80148000D01*
X191401000Y-81490720D01*
X191617070Y-81613220D01*
X191709231Y-81596382D01*
X191961778Y-81485775D01*
X192187894Y-81328024D01*
X192378890Y-81129191D01*
X192527426Y-80896917D01*
X192545803Y-80849900D01*
X192646817Y-81038886D01*
X192821392Y-81251607D01*
X193034113Y-81426183D01*
X193276805Y-81555904D01*
X193540140Y-81635786D01*
X193814000Y-81662759D01*
X194087859Y-81635786D01*
X194351194Y-81555904D01*
X194593886Y-81426183D01*
X194806607Y-81251608D01*
X194981183Y-81038887D01*
X195084000Y-80846529D01*
X195186817Y-81038886D01*
X195361392Y-81251607D01*
X195574113Y-81426183D01*
X195816805Y-81555904D01*
X196080140Y-81635786D01*
X196354000Y-81662759D01*
X196627859Y-81635786D01*
X196891194Y-81555904D01*
X197133886Y-81426183D01*
X197346607Y-81251608D01*
X197521183Y-81038887D01*
X197624000Y-80846529D01*
X197726817Y-81038886D01*
X197901392Y-81251607D01*
X198114113Y-81426183D01*
X198356805Y-81555904D01*
X198620140Y-81635786D01*
X198894000Y-81662759D01*
X199167859Y-81635786D01*
X199431194Y-81555904D01*
X199673886Y-81426183D01*
X199886607Y-81251608D01*
X200061183Y-81038887D01*
X200164000Y-80846529D01*
X200266817Y-81038886D01*
X200441392Y-81251607D01*
X200654113Y-81426183D01*
X200896805Y-81555904D01*
X201160140Y-81635786D01*
X201434000Y-81662759D01*
X201707859Y-81635786D01*
X201971194Y-81555904D01*
X202213886Y-81426183D01*
X202426607Y-81251608D01*
X202601183Y-81038887D01*
X202704000Y-80846529D01*
X202806817Y-81038886D01*
X202981392Y-81251607D01*
X203194113Y-81426183D01*
X203436805Y-81555904D01*
X203700140Y-81635786D01*
X203974000Y-81662759D01*
X204247859Y-81635786D01*
X204511194Y-81555904D01*
X204753886Y-81426183D01*
X204966607Y-81251608D01*
X205141183Y-81038887D01*
X205244000Y-80846529D01*
X205346817Y-81038886D01*
X205521392Y-81251607D01*
X205734113Y-81426183D01*
X205976805Y-81555904D01*
X206240140Y-81635786D01*
X206514000Y-81662759D01*
X206787859Y-81635786D01*
X207051194Y-81555904D01*
X207293886Y-81426183D01*
X207506607Y-81251608D01*
X207681183Y-81038887D01*
X207784000Y-80846529D01*
X207886817Y-81038886D01*
X208061392Y-81251607D01*
X208274113Y-81426183D01*
X208516805Y-81555904D01*
X208780140Y-81635786D01*
X209054000Y-81662759D01*
X209327859Y-81635786D01*
X209591194Y-81555904D01*
X209833886Y-81426183D01*
X210046607Y-81251608D01*
X210221183Y-81038887D01*
X210324000Y-80846529D01*
X210426817Y-81038886D01*
X210601392Y-81251607D01*
X210814113Y-81426183D01*
X211056805Y-81555904D01*
X211320140Y-81635786D01*
X211594000Y-81662759D01*
X211867859Y-81635786D01*
X212131194Y-81555904D01*
X212373886Y-81426183D01*
X212586607Y-81251608D01*
X212761183Y-81038887D01*
X212890904Y-80796195D01*
X212970786Y-80532860D01*
X212991000Y-80327625D01*
X212991000Y-79714376D01*
X212970786Y-79509141D01*
X212890904Y-79245806D01*
X212761183Y-79003113D01*
X212586608Y-78790392D01*
X212373887Y-78615817D01*
X212131195Y-78486096D01*
X211867860Y-78406214D01*
X211594000Y-78379241D01*
X211320141Y-78406214D01*
X211056806Y-78486096D01*
X210814114Y-78615817D01*
X210601393Y-78790392D01*
X210426817Y-79003113D01*
X210324000Y-79195471D01*
X210221183Y-79003113D01*
X210046608Y-78790392D01*
X209833887Y-78615817D01*
X209591195Y-78486096D01*
X209327860Y-78406214D01*
X209054000Y-78379241D01*
X208780141Y-78406214D01*
X208516806Y-78486096D01*
X208274114Y-78615817D01*
X208061393Y-78790392D01*
X207886817Y-79003113D01*
X207784000Y-79195471D01*
X207681183Y-79003113D01*
X207506608Y-78790392D01*
X207293887Y-78615817D01*
X207051195Y-78486096D01*
X206787860Y-78406214D01*
X206514000Y-78379241D01*
X206240141Y-78406214D01*
X205976806Y-78486096D01*
X205734114Y-78615817D01*
X205521393Y-78790392D01*
X205346817Y-79003113D01*
X205244000Y-79195471D01*
X205141183Y-79003113D01*
X204966608Y-78790392D01*
X204753887Y-78615817D01*
X204511195Y-78486096D01*
X204247860Y-78406214D01*
X203974000Y-78379241D01*
X203700141Y-78406214D01*
X203436806Y-78486096D01*
X203194114Y-78615817D01*
X202981393Y-78790392D01*
X202806817Y-79003113D01*
X202704000Y-79195471D01*
X202601183Y-79003113D01*
X202426608Y-78790392D01*
X202213887Y-78615817D01*
X201971195Y-78486096D01*
X201707860Y-78406214D01*
X201434000Y-78379241D01*
X201160141Y-78406214D01*
X200896806Y-78486096D01*
X200654114Y-78615817D01*
X200441393Y-78790392D01*
X200266817Y-79003113D01*
X200164000Y-79195471D01*
X200061183Y-79003113D01*
X199886608Y-78790392D01*
X199673887Y-78615817D01*
X199431195Y-78486096D01*
X199167860Y-78406214D01*
X198894000Y-78379241D01*
X198620141Y-78406214D01*
X198356806Y-78486096D01*
X198114114Y-78615817D01*
X197901393Y-78790392D01*
X197726817Y-79003113D01*
X197624000Y-79195471D01*
X197521183Y-79003113D01*
X197346608Y-78790392D01*
X197133887Y-78615817D01*
X196891195Y-78486096D01*
X196627860Y-78406214D01*
X196354000Y-78379241D01*
X196080141Y-78406214D01*
X195816806Y-78486096D01*
X195574114Y-78615817D01*
X195361393Y-78790392D01*
X195186817Y-79003113D01*
X195084000Y-79195471D01*
X194981183Y-79003113D01*
X194806608Y-78790392D01*
X194593887Y-78615817D01*
X194351195Y-78486096D01*
X194087860Y-78406214D01*
X193814000Y-78379241D01*
X193540141Y-78406214D01*
X193276806Y-78486096D01*
X193034114Y-78615817D01*
X192821393Y-78790392D01*
X192646817Y-79003113D01*
X192545802Y-79192099D01*
X192527426Y-79145083D01*
X192378890Y-78912809D01*
X192187894Y-78713976D01*
X191961778Y-78556225D01*
X191709231Y-78445618D01*
X191617070Y-78428780D01*
X191401000Y-78551280D01*
X191147000Y-78551280D01*
X190930930Y-78428780D01*
X190838769Y-78445618D01*
X190586222Y-78556225D01*
X190360106Y-78713976D01*
X190169110Y-78912809D01*
X190020574Y-79145083D01*
X190002197Y-79192099D01*
X189901183Y-79003113D01*
X189726608Y-78790392D01*
X189513887Y-78615817D01*
X189271195Y-78486096D01*
X189007860Y-78406214D01*
X188734000Y-78379241D01*
X188460141Y-78406214D01*
X188196806Y-78486096D01*
X187954114Y-78615817D01*
X187741393Y-78790392D01*
X187566817Y-79003113D01*
X187437096Y-79245805D01*
X187357214Y-79509140D01*
X187337000Y-79714375D01*
X168660000Y-79714375D01*
X168660000Y-75032419D01*
X168663193Y-75000000D01*
X168650450Y-74870617D01*
X168637541Y-74828061D01*
X199116996Y-74828061D01*
X199116996Y-75031939D01*
X199156770Y-75231898D01*
X199234791Y-75420256D01*
X199348059Y-75589774D01*
X199492222Y-75733937D01*
X199661740Y-75847205D01*
X199850098Y-75925226D01*
X200050057Y-75965000D01*
X200253935Y-75965000D01*
X200453894Y-75925226D01*
X200642252Y-75847205D01*
X200811770Y-75733937D01*
X200955933Y-75589774D01*
X201069201Y-75420256D01*
X201147222Y-75231898D01*
X201186996Y-75031939D01*
X201186996Y-74828061D01*
X201147222Y-74628102D01*
X201069201Y-74439744D01*
X200955933Y-74270226D01*
X200811770Y-74126063D01*
X200642252Y-74012795D01*
X200453894Y-73934774D01*
X200253935Y-73895000D01*
X200050057Y-73895000D01*
X199850098Y-73934774D01*
X199661740Y-74012795D01*
X199492222Y-74126063D01*
X199348059Y-74270226D01*
X199234791Y-74439744D01*
X199156770Y-74628102D01*
X199116996Y-74828061D01*
X168637541Y-74828061D01*
X168612710Y-74746207D01*
X168551425Y-74631550D01*
X168468948Y-74531052D01*
X168368450Y-74448575D01*
X168253793Y-74387290D01*
X168129383Y-74349550D01*
X168032419Y-74340000D01*
X168000000Y-74336807D01*
X167967581Y-74340000D01*
X141273381Y-74340000D01*
X138660000Y-71726620D01*
X138660000Y-71018061D01*
X196577000Y-71018061D01*
X196577000Y-71221939D01*
X196616774Y-71421898D01*
X196694795Y-71610256D01*
X196808063Y-71779774D01*
X196952226Y-71923937D01*
X197121744Y-72037205D01*
X197310102Y-72115226D01*
X197510061Y-72155000D01*
X197713939Y-72155000D01*
X197913898Y-72115226D01*
X198102256Y-72037205D01*
X198271774Y-71923937D01*
X198415937Y-71779774D01*
X198529205Y-71610256D01*
X198607226Y-71421898D01*
X198647000Y-71221939D01*
X198647000Y-71018061D01*
X198607226Y-70818102D01*
X198529205Y-70629744D01*
X198415937Y-70460226D01*
X198271774Y-70316063D01*
X198102256Y-70202795D01*
X197913898Y-70124774D01*
X197713939Y-70085000D01*
X197510061Y-70085000D01*
X197310102Y-70124774D01*
X197121744Y-70202795D01*
X196952226Y-70316063D01*
X196808063Y-70460226D01*
X196694795Y-70629744D01*
X196616774Y-70818102D01*
X196577000Y-71018061D01*
X138660000Y-71018061D01*
X138660000Y-68097061D01*
X180956000Y-68097061D01*
X180956000Y-68300939D01*
X180995774Y-68500898D01*
X181073795Y-68689256D01*
X181187063Y-68858774D01*
X181331226Y-69002937D01*
X181500744Y-69116205D01*
X181689102Y-69194226D01*
X181889061Y-69234000D01*
X182092939Y-69234000D01*
X182292898Y-69194226D01*
X182481256Y-69116205D01*
X182650774Y-69002937D01*
X182794937Y-68858774D01*
X182908205Y-68689256D01*
X182986226Y-68500898D01*
X183026000Y-68300939D01*
X183026000Y-68097061D01*
X182986226Y-67897102D01*
X182908205Y-67708744D01*
X182794937Y-67539226D01*
X182650774Y-67395063D01*
X182481256Y-67281795D01*
X182292898Y-67203774D01*
X182092939Y-67164000D01*
X181889061Y-67164000D01*
X181689102Y-67203774D01*
X181500744Y-67281795D01*
X181331226Y-67395063D01*
X181187063Y-67539226D01*
X181073795Y-67708744D01*
X180995774Y-67897102D01*
X180956000Y-68097061D01*
X138660000Y-68097061D01*
X138660000Y-66700061D01*
X176257000Y-66700061D01*
X176257000Y-66903939D01*
X176296774Y-67103898D01*
X176374795Y-67292256D01*
X176488063Y-67461774D01*
X176632226Y-67605937D01*
X176801744Y-67719205D01*
X176990102Y-67797226D01*
X177190061Y-67837000D01*
X177393939Y-67837000D01*
X177593898Y-67797226D01*
X177782256Y-67719205D01*
X177951774Y-67605937D01*
X178095937Y-67461774D01*
X178209205Y-67292256D01*
X178287226Y-67103898D01*
X178321190Y-66933148D01*
X190026457Y-66933148D01*
X190302627Y-67351118D01*
X190847557Y-67641649D01*
X191438696Y-67820287D01*
X192053328Y-67880168D01*
X192667831Y-67818990D01*
X193258592Y-67639103D01*
X193797373Y-67351118D01*
X194073543Y-66933148D01*
X192050000Y-64909605D01*
X190026457Y-66933148D01*
X178321190Y-66933148D01*
X178327000Y-66903939D01*
X178327000Y-66700061D01*
X178287226Y-66500102D01*
X178209205Y-66311744D01*
X178095937Y-66142226D01*
X177951774Y-65998063D01*
X177782256Y-65884795D01*
X177593898Y-65806774D01*
X177393939Y-65767000D01*
X177190061Y-65767000D01*
X176990102Y-65806774D01*
X176801744Y-65884795D01*
X176632226Y-65998063D01*
X176488063Y-66142226D01*
X176374795Y-66311744D01*
X176296774Y-66500102D01*
X176257000Y-66700061D01*
X138660000Y-66700061D01*
X138660000Y-66032419D01*
X138663193Y-66000000D01*
X138650450Y-65870617D01*
X138612710Y-65746207D01*
X138551425Y-65631550D01*
X138468948Y-65531052D01*
X138368450Y-65448575D01*
X138253793Y-65387290D01*
X138129383Y-65349550D01*
X138000000Y-65336807D01*
X137967581Y-65340000D01*
X110032419Y-65340000D01*
X110000000Y-65336807D01*
X109870617Y-65349550D01*
X109746207Y-65387290D01*
X109631550Y-65448575D01*
X109531052Y-65531052D01*
X109448575Y-65631550D01*
X109387290Y-65746207D01*
X109349550Y-65870617D01*
X109336807Y-66000000D01*
X100825630Y-66000000D01*
X100861649Y-65932443D01*
X101040287Y-65341304D01*
X101099519Y-64733328D01*
X188899832Y-64733328D01*
X188961010Y-65347831D01*
X189140897Y-65938592D01*
X189428882Y-66477373D01*
X189846852Y-66753543D01*
X191870395Y-64730000D01*
X192229605Y-64730000D01*
X194253148Y-66753543D01*
X194671118Y-66477373D01*
X194961649Y-65932443D01*
X195140287Y-65341304D01*
X195200168Y-64726672D01*
X195138990Y-64112169D01*
X194959103Y-63521408D01*
X194671118Y-62982627D01*
X194253148Y-62706457D01*
X192229605Y-64730000D01*
X191870395Y-64730000D01*
X189846852Y-62706457D01*
X189428882Y-62982627D01*
X189138351Y-63527557D01*
X188959713Y-64118696D01*
X188899832Y-64733328D01*
X101099519Y-64733328D01*
X101100168Y-64726672D01*
X101038990Y-64112169D01*
X100859103Y-63521408D01*
X100571118Y-62982627D01*
X100153148Y-62706457D01*
X98129605Y-64730000D01*
X97770395Y-64730000D01*
X95746852Y-62706457D01*
X95328882Y-62982627D01*
X95038351Y-63527557D01*
X94859713Y-64118696D01*
X94799832Y-64733328D01*
X90660000Y-64733328D01*
X90660000Y-62526852D01*
X95926457Y-62526852D01*
X97950000Y-64550395D01*
X99973543Y-62526852D01*
X190026457Y-62526852D01*
X192050000Y-64550395D01*
X194073543Y-62526852D01*
X193797373Y-62108882D01*
X193252443Y-61818351D01*
X192661304Y-61639713D01*
X192046672Y-61579832D01*
X191432169Y-61641010D01*
X190841408Y-61820897D01*
X190302627Y-62108882D01*
X190026457Y-62526852D01*
X99973543Y-62526852D01*
X99697373Y-62108882D01*
X99152443Y-61818351D01*
X98561304Y-61639713D01*
X97946672Y-61579832D01*
X97332169Y-61641010D01*
X96741408Y-61820897D01*
X96202627Y-62108882D01*
X95926457Y-62526852D01*
X90660000Y-62526852D01*
X90660000Y-60315413D01*
X203494192Y-60315413D01*
X203589956Y-60579814D01*
X203879571Y-60720704D01*
X204191108Y-60802384D01*
X204512595Y-60821718D01*
X204831675Y-60777961D01*
X205136088Y-60672795D01*
X205310044Y-60579814D01*
X205405808Y-60315413D01*
X204450000Y-59359605D01*
X203494192Y-60315413D01*
X90660000Y-60315413D01*
X90660000Y-59242595D01*
X202808282Y-59242595D01*
X202852039Y-59561675D01*
X202957205Y-59866088D01*
X203050186Y-60040044D01*
X203314587Y-60135808D01*
X204270395Y-59180000D01*
X204629605Y-59180000D01*
X205585413Y-60135808D01*
X205849814Y-60040044D01*
X205990704Y-59750429D01*
X206072384Y-59438892D01*
X206091718Y-59117405D01*
X206047961Y-58798325D01*
X205942795Y-58493912D01*
X205849814Y-58319956D01*
X205585413Y-58224192D01*
X204629605Y-59180000D01*
X204270395Y-59180000D01*
X203314587Y-58224192D01*
X203050186Y-58319956D01*
X202909296Y-58609571D01*
X202827616Y-58921108D01*
X202808282Y-59242595D01*
X90660000Y-59242595D01*
X90660000Y-57521589D01*
X142379000Y-57521589D01*
X142379000Y-57794411D01*
X142432225Y-58061989D01*
X142536629Y-58314043D01*
X142688201Y-58540886D01*
X142881114Y-58733799D01*
X143107957Y-58885371D01*
X143360011Y-58989775D01*
X143627589Y-59043000D01*
X143900411Y-59043000D01*
X144167989Y-58989775D01*
X144420043Y-58885371D01*
X144646886Y-58733799D01*
X144839799Y-58540886D01*
X144991371Y-58314043D01*
X145034000Y-58211127D01*
X145076629Y-58314043D01*
X145228201Y-58540886D01*
X145421114Y-58733799D01*
X145647957Y-58885371D01*
X145900011Y-58989775D01*
X146167589Y-59043000D01*
X146440411Y-59043000D01*
X146707989Y-58989775D01*
X146960043Y-58885371D01*
X147186886Y-58733799D01*
X147379799Y-58540886D01*
X147531371Y-58314043D01*
X147574000Y-58211127D01*
X147616629Y-58314043D01*
X147768201Y-58540886D01*
X147961114Y-58733799D01*
X148187957Y-58885371D01*
X148440011Y-58989775D01*
X148707589Y-59043000D01*
X148980411Y-59043000D01*
X149247989Y-58989775D01*
X149500043Y-58885371D01*
X149726886Y-58733799D01*
X149919799Y-58540886D01*
X150071371Y-58314043D01*
X150114000Y-58211127D01*
X150156629Y-58314043D01*
X150308201Y-58540886D01*
X150501114Y-58733799D01*
X150727957Y-58885371D01*
X150980011Y-58989775D01*
X151247589Y-59043000D01*
X151520411Y-59043000D01*
X151787989Y-58989775D01*
X152040043Y-58885371D01*
X152266886Y-58733799D01*
X152459799Y-58540886D01*
X152611371Y-58314043D01*
X152715775Y-58061989D01*
X152769000Y-57794411D01*
X152769000Y-57521589D01*
X155079000Y-57521589D01*
X155079000Y-57794411D01*
X155132225Y-58061989D01*
X155236629Y-58314043D01*
X155388201Y-58540886D01*
X155581114Y-58733799D01*
X155807957Y-58885371D01*
X156060011Y-58989775D01*
X156327589Y-59043000D01*
X156600411Y-59043000D01*
X156867989Y-58989775D01*
X157120043Y-58885371D01*
X157346886Y-58733799D01*
X157539799Y-58540886D01*
X157691371Y-58314043D01*
X157795775Y-58061989D01*
X157849000Y-57794411D01*
X157849000Y-57521589D01*
X157795775Y-57254011D01*
X157691371Y-57001957D01*
X157539799Y-56775114D01*
X157346886Y-56582201D01*
X157192386Y-56478967D01*
X200275000Y-56478967D01*
X200275000Y-56801033D01*
X200337832Y-57116912D01*
X200461082Y-57414463D01*
X200640013Y-57682252D01*
X200867748Y-57909987D01*
X201135537Y-58088918D01*
X201433088Y-58212168D01*
X201748967Y-58275000D01*
X202071033Y-58275000D01*
X202386912Y-58212168D01*
X202684463Y-58088918D01*
X202750808Y-58044587D01*
X203494192Y-58044587D01*
X204450000Y-59000395D01*
X205405808Y-58044587D01*
X205310044Y-57780186D01*
X205300233Y-57775413D01*
X206034192Y-57775413D01*
X206129956Y-58039814D01*
X206419571Y-58180704D01*
X206731108Y-58262384D01*
X207052595Y-58281718D01*
X207371675Y-58237961D01*
X207676088Y-58132795D01*
X207850044Y-58039814D01*
X207945808Y-57775413D01*
X206990000Y-56819605D01*
X206034192Y-57775413D01*
X205300233Y-57775413D01*
X205020429Y-57639296D01*
X204708892Y-57557616D01*
X204387405Y-57538282D01*
X204068325Y-57582039D01*
X203763912Y-57687205D01*
X203589956Y-57780186D01*
X203494192Y-58044587D01*
X202750808Y-58044587D01*
X202952252Y-57909987D01*
X203179987Y-57682252D01*
X203358918Y-57414463D01*
X203482168Y-57116912D01*
X203545000Y-56801033D01*
X203545000Y-56702595D01*
X205348282Y-56702595D01*
X205392039Y-57021675D01*
X205497205Y-57326088D01*
X205590186Y-57500044D01*
X205854587Y-57595808D01*
X206810395Y-56640000D01*
X207169605Y-56640000D01*
X208125413Y-57595808D01*
X208389814Y-57500044D01*
X208530704Y-57210429D01*
X208612384Y-56898892D01*
X208631718Y-56577405D01*
X208587961Y-56258325D01*
X208482795Y-55953912D01*
X208389814Y-55779956D01*
X208125413Y-55684192D01*
X207169605Y-56640000D01*
X206810395Y-56640000D01*
X205854587Y-55684192D01*
X205590186Y-55779956D01*
X205449296Y-56069571D01*
X205367616Y-56381108D01*
X205348282Y-56702595D01*
X203545000Y-56702595D01*
X203545000Y-56478967D01*
X203482168Y-56163088D01*
X203358918Y-55865537D01*
X203179987Y-55597748D01*
X202952252Y-55370013D01*
X202684463Y-55191082D01*
X202386912Y-55067832D01*
X202071033Y-55005000D01*
X201748967Y-55005000D01*
X201433088Y-55067832D01*
X201135537Y-55191082D01*
X200867748Y-55370013D01*
X200640013Y-55597748D01*
X200461082Y-55865537D01*
X200337832Y-56163088D01*
X200275000Y-56478967D01*
X157192386Y-56478967D01*
X157120043Y-56430629D01*
X156867989Y-56326225D01*
X156600411Y-56273000D01*
X156327589Y-56273000D01*
X156060011Y-56326225D01*
X155807957Y-56430629D01*
X155581114Y-56582201D01*
X155388201Y-56775114D01*
X155236629Y-57001957D01*
X155132225Y-57254011D01*
X155079000Y-57521589D01*
X152769000Y-57521589D01*
X152715775Y-57254011D01*
X152611371Y-57001957D01*
X152459799Y-56775114D01*
X152266886Y-56582201D01*
X152040043Y-56430629D01*
X151787989Y-56326225D01*
X151520411Y-56273000D01*
X151247589Y-56273000D01*
X150980011Y-56326225D01*
X150727957Y-56430629D01*
X150501114Y-56582201D01*
X150308201Y-56775114D01*
X150156629Y-57001957D01*
X150114000Y-57104873D01*
X150071371Y-57001957D01*
X149919799Y-56775114D01*
X149726886Y-56582201D01*
X149500043Y-56430629D01*
X149247989Y-56326225D01*
X148980411Y-56273000D01*
X148707589Y-56273000D01*
X148440011Y-56326225D01*
X148187957Y-56430629D01*
X147961114Y-56582201D01*
X147768201Y-56775114D01*
X147616629Y-57001957D01*
X147574000Y-57104873D01*
X147531371Y-57001957D01*
X147379799Y-56775114D01*
X147186886Y-56582201D01*
X146960043Y-56430629D01*
X146707989Y-56326225D01*
X146440411Y-56273000D01*
X146167589Y-56273000D01*
X145900011Y-56326225D01*
X145647957Y-56430629D01*
X145421114Y-56582201D01*
X145228201Y-56775114D01*
X145076629Y-57001957D01*
X145034000Y-57104873D01*
X144991371Y-57001957D01*
X144839799Y-56775114D01*
X144646886Y-56582201D01*
X144420043Y-56430629D01*
X144167989Y-56326225D01*
X143900411Y-56273000D01*
X143627589Y-56273000D01*
X143360011Y-56326225D01*
X143107957Y-56430629D01*
X142881114Y-56582201D01*
X142688201Y-56775114D01*
X142536629Y-57001957D01*
X142432225Y-57254011D01*
X142379000Y-57521589D01*
X90660000Y-57521589D01*
X90660000Y-55029392D01*
X90683148Y-54770023D01*
X92665000Y-54770023D01*
X92665000Y-55229977D01*
X92754733Y-55681094D01*
X92930750Y-56106037D01*
X93186287Y-56488476D01*
X93511524Y-56813713D01*
X93893963Y-57069250D01*
X94318906Y-57245267D01*
X94770023Y-57335000D01*
X95229977Y-57335000D01*
X95681094Y-57245267D01*
X96106037Y-57069250D01*
X96488476Y-56813713D01*
X96813713Y-56488476D01*
X97069250Y-56106037D01*
X97245267Y-55681094D01*
X97335000Y-55229977D01*
X97335000Y-54770023D01*
X97245267Y-54318906D01*
X97069250Y-53893963D01*
X96973058Y-53750000D01*
X127731928Y-53750000D01*
X127731928Y-56250000D01*
X127744188Y-56374482D01*
X127780498Y-56494180D01*
X127839463Y-56604494D01*
X127918815Y-56701185D01*
X128015506Y-56780537D01*
X128125820Y-56839502D01*
X128245518Y-56875812D01*
X128370000Y-56888072D01*
X130870000Y-56888072D01*
X130994482Y-56875812D01*
X131114180Y-56839502D01*
X131224494Y-56780537D01*
X131321185Y-56701185D01*
X131400537Y-56604494D01*
X131459502Y-56494180D01*
X131495812Y-56374482D01*
X131508072Y-56250000D01*
X131508072Y-54814344D01*
X132735000Y-54814344D01*
X132735000Y-55185656D01*
X132807439Y-55549834D01*
X132949534Y-55892882D01*
X133155825Y-56201618D01*
X133418382Y-56464175D01*
X133727118Y-56670466D01*
X134070166Y-56812561D01*
X134434344Y-56885000D01*
X134805656Y-56885000D01*
X135169834Y-56812561D01*
X135512882Y-56670466D01*
X135821618Y-56464175D01*
X136084175Y-56201618D01*
X136290466Y-55892882D01*
X136432561Y-55549834D01*
X136505000Y-55185656D01*
X136505000Y-54814344D01*
X136432561Y-54450166D01*
X136290466Y-54107118D01*
X136084175Y-53798382D01*
X135821618Y-53535825D01*
X135512882Y-53329534D01*
X135169834Y-53187439D01*
X134805656Y-53115000D01*
X134434344Y-53115000D01*
X134070166Y-53187439D01*
X133727118Y-53329534D01*
X133418382Y-53535825D01*
X133155825Y-53798382D01*
X132949534Y-54107118D01*
X132807439Y-54450166D01*
X132735000Y-54814344D01*
X131508072Y-54814344D01*
X131508072Y-53750000D01*
X131495812Y-53625518D01*
X131459502Y-53505820D01*
X131400537Y-53395506D01*
X131321185Y-53298815D01*
X131224494Y-53219463D01*
X131114180Y-53160498D01*
X130994482Y-53124188D01*
X130870000Y-53111928D01*
X128370000Y-53111928D01*
X128245518Y-53124188D01*
X128125820Y-53160498D01*
X128015506Y-53219463D01*
X127918815Y-53298815D01*
X127839463Y-53395506D01*
X127780498Y-53505820D01*
X127744188Y-53625518D01*
X127731928Y-53750000D01*
X96973058Y-53750000D01*
X96813713Y-53511524D01*
X96488476Y-53186287D01*
X96106037Y-52930750D01*
X95681094Y-52754733D01*
X95229977Y-52665000D01*
X94770023Y-52665000D01*
X94318906Y-52754733D01*
X93893963Y-52930750D01*
X93511524Y-53186287D01*
X93186287Y-53511524D01*
X92930750Y-53893963D01*
X92754733Y-54318906D01*
X92665000Y-54770023D01*
X90683148Y-54770023D01*
X90731173Y-54231917D01*
X90934656Y-53488109D01*
X91266638Y-52792095D01*
X91518501Y-52441589D01*
X142379000Y-52441589D01*
X142379000Y-52714411D01*
X142432225Y-52981989D01*
X142536629Y-53234043D01*
X142688201Y-53460886D01*
X142881114Y-53653799D01*
X143107957Y-53805371D01*
X143360011Y-53909775D01*
X143627589Y-53963000D01*
X143900411Y-53963000D01*
X144167989Y-53909775D01*
X144420043Y-53805371D01*
X144646886Y-53653799D01*
X144839799Y-53460886D01*
X144991371Y-53234043D01*
X145034000Y-53131127D01*
X145076629Y-53234043D01*
X145228201Y-53460886D01*
X145421114Y-53653799D01*
X145647957Y-53805371D01*
X145900011Y-53909775D01*
X146167589Y-53963000D01*
X146440411Y-53963000D01*
X146707989Y-53909775D01*
X146960043Y-53805371D01*
X147186886Y-53653799D01*
X147379799Y-53460886D01*
X147531371Y-53234043D01*
X147574000Y-53131127D01*
X147616629Y-53234043D01*
X147768201Y-53460886D01*
X147961114Y-53653799D01*
X148187957Y-53805371D01*
X148440011Y-53909775D01*
X148707589Y-53963000D01*
X148980411Y-53963000D01*
X149247989Y-53909775D01*
X149500043Y-53805371D01*
X149726886Y-53653799D01*
X149919799Y-53460886D01*
X150071371Y-53234043D01*
X150114000Y-53131127D01*
X150156629Y-53234043D01*
X150308201Y-53460886D01*
X150501114Y-53653799D01*
X150727957Y-53805371D01*
X150980011Y-53909775D01*
X151247589Y-53963000D01*
X151520411Y-53963000D01*
X151787989Y-53909775D01*
X152040043Y-53805371D01*
X152266886Y-53653799D01*
X152459799Y-53460886D01*
X152611371Y-53234043D01*
X152715775Y-52981989D01*
X152769000Y-52714411D01*
X152769000Y-52441589D01*
X152715775Y-52174011D01*
X152676214Y-52078500D01*
X155075928Y-52078500D01*
X155075928Y-53077500D01*
X155093002Y-53250852D01*
X155143567Y-53417542D01*
X155225679Y-53571164D01*
X155336185Y-53705815D01*
X155470836Y-53816321D01*
X155624458Y-53898433D01*
X155791148Y-53948998D01*
X155964500Y-53966072D01*
X156963500Y-53966072D01*
X157136852Y-53948998D01*
X157169919Y-53938967D01*
X202815000Y-53938967D01*
X202815000Y-54261033D01*
X202877832Y-54576912D01*
X203001082Y-54874463D01*
X203180013Y-55142252D01*
X203407748Y-55369987D01*
X203675537Y-55548918D01*
X203973088Y-55672168D01*
X204288967Y-55735000D01*
X204611033Y-55735000D01*
X204926912Y-55672168D01*
X205224463Y-55548918D01*
X205290808Y-55504587D01*
X206034192Y-55504587D01*
X206990000Y-56460395D01*
X207945808Y-55504587D01*
X207850044Y-55240186D01*
X207560429Y-55099296D01*
X207248892Y-55017616D01*
X206927405Y-54998282D01*
X206608325Y-55042039D01*
X206303912Y-55147205D01*
X206129956Y-55240186D01*
X206034192Y-55504587D01*
X205290808Y-55504587D01*
X205492252Y-55369987D01*
X205719987Y-55142252D01*
X205898918Y-54874463D01*
X205942178Y-54770023D01*
X212665000Y-54770023D01*
X212665000Y-55229977D01*
X212754733Y-55681094D01*
X212930750Y-56106037D01*
X213186287Y-56488476D01*
X213511524Y-56813713D01*
X213893963Y-57069250D01*
X214318906Y-57245267D01*
X214770023Y-57335000D01*
X215229977Y-57335000D01*
X215681094Y-57245267D01*
X216106037Y-57069250D01*
X216488476Y-56813713D01*
X216813713Y-56488476D01*
X217069250Y-56106037D01*
X217245267Y-55681094D01*
X217335000Y-55229977D01*
X217335000Y-54770023D01*
X217245267Y-54318906D01*
X217069250Y-53893963D01*
X216813713Y-53511524D01*
X216488476Y-53186287D01*
X216106037Y-52930750D01*
X215681094Y-52754733D01*
X215229977Y-52665000D01*
X214770023Y-52665000D01*
X214318906Y-52754733D01*
X213893963Y-52930750D01*
X213511524Y-53186287D01*
X213186287Y-53511524D01*
X212930750Y-53893963D01*
X212754733Y-54318906D01*
X212665000Y-54770023D01*
X205942178Y-54770023D01*
X206022168Y-54576912D01*
X206085000Y-54261033D01*
X206085000Y-53938967D01*
X206022168Y-53623088D01*
X205898918Y-53325537D01*
X205719987Y-53057748D01*
X205492252Y-52830013D01*
X205224463Y-52651082D01*
X204926912Y-52527832D01*
X204611033Y-52465000D01*
X204288967Y-52465000D01*
X203973088Y-52527832D01*
X203675537Y-52651082D01*
X203407748Y-52830013D01*
X203180013Y-53057748D01*
X203001082Y-53325537D01*
X202877832Y-53623088D01*
X202815000Y-53938967D01*
X157169919Y-53938967D01*
X157303542Y-53898433D01*
X157457164Y-53816321D01*
X157591815Y-53705815D01*
X157702321Y-53571164D01*
X157784433Y-53417542D01*
X157834998Y-53250852D01*
X157852072Y-53077500D01*
X157852072Y-52078500D01*
X157834998Y-51905148D01*
X157784433Y-51738458D01*
X157702321Y-51584836D01*
X157591815Y-51450185D01*
X157457164Y-51339679D01*
X157303542Y-51257567D01*
X157136852Y-51207002D01*
X156963500Y-51189928D01*
X155964500Y-51189928D01*
X155791148Y-51207002D01*
X155624458Y-51257567D01*
X155470836Y-51339679D01*
X155336185Y-51450185D01*
X155225679Y-51584836D01*
X155143567Y-51738458D01*
X155093002Y-51905148D01*
X155075928Y-52078500D01*
X152676214Y-52078500D01*
X152611371Y-51921957D01*
X152459799Y-51695114D01*
X152266886Y-51502201D01*
X152040043Y-51350629D01*
X151787989Y-51246225D01*
X151520411Y-51193000D01*
X151247589Y-51193000D01*
X150980011Y-51246225D01*
X150727957Y-51350629D01*
X150501114Y-51502201D01*
X150308201Y-51695114D01*
X150156629Y-51921957D01*
X150114000Y-52024873D01*
X150071371Y-51921957D01*
X149919799Y-51695114D01*
X149726886Y-51502201D01*
X149500043Y-51350629D01*
X149247989Y-51246225D01*
X148980411Y-51193000D01*
X148707589Y-51193000D01*
X148440011Y-51246225D01*
X148187957Y-51350629D01*
X147961114Y-51502201D01*
X147768201Y-51695114D01*
X147616629Y-51921957D01*
X147574000Y-52024873D01*
X147531371Y-51921957D01*
X147379799Y-51695114D01*
X147186886Y-51502201D01*
X146960043Y-51350629D01*
X146707989Y-51246225D01*
X146440411Y-51193000D01*
X146167589Y-51193000D01*
X145900011Y-51246225D01*
X145647957Y-51350629D01*
X145421114Y-51502201D01*
X145228201Y-51695114D01*
X145076629Y-51921957D01*
X145034000Y-52024873D01*
X144991371Y-51921957D01*
X144839799Y-51695114D01*
X144646886Y-51502201D01*
X144420043Y-51350629D01*
X144167989Y-51246225D01*
X143900411Y-51193000D01*
X143627589Y-51193000D01*
X143360011Y-51246225D01*
X143107957Y-51350629D01*
X142881114Y-51502201D01*
X142688201Y-51695114D01*
X142536629Y-51921957D01*
X142432225Y-52174011D01*
X142379000Y-52441589D01*
X91518501Y-52441589D01*
X91716626Y-52165870D01*
X92270403Y-51629223D01*
X92910451Y-51199129D01*
X93616553Y-50889171D01*
X94371457Y-50707935D01*
X95024207Y-50660000D01*
X214970608Y-50660000D01*
X215768083Y-50731173D01*
G37*
G04 #@! TD.AperFunction*
M02*
