M48
; DRILL file {KiCad (5.1.10)-1} date 10/31/21 21:23:58
; FORMAT={-:-/ absolute / metric / decimal}
; #@! TF.CreationDate,2021-10-31T21:23:58-04:00
; #@! TF.GenerationSoftware,Kicad,Pcbnew,(5.1.10)-1
; #@! TF.FileFunction,Plated,1,4,PTH
FMAT,2
METRIC
T1C0.400
T2C0.699
T3C0.800
T4C0.900
T5C1.300
T6C2.000
T7C3.000
%
G90
G05
T1
X139.954Y-102.235
X139.954Y-103.505
X139.954Y-104.521
X139.954Y-105.791
X139.954Y-106.807
X143.51Y-102.235
X143.51Y-103.505
X143.51Y-104.521
X143.51Y-105.791
X143.51Y-106.807
X145.542Y-64.008
X145.542Y-65.278
X146.304Y-66.802
X158.242Y-64.008
X158.242Y-65.532
X158.75Y-67.056
X166.624Y-66.802
X169.164Y-102.997
X169.164Y-104.013
X169.164Y-105.029
X169.164Y-106.045
X172.72Y-102.997
X172.72Y-104.013
X172.72Y-105.029
X172.72Y-106.045
X175.768Y-63.754
X177.292Y-66.802
X181.991Y-68.199
X183.642Y-70.104
X186.182Y-70.866
X190.5Y-56.642
X197.612Y-82.931
X197.612Y-71.12
X198.374Y-62.738
X198.882Y-89.789
X200.152Y-74.93
X200.152Y-82.931
X201.422Y-89.789
X201.93Y-113.792
X205.994Y-113.538
X207.588Y-114.858
X211.582Y-85.471
T2
X107.696Y-99.87
X107.696Y-101.872
X107.696Y-103.868
X107.696Y-105.87
T3
X143.764Y-52.578
X143.764Y-57.658
X146.304Y-52.578
X146.304Y-57.658
X148.844Y-52.578
X148.844Y-57.658
X151.384Y-52.578
X151.384Y-57.658
X156.464Y-52.578
X156.464Y-57.658
T4
X188.734Y-80.021
X188.734Y-95.261
X191.274Y-80.021
X191.274Y-95.261
X193.814Y-80.021
X193.814Y-95.261
X196.354Y-80.021
X196.354Y-95.261
X198.894Y-80.021
X198.894Y-95.261
X201.434Y-80.021
X201.434Y-95.261
X201.91Y-56.64
X203.974Y-80.021
X203.974Y-95.261
X204.45Y-54.1
X204.45Y-59.18
X206.514Y-80.021
X206.514Y-95.261
X206.99Y-56.64
X209.054Y-80.021
X209.054Y-95.261
X211.594Y-80.021
X211.594Y-95.261
T5
X129.62Y-55.0
X134.62Y-55.0
T6
X97.95Y-64.73
X97.95Y-113.27
X192.05Y-64.73
X192.05Y-113.27
T7
X95.0Y-55.0
X112.0Y-115.0
X215.0Y-55.0
X215.0Y-115.0
T0
M30
