%FSLAX45Y45*%
G04 Gerber Fmt 4.5, Leading zero omitted, Abs format (unit mm)*
G04 Created by KiCad (PCBNEW (5.1.10)-1) date 2021-10-31 21:23:59*
%MOMM*%
%LPD*%
G01*
G04 APERTURE LIST*
%TA.AperFunction,Profile*%
%ADD10C,0.050000*%
%TD*%
%ADD11C,0.200000*%
%ADD12C,0.300000*%
G04 APERTURE END LIST*
D10*
X13800000Y-6600000D02*
X11000000Y-6600000D01*
X13800000Y-7200000D02*
X13800000Y-6600000D01*
X14100000Y-7500000D02*
X13800000Y-7200000D01*
X16800000Y-7500000D02*
X14100000Y-7500000D01*
X16800000Y-9400000D02*
X16800000Y-7500000D01*
X11000000Y-9400000D02*
X16800000Y-9400000D01*
X11000000Y-6600000D02*
X11000000Y-9400000D01*
X21500000Y-5000000D02*
G75*
G02*
X22000000Y-5500000I0J-500000D01*
G01*
X22000000Y-11500000D02*
G75*
G02*
X21500000Y-12000000I-500000J0D01*
G01*
X9500000Y-12000000D02*
G75*
G02*
X9000000Y-11500000I0J500000D01*
G01*
X9000000Y-5500000D02*
G75*
G02*
X9500000Y-5000000I500000J0D01*
G01*
X9000000Y-11500000D02*
X9000000Y-5500000D01*
X21500000Y-12000000D02*
X9500000Y-12000000D01*
X22000000Y-5500000D02*
X22000000Y-11500000D01*
X9500000Y-5000000D02*
X21500000Y-5000000D01*
D11*
D12*
X9283928Y-12468214D02*
X9283928Y-12168214D01*
X9355357Y-12168214D01*
X9398214Y-12182500D01*
X9426786Y-12211071D01*
X9441071Y-12239643D01*
X9455357Y-12296786D01*
X9455357Y-12339643D01*
X9441071Y-12396786D01*
X9426786Y-12425357D01*
X9398214Y-12453929D01*
X9355357Y-12468214D01*
X9283928Y-12468214D01*
X9583928Y-12468214D02*
X9583928Y-12268214D01*
X9583928Y-12325357D02*
X9598214Y-12296786D01*
X9612500Y-12282500D01*
X9641071Y-12268214D01*
X9669643Y-12268214D01*
X9769643Y-12468214D02*
X9769643Y-12268214D01*
X9769643Y-12168214D02*
X9755357Y-12182500D01*
X9769643Y-12196786D01*
X9783928Y-12182500D01*
X9769643Y-12168214D01*
X9769643Y-12196786D01*
X9955357Y-12468214D02*
X9926786Y-12453929D01*
X9912500Y-12425357D01*
X9912500Y-12168214D01*
X10112500Y-12468214D02*
X10083928Y-12453929D01*
X10069643Y-12425357D01*
X10069643Y-12168214D01*
X10455357Y-12468214D02*
X10455357Y-12168214D01*
X10555357Y-12382500D01*
X10655357Y-12168214D01*
X10655357Y-12468214D01*
X10926786Y-12468214D02*
X10926786Y-12311071D01*
X10912500Y-12282500D01*
X10883928Y-12268214D01*
X10826786Y-12268214D01*
X10798214Y-12282500D01*
X10926786Y-12453929D02*
X10898214Y-12468214D01*
X10826786Y-12468214D01*
X10798214Y-12453929D01*
X10783928Y-12425357D01*
X10783928Y-12396786D01*
X10798214Y-12368214D01*
X10826786Y-12353929D01*
X10898214Y-12353929D01*
X10926786Y-12339643D01*
X11069643Y-12268214D02*
X11069643Y-12568214D01*
X11069643Y-12282500D02*
X11098214Y-12268214D01*
X11155357Y-12268214D01*
X11183928Y-12282500D01*
X11198214Y-12296786D01*
X11212500Y-12325357D01*
X11212500Y-12411071D01*
X11198214Y-12439643D01*
X11183928Y-12453929D01*
X11155357Y-12468214D01*
X11098214Y-12468214D01*
X11069643Y-12453929D01*
X11341071Y-12439643D02*
X11355357Y-12453929D01*
X11341071Y-12468214D01*
X11326786Y-12453929D01*
X11341071Y-12439643D01*
X11341071Y-12468214D01*
X11341071Y-12282500D02*
X11355357Y-12296786D01*
X11341071Y-12311071D01*
X11326786Y-12296786D01*
X11341071Y-12282500D01*
X11341071Y-12311071D01*
M02*
