G04 #@! TF.GenerationSoftware,KiCad,Pcbnew,(5.1.10)-1*
G04 #@! TF.CreationDate,2021-10-31T21:23:51-04:00*
G04 #@! TF.ProjectId,Hardware-YurtThermostat,48617264-7761-4726-952d-597572745468,rev?*
G04 #@! TF.SameCoordinates,Original*
G04 #@! TF.FileFunction,Copper,L1,Top*
G04 #@! TF.FilePolarity,Positive*
%FSLAX46Y46*%
G04 Gerber Fmt 4.6, Leading zero omitted, Abs format (unit mm)*
G04 Created by KiCad (PCBNEW (5.1.10)-1) date 2021-10-31 21:23:51*
%MOMM*%
%LPD*%
G01*
G04 APERTURE LIST*
G04 #@! TA.AperFunction,ComponentPad*
%ADD10C,5.000000*%
G04 #@! TD*
G04 #@! TA.AperFunction,SMDPad,CuDef*
%ADD11R,2.600000X3.600000*%
G04 #@! TD*
G04 #@! TA.AperFunction,SMDPad,CuDef*
%ADD12R,1.800000X2.500000*%
G04 #@! TD*
G04 #@! TA.AperFunction,ComponentPad*
%ADD13C,3.400000*%
G04 #@! TD*
G04 #@! TA.AperFunction,ConnectorPad*
%ADD14C,6.000000*%
G04 #@! TD*
G04 #@! TA.AperFunction,ComponentPad*
%ADD15C,1.597660*%
G04 #@! TD*
G04 #@! TA.AperFunction,ComponentPad*
%ADD16R,2.500000X2.500000*%
G04 #@! TD*
G04 #@! TA.AperFunction,ComponentPad*
%ADD17C,2.500000*%
G04 #@! TD*
G04 #@! TA.AperFunction,ComponentPad*
%ADD18C,1.500000*%
G04 #@! TD*
G04 #@! TA.AperFunction,SMDPad,CuDef*
%ADD19R,0.600000X1.300000*%
G04 #@! TD*
G04 #@! TA.AperFunction,ComponentPad*
%ADD20C,2.000000*%
G04 #@! TD*
G04 #@! TA.AperFunction,ComponentPad*
%ADD21O,1.524000X2.000000*%
G04 #@! TD*
G04 #@! TA.AperFunction,SMDPad,CuDef*
%ADD22C,0.100000*%
G04 #@! TD*
G04 #@! TA.AperFunction,SMDPad,CuDef*
%ADD23R,0.550000X0.250000*%
G04 #@! TD*
G04 #@! TA.AperFunction,ViaPad*
%ADD24C,0.800000*%
G04 #@! TD*
G04 #@! TA.AperFunction,Conductor*
%ADD25C,0.250000*%
G04 #@! TD*
G04 #@! TA.AperFunction,Conductor*
%ADD26C,1.000000*%
G04 #@! TD*
G04 #@! TA.AperFunction,Conductor*
%ADD27C,0.500000*%
G04 #@! TD*
G04 #@! TA.AperFunction,Conductor*
%ADD28C,0.254000*%
G04 #@! TD*
G04 #@! TA.AperFunction,Conductor*
%ADD29C,0.100000*%
G04 #@! TD*
G04 APERTURE END LIST*
D10*
X97950000Y-113270000D03*
X97950000Y-64730000D03*
X192050000Y-64730000D03*
X192050000Y-113270000D03*
D11*
X141656000Y-104521000D03*
X170956000Y-104521000D03*
G04 #@! TA.AperFunction,SMDPad,CuDef*
G36*
G01*
X197899000Y-61177500D02*
X198849000Y-61177500D01*
G75*
G02*
X199099000Y-61427500I0J-250000D01*
G01*
X199099000Y-62102500D01*
G75*
G02*
X198849000Y-62352500I-250000J0D01*
G01*
X197899000Y-62352500D01*
G75*
G02*
X197649000Y-62102500I0J250000D01*
G01*
X197649000Y-61427500D01*
G75*
G02*
X197899000Y-61177500I250000J0D01*
G01*
G37*
G04 #@! TD.AperFunction*
G04 #@! TA.AperFunction,SMDPad,CuDef*
G36*
G01*
X197899000Y-59102500D02*
X198849000Y-59102500D01*
G75*
G02*
X199099000Y-59352500I0J-250000D01*
G01*
X199099000Y-60027500D01*
G75*
G02*
X198849000Y-60277500I-250000J0D01*
G01*
X197899000Y-60277500D01*
G75*
G02*
X197649000Y-60027500I0J250000D01*
G01*
X197649000Y-59352500D01*
G75*
G02*
X197899000Y-59102500I250000J0D01*
G01*
G37*
G04 #@! TD.AperFunction*
G04 #@! TA.AperFunction,SMDPad,CuDef*
G36*
G01*
X193930000Y-56090000D02*
X193930000Y-57190000D01*
G75*
G02*
X193680000Y-57440000I-250000J0D01*
G01*
X191180000Y-57440000D01*
G75*
G02*
X190930000Y-57190000I0J250000D01*
G01*
X190930000Y-56090000D01*
G75*
G02*
X191180000Y-55840000I250000J0D01*
G01*
X193680000Y-55840000D01*
G75*
G02*
X193930000Y-56090000I0J-250000D01*
G01*
G37*
G04 #@! TD.AperFunction*
G04 #@! TA.AperFunction,SMDPad,CuDef*
G36*
G01*
X198330000Y-56090000D02*
X198330000Y-57190000D01*
G75*
G02*
X198080000Y-57440000I-250000J0D01*
G01*
X195580000Y-57440000D01*
G75*
G02*
X195330000Y-57190000I0J250000D01*
G01*
X195330000Y-56090000D01*
G75*
G02*
X195580000Y-55840000I250000J0D01*
G01*
X198080000Y-55840000D01*
G75*
G02*
X198330000Y-56090000I0J-250000D01*
G01*
G37*
G04 #@! TD.AperFunction*
G04 #@! TA.AperFunction,SMDPad,CuDef*
G36*
G01*
X185707000Y-69262500D02*
X186657000Y-69262500D01*
G75*
G02*
X186907000Y-69512500I0J-250000D01*
G01*
X186907000Y-70187500D01*
G75*
G02*
X186657000Y-70437500I-250000J0D01*
G01*
X185707000Y-70437500D01*
G75*
G02*
X185457000Y-70187500I0J250000D01*
G01*
X185457000Y-69512500D01*
G75*
G02*
X185707000Y-69262500I250000J0D01*
G01*
G37*
G04 #@! TD.AperFunction*
G04 #@! TA.AperFunction,SMDPad,CuDef*
G36*
G01*
X185707000Y-67187500D02*
X186657000Y-67187500D01*
G75*
G02*
X186907000Y-67437500I0J-250000D01*
G01*
X186907000Y-68112500D01*
G75*
G02*
X186657000Y-68362500I-250000J0D01*
G01*
X185707000Y-68362500D01*
G75*
G02*
X185457000Y-68112500I0J250000D01*
G01*
X185457000Y-67437500D01*
G75*
G02*
X185707000Y-67187500I250000J0D01*
G01*
G37*
G04 #@! TD.AperFunction*
G04 #@! TA.AperFunction,SMDPad,CuDef*
G36*
G01*
X174474000Y-66252000D02*
X174474000Y-67352000D01*
G75*
G02*
X174224000Y-67602000I-250000J0D01*
G01*
X171724000Y-67602000D01*
G75*
G02*
X171474000Y-67352000I0J250000D01*
G01*
X171474000Y-66252000D01*
G75*
G02*
X171724000Y-66002000I250000J0D01*
G01*
X174224000Y-66002000D01*
G75*
G02*
X174474000Y-66252000I0J-250000D01*
G01*
G37*
G04 #@! TD.AperFunction*
G04 #@! TA.AperFunction,SMDPad,CuDef*
G36*
G01*
X170074000Y-66252000D02*
X170074000Y-67352000D01*
G75*
G02*
X169824000Y-67602000I-250000J0D01*
G01*
X167324000Y-67602000D01*
G75*
G02*
X167074000Y-67352000I0J250000D01*
G01*
X167074000Y-66252000D01*
G75*
G02*
X167324000Y-66002000I250000J0D01*
G01*
X169824000Y-66002000D01*
G75*
G02*
X170074000Y-66252000I0J-250000D01*
G01*
G37*
G04 #@! TD.AperFunction*
G04 #@! TA.AperFunction,SMDPad,CuDef*
G36*
G01*
X176243000Y-67389500D02*
X175293000Y-67389500D01*
G75*
G02*
X175043000Y-67139500I0J250000D01*
G01*
X175043000Y-66464500D01*
G75*
G02*
X175293000Y-66214500I250000J0D01*
G01*
X176243000Y-66214500D01*
G75*
G02*
X176493000Y-66464500I0J-250000D01*
G01*
X176493000Y-67139500D01*
G75*
G02*
X176243000Y-67389500I-250000J0D01*
G01*
G37*
G04 #@! TD.AperFunction*
G04 #@! TA.AperFunction,SMDPad,CuDef*
G36*
G01*
X176243000Y-65314500D02*
X175293000Y-65314500D01*
G75*
G02*
X175043000Y-65064500I0J250000D01*
G01*
X175043000Y-64389500D01*
G75*
G02*
X175293000Y-64139500I250000J0D01*
G01*
X176243000Y-64139500D01*
G75*
G02*
X176493000Y-64389500I0J-250000D01*
G01*
X176493000Y-65064500D01*
G75*
G02*
X176243000Y-65314500I-250000J0D01*
G01*
G37*
G04 #@! TD.AperFunction*
G04 #@! TA.AperFunction,SMDPad,CuDef*
G36*
G01*
X205565500Y-113317000D02*
X205565500Y-114267000D01*
G75*
G02*
X205315500Y-114517000I-250000J0D01*
G01*
X204640500Y-114517000D01*
G75*
G02*
X204390500Y-114267000I0J250000D01*
G01*
X204390500Y-113317000D01*
G75*
G02*
X204640500Y-113067000I250000J0D01*
G01*
X205315500Y-113067000D01*
G75*
G02*
X205565500Y-113317000I0J-250000D01*
G01*
G37*
G04 #@! TD.AperFunction*
G04 #@! TA.AperFunction,SMDPad,CuDef*
G36*
G01*
X203490500Y-113317000D02*
X203490500Y-114267000D01*
G75*
G02*
X203240500Y-114517000I-250000J0D01*
G01*
X202565500Y-114517000D01*
G75*
G02*
X202315500Y-114267000I0J250000D01*
G01*
X202315500Y-113317000D01*
G75*
G02*
X202565500Y-113067000I250000J0D01*
G01*
X203240500Y-113067000D01*
G75*
G02*
X203490500Y-113317000I0J-250000D01*
G01*
G37*
G04 #@! TD.AperFunction*
D12*
X160020000Y-53086000D03*
X160020000Y-57086000D03*
X140462000Y-57150000D03*
X140462000Y-53150000D03*
D13*
X215000000Y-115000000D03*
D14*
X215000000Y-115000000D03*
X112000000Y-115000000D03*
D13*
X112000000Y-115000000D03*
X215000000Y-55000000D03*
D14*
X215000000Y-55000000D03*
X95000000Y-55000000D03*
D13*
X95000000Y-55000000D03*
D15*
X107696000Y-105869740D03*
X107696000Y-103868220D03*
X107696000Y-101871780D03*
X107696000Y-99870260D03*
D16*
X129620000Y-55000000D03*
D17*
X134620000Y-55000000D03*
D18*
X156464000Y-57658000D03*
X151384000Y-57658000D03*
X148844000Y-57658000D03*
X146304000Y-57658000D03*
X143764000Y-57658000D03*
X143764000Y-52578000D03*
X146304000Y-52578000D03*
X148844000Y-52578000D03*
X151384000Y-52578000D03*
G04 #@! TA.AperFunction,ComponentPad*
G36*
G01*
X155964500Y-51828000D02*
X156963500Y-51828000D01*
G75*
G02*
X157214000Y-52078500I0J-250500D01*
G01*
X157214000Y-53077500D01*
G75*
G02*
X156963500Y-53328000I-250500J0D01*
G01*
X155964500Y-53328000D01*
G75*
G02*
X155714000Y-53077500I0J250500D01*
G01*
X155714000Y-52078500D01*
G75*
G02*
X155964500Y-51828000I250500J0D01*
G01*
G37*
G04 #@! TD.AperFunction*
D19*
X156334000Y-62658000D03*
X157284000Y-64758000D03*
X155384000Y-64758000D03*
X142912000Y-64724000D03*
X144812000Y-64724000D03*
X143862000Y-62624000D03*
G04 #@! TA.AperFunction,SMDPad,CuDef*
G36*
G01*
X200983999Y-92237000D02*
X201884001Y-92237000D01*
G75*
G02*
X202134000Y-92486999I0J-249999D01*
G01*
X202134000Y-93187001D01*
G75*
G02*
X201884001Y-93437000I-249999J0D01*
G01*
X200983999Y-93437000D01*
G75*
G02*
X200734000Y-93187001I0J249999D01*
G01*
X200734000Y-92486999D01*
G75*
G02*
X200983999Y-92237000I249999J0D01*
G01*
G37*
G04 #@! TD.AperFunction*
G04 #@! TA.AperFunction,SMDPad,CuDef*
G36*
G01*
X200983999Y-90237000D02*
X201884001Y-90237000D01*
G75*
G02*
X202134000Y-90486999I0J-249999D01*
G01*
X202134000Y-91187001D01*
G75*
G02*
X201884001Y-91437000I-249999J0D01*
G01*
X200983999Y-91437000D01*
G75*
G02*
X200734000Y-91187001I0J249999D01*
G01*
X200734000Y-90486999D01*
G75*
G02*
X200983999Y-90237000I249999J0D01*
G01*
G37*
G04 #@! TD.AperFunction*
G04 #@! TA.AperFunction,SMDPad,CuDef*
G36*
G01*
X198443999Y-90237000D02*
X199344001Y-90237000D01*
G75*
G02*
X199594000Y-90486999I0J-249999D01*
G01*
X199594000Y-91187001D01*
G75*
G02*
X199344001Y-91437000I-249999J0D01*
G01*
X198443999Y-91437000D01*
G75*
G02*
X198194000Y-91187001I0J249999D01*
G01*
X198194000Y-90486999D01*
G75*
G02*
X198443999Y-90237000I249999J0D01*
G01*
G37*
G04 #@! TD.AperFunction*
G04 #@! TA.AperFunction,SMDPad,CuDef*
G36*
G01*
X198443999Y-92237000D02*
X199344001Y-92237000D01*
G75*
G02*
X199594000Y-92486999I0J-249999D01*
G01*
X199594000Y-93187001D01*
G75*
G02*
X199344001Y-93437000I-249999J0D01*
G01*
X198443999Y-93437000D01*
G75*
G02*
X198194000Y-93187001I0J249999D01*
G01*
X198194000Y-92486999D01*
G75*
G02*
X198443999Y-92237000I249999J0D01*
G01*
G37*
G04 #@! TD.AperFunction*
G04 #@! TA.AperFunction,SMDPad,CuDef*
G36*
G01*
X212032001Y-85055000D02*
X211131999Y-85055000D01*
G75*
G02*
X210882000Y-84805001I0J249999D01*
G01*
X210882000Y-84104999D01*
G75*
G02*
X211131999Y-83855000I249999J0D01*
G01*
X212032001Y-83855000D01*
G75*
G02*
X212282000Y-84104999I0J-249999D01*
G01*
X212282000Y-84805001D01*
G75*
G02*
X212032001Y-85055000I-249999J0D01*
G01*
G37*
G04 #@! TD.AperFunction*
G04 #@! TA.AperFunction,SMDPad,CuDef*
G36*
G01*
X212032001Y-83055000D02*
X211131999Y-83055000D01*
G75*
G02*
X210882000Y-82805001I0J249999D01*
G01*
X210882000Y-82104999D01*
G75*
G02*
X211131999Y-81855000I249999J0D01*
G01*
X212032001Y-81855000D01*
G75*
G02*
X212282000Y-82104999I0J-249999D01*
G01*
X212282000Y-82805001D01*
G75*
G02*
X212032001Y-83055000I-249999J0D01*
G01*
G37*
G04 #@! TD.AperFunction*
G04 #@! TA.AperFunction,SMDPad,CuDef*
G36*
G01*
X204378000Y-116274001D02*
X204378000Y-115373999D01*
G75*
G02*
X204627999Y-115124000I249999J0D01*
G01*
X205328001Y-115124000D01*
G75*
G02*
X205578000Y-115373999I0J-249999D01*
G01*
X205578000Y-116274001D01*
G75*
G02*
X205328001Y-116524000I-249999J0D01*
G01*
X204627999Y-116524000D01*
G75*
G02*
X204378000Y-116274001I0J249999D01*
G01*
G37*
G04 #@! TD.AperFunction*
G04 #@! TA.AperFunction,SMDPad,CuDef*
G36*
G01*
X202378000Y-116274001D02*
X202378000Y-115373999D01*
G75*
G02*
X202627999Y-115124000I249999J0D01*
G01*
X203328001Y-115124000D01*
G75*
G02*
X203578000Y-115373999I0J-249999D01*
G01*
X203578000Y-116274001D01*
G75*
G02*
X203328001Y-116524000I-249999J0D01*
G01*
X202627999Y-116524000D01*
G75*
G02*
X202378000Y-116274001I0J249999D01*
G01*
G37*
G04 #@! TD.AperFunction*
G04 #@! TA.AperFunction,SMDPad,CuDef*
G36*
G01*
X157153999Y-68408000D02*
X158054001Y-68408000D01*
G75*
G02*
X158304000Y-68657999I0J-249999D01*
G01*
X158304000Y-69358001D01*
G75*
G02*
X158054001Y-69608000I-249999J0D01*
G01*
X157153999Y-69608000D01*
G75*
G02*
X156904000Y-69358001I0J249999D01*
G01*
X156904000Y-68657999D01*
G75*
G02*
X157153999Y-68408000I249999J0D01*
G01*
G37*
G04 #@! TD.AperFunction*
G04 #@! TA.AperFunction,SMDPad,CuDef*
G36*
G01*
X157153999Y-66408000D02*
X158054001Y-66408000D01*
G75*
G02*
X158304000Y-66657999I0J-249999D01*
G01*
X158304000Y-67358001D01*
G75*
G02*
X158054001Y-67608000I-249999J0D01*
G01*
X157153999Y-67608000D01*
G75*
G02*
X156904000Y-67358001I0J249999D01*
G01*
X156904000Y-66657999D01*
G75*
G02*
X157153999Y-66408000I249999J0D01*
G01*
G37*
G04 #@! TD.AperFunction*
G04 #@! TA.AperFunction,SMDPad,CuDef*
G36*
G01*
X144681999Y-66154000D02*
X145582001Y-66154000D01*
G75*
G02*
X145832000Y-66403999I0J-249999D01*
G01*
X145832000Y-67104001D01*
G75*
G02*
X145582001Y-67354000I-249999J0D01*
G01*
X144681999Y-67354000D01*
G75*
G02*
X144432000Y-67104001I0J249999D01*
G01*
X144432000Y-66403999D01*
G75*
G02*
X144681999Y-66154000I249999J0D01*
G01*
G37*
G04 #@! TD.AperFunction*
G04 #@! TA.AperFunction,SMDPad,CuDef*
G36*
G01*
X144681999Y-68154000D02*
X145582001Y-68154000D01*
G75*
G02*
X145832000Y-68403999I0J-249999D01*
G01*
X145832000Y-69104001D01*
G75*
G02*
X145582001Y-69354000I-249999J0D01*
G01*
X144681999Y-69354000D01*
G75*
G02*
X144432000Y-69104001I0J249999D01*
G01*
X144432000Y-68403999D01*
G75*
G02*
X144681999Y-68154000I249999J0D01*
G01*
G37*
G04 #@! TD.AperFunction*
G04 #@! TA.AperFunction,SMDPad,CuDef*
G36*
G01*
X154613999Y-66408000D02*
X155514001Y-66408000D01*
G75*
G02*
X155764000Y-66657999I0J-249999D01*
G01*
X155764000Y-67358001D01*
G75*
G02*
X155514001Y-67608000I-249999J0D01*
G01*
X154613999Y-67608000D01*
G75*
G02*
X154364000Y-67358001I0J249999D01*
G01*
X154364000Y-66657999D01*
G75*
G02*
X154613999Y-66408000I249999J0D01*
G01*
G37*
G04 #@! TD.AperFunction*
G04 #@! TA.AperFunction,SMDPad,CuDef*
G36*
G01*
X154613999Y-68408000D02*
X155514001Y-68408000D01*
G75*
G02*
X155764000Y-68657999I0J-249999D01*
G01*
X155764000Y-69358001D01*
G75*
G02*
X155514001Y-69608000I-249999J0D01*
G01*
X154613999Y-69608000D01*
G75*
G02*
X154364000Y-69358001I0J249999D01*
G01*
X154364000Y-68657999D01*
G75*
G02*
X154613999Y-68408000I249999J0D01*
G01*
G37*
G04 #@! TD.AperFunction*
G04 #@! TA.AperFunction,SMDPad,CuDef*
G36*
G01*
X142141999Y-68154000D02*
X143042001Y-68154000D01*
G75*
G02*
X143292000Y-68403999I0J-249999D01*
G01*
X143292000Y-69104001D01*
G75*
G02*
X143042001Y-69354000I-249999J0D01*
G01*
X142141999Y-69354000D01*
G75*
G02*
X141892000Y-69104001I0J249999D01*
G01*
X141892000Y-68403999D01*
G75*
G02*
X142141999Y-68154000I249999J0D01*
G01*
G37*
G04 #@! TD.AperFunction*
G04 #@! TA.AperFunction,SMDPad,CuDef*
G36*
G01*
X142141999Y-66154000D02*
X143042001Y-66154000D01*
G75*
G02*
X143292000Y-66403999I0J-249999D01*
G01*
X143292000Y-67104001D01*
G75*
G02*
X143042001Y-67354000I-249999J0D01*
G01*
X142141999Y-67354000D01*
G75*
G02*
X141892000Y-67104001I0J249999D01*
G01*
X141892000Y-66403999D01*
G75*
G02*
X142141999Y-66154000I249999J0D01*
G01*
G37*
G04 #@! TD.AperFunction*
D20*
X204450000Y-54100000D03*
X206990000Y-56640000D03*
X201910000Y-56640000D03*
X204450000Y-59180000D03*
D21*
X211594000Y-80021000D03*
X209054000Y-80021000D03*
X206514000Y-80021000D03*
X203974000Y-80021000D03*
X201434000Y-80021000D03*
X198894000Y-80021000D03*
X196354000Y-80021000D03*
X193814000Y-80021000D03*
X191274000Y-80021000D03*
X188734000Y-80021000D03*
X188734000Y-95261000D03*
X191274000Y-95261000D03*
X193814000Y-95261000D03*
X196354000Y-95261000D03*
X198894000Y-95261000D03*
X201434000Y-95261000D03*
X203974000Y-95261000D03*
X206514000Y-95261000D03*
X209054000Y-95261000D03*
X211594000Y-95261000D03*
G04 #@! TA.AperFunction,SMDPad,CuDef*
G36*
G01*
X177668000Y-65713000D02*
X177668000Y-65413000D01*
G75*
G02*
X177818000Y-65263000I150000J0D01*
G01*
X179468000Y-65263000D01*
G75*
G02*
X179618000Y-65413000I0J-150000D01*
G01*
X179618000Y-65713000D01*
G75*
G02*
X179468000Y-65863000I-150000J0D01*
G01*
X177818000Y-65863000D01*
G75*
G02*
X177668000Y-65713000I0J150000D01*
G01*
G37*
G04 #@! TD.AperFunction*
G04 #@! TA.AperFunction,SMDPad,CuDef*
G36*
G01*
X177668000Y-66983000D02*
X177668000Y-66683000D01*
G75*
G02*
X177818000Y-66533000I150000J0D01*
G01*
X179468000Y-66533000D01*
G75*
G02*
X179618000Y-66683000I0J-150000D01*
G01*
X179618000Y-66983000D01*
G75*
G02*
X179468000Y-67133000I-150000J0D01*
G01*
X177818000Y-67133000D01*
G75*
G02*
X177668000Y-66983000I0J150000D01*
G01*
G37*
G04 #@! TD.AperFunction*
G04 #@! TA.AperFunction,SMDPad,CuDef*
G36*
G01*
X177668000Y-68253000D02*
X177668000Y-67953000D01*
G75*
G02*
X177818000Y-67803000I150000J0D01*
G01*
X179468000Y-67803000D01*
G75*
G02*
X179618000Y-67953000I0J-150000D01*
G01*
X179618000Y-68253000D01*
G75*
G02*
X179468000Y-68403000I-150000J0D01*
G01*
X177818000Y-68403000D01*
G75*
G02*
X177668000Y-68253000I0J150000D01*
G01*
G37*
G04 #@! TD.AperFunction*
G04 #@! TA.AperFunction,SMDPad,CuDef*
G36*
G01*
X177668000Y-69523000D02*
X177668000Y-69223000D01*
G75*
G02*
X177818000Y-69073000I150000J0D01*
G01*
X179468000Y-69073000D01*
G75*
G02*
X179618000Y-69223000I0J-150000D01*
G01*
X179618000Y-69523000D01*
G75*
G02*
X179468000Y-69673000I-150000J0D01*
G01*
X177818000Y-69673000D01*
G75*
G02*
X177668000Y-69523000I0J150000D01*
G01*
G37*
G04 #@! TD.AperFunction*
G04 #@! TA.AperFunction,SMDPad,CuDef*
G36*
G01*
X182618000Y-69523000D02*
X182618000Y-69223000D01*
G75*
G02*
X182768000Y-69073000I150000J0D01*
G01*
X184418000Y-69073000D01*
G75*
G02*
X184568000Y-69223000I0J-150000D01*
G01*
X184568000Y-69523000D01*
G75*
G02*
X184418000Y-69673000I-150000J0D01*
G01*
X182768000Y-69673000D01*
G75*
G02*
X182618000Y-69523000I0J150000D01*
G01*
G37*
G04 #@! TD.AperFunction*
G04 #@! TA.AperFunction,SMDPad,CuDef*
G36*
G01*
X182618000Y-68253000D02*
X182618000Y-67953000D01*
G75*
G02*
X182768000Y-67803000I150000J0D01*
G01*
X184418000Y-67803000D01*
G75*
G02*
X184568000Y-67953000I0J-150000D01*
G01*
X184568000Y-68253000D01*
G75*
G02*
X184418000Y-68403000I-150000J0D01*
G01*
X182768000Y-68403000D01*
G75*
G02*
X182618000Y-68253000I0J150000D01*
G01*
G37*
G04 #@! TD.AperFunction*
G04 #@! TA.AperFunction,SMDPad,CuDef*
G36*
G01*
X182618000Y-66983000D02*
X182618000Y-66683000D01*
G75*
G02*
X182768000Y-66533000I150000J0D01*
G01*
X184418000Y-66533000D01*
G75*
G02*
X184568000Y-66683000I0J-150000D01*
G01*
X184568000Y-66983000D01*
G75*
G02*
X184418000Y-67133000I-150000J0D01*
G01*
X182768000Y-67133000D01*
G75*
G02*
X182618000Y-66983000I0J150000D01*
G01*
G37*
G04 #@! TD.AperFunction*
G04 #@! TA.AperFunction,SMDPad,CuDef*
G36*
G01*
X182618000Y-65713000D02*
X182618000Y-65413000D01*
G75*
G02*
X182768000Y-65263000I150000J0D01*
G01*
X184418000Y-65263000D01*
G75*
G02*
X184568000Y-65413000I0J-150000D01*
G01*
X184568000Y-65713000D01*
G75*
G02*
X184418000Y-65863000I-150000J0D01*
G01*
X182768000Y-65863000D01*
G75*
G02*
X182618000Y-65713000I0J150000D01*
G01*
G37*
G04 #@! TD.AperFunction*
G04 #@! TA.AperFunction,SMDPad,CuDef*
D22*
G36*
X207088000Y-114008000D02*
G01*
X208088000Y-114008000D01*
X208088000Y-115408000D01*
X207788000Y-115708000D01*
X207088000Y-115708000D01*
X207088000Y-114008000D01*
G37*
G04 #@! TD.AperFunction*
D23*
X206413000Y-115608000D03*
X206413000Y-115108000D03*
X206413000Y-114608000D03*
X206413000Y-114108000D03*
X208763000Y-114108000D03*
X208763000Y-114608000D03*
X208763000Y-115108000D03*
X208763000Y-115608000D03*
D24*
X158750000Y-67056000D03*
X146304000Y-66802000D03*
X145542000Y-64008000D03*
X158242000Y-64008000D03*
X139954000Y-104521000D03*
X201930000Y-113792000D03*
X207588000Y-114858000D03*
X198374000Y-62738000D03*
X190500000Y-56642000D03*
X166624000Y-66802000D03*
X175768000Y-63754000D03*
X186182000Y-70866000D03*
X183642000Y-70104000D03*
X143510000Y-104521000D03*
X143510000Y-105791000D03*
X143510000Y-103505000D03*
X139954000Y-105791000D03*
X139954000Y-103505000D03*
X139954000Y-106807000D03*
X139954000Y-102235000D03*
X143510000Y-102235000D03*
X143510000Y-106807000D03*
X145542000Y-65278000D03*
X158242000Y-65532000D03*
X172720000Y-102997000D03*
X172720000Y-105029000D03*
X172720000Y-104013000D03*
X169164000Y-102997000D03*
X169164000Y-104013000D03*
X169164000Y-106045000D03*
X169164000Y-105029000D03*
X172720000Y-106045000D03*
X181991000Y-68199000D03*
X211582000Y-85471000D03*
X198882000Y-89789000D03*
X201422000Y-89789000D03*
X205994000Y-113538000D03*
X177292000Y-66802000D03*
X200152000Y-82931000D03*
X200151996Y-74930000D03*
X197611996Y-82931004D03*
X197612000Y-71120000D03*
D25*
X175768000Y-64727000D02*
X175768000Y-63754000D01*
X168574000Y-66802000D02*
X166624000Y-66802000D01*
X186182000Y-69850000D02*
X186182000Y-70866000D01*
X183593000Y-70055000D02*
X183642000Y-70104000D01*
X183593000Y-69373000D02*
X183593000Y-70055000D01*
X190502000Y-56640000D02*
X190500000Y-56642000D01*
X192430000Y-56640000D02*
X190502000Y-56640000D01*
X198374000Y-61765000D02*
X198374000Y-62738000D01*
X206413000Y-115108000D02*
X206413000Y-115608000D01*
X207338000Y-115108000D02*
X207588000Y-114858000D01*
X206413000Y-115108000D02*
X207338000Y-115108000D01*
X207838000Y-115108000D02*
X207588000Y-114858000D01*
X208763000Y-115108000D02*
X207838000Y-115108000D01*
X202903000Y-113792000D02*
X201930000Y-113792000D01*
D26*
X144826000Y-64724000D02*
X145542000Y-64008000D01*
X144812000Y-64724000D02*
X144826000Y-64724000D01*
X144988000Y-64724000D02*
X145542000Y-65278000D01*
X144812000Y-64724000D02*
X144988000Y-64724000D01*
X145542000Y-64008000D02*
X145542000Y-65278000D01*
X157492000Y-64758000D02*
X158242000Y-64008000D01*
X157284000Y-64758000D02*
X157492000Y-64758000D01*
X157468000Y-64758000D02*
X158242000Y-65532000D01*
X157284000Y-64758000D02*
X157468000Y-64758000D01*
X158242000Y-64008000D02*
X158242000Y-65532000D01*
D25*
X146256000Y-66754000D02*
X146304000Y-66802000D01*
X145132000Y-66754000D02*
X146256000Y-66754000D01*
X158702000Y-67008000D02*
X158750000Y-67056000D01*
X157604000Y-67008000D02*
X158702000Y-67008000D01*
X185854000Y-68103000D02*
X186182000Y-67775000D01*
X183593000Y-68103000D02*
X185854000Y-68103000D01*
X183216232Y-68103000D02*
X183593000Y-68103000D01*
X186182000Y-67775000D02*
X186182000Y-67775000D01*
X183497000Y-68199000D02*
X183593000Y-68103000D01*
X181991000Y-68199000D02*
X183497000Y-68199000D01*
X178612000Y-66802000D02*
X178643000Y-66833000D01*
X172974000Y-66802000D02*
X178612000Y-66802000D01*
X196830000Y-56640000D02*
X201910000Y-56640000D01*
X198860000Y-59690000D02*
X201910000Y-56640000D01*
X198374000Y-59690000D02*
X198860000Y-59690000D01*
X205740000Y-113792000D02*
X205994000Y-113538000D01*
X204978000Y-113792000D02*
X205740000Y-113792000D01*
X206413000Y-113957000D02*
X205994000Y-113538000D01*
X206413000Y-114108000D02*
X206413000Y-113957000D01*
X202978000Y-115792000D02*
X204978000Y-113792000D01*
X202978000Y-115824000D02*
X202978000Y-115792000D01*
X201434000Y-89801000D02*
X201422000Y-89789000D01*
X201434000Y-90837000D02*
X201434000Y-89801000D01*
X198894000Y-89801000D02*
X198882000Y-89789000D01*
X198894000Y-90837000D02*
X198894000Y-89801000D01*
D26*
X211582000Y-84455000D02*
X211582000Y-85471000D01*
D27*
X143192000Y-53150000D02*
X143764000Y-52578000D01*
X140462000Y-53150000D02*
X143192000Y-53150000D01*
X156972000Y-53086000D02*
X156464000Y-52578000D01*
X160020000Y-53086000D02*
X156972000Y-53086000D01*
X156334000Y-57788000D02*
X156464000Y-57658000D01*
X156334000Y-62658000D02*
X156334000Y-57788000D01*
X157036000Y-57086000D02*
X156464000Y-57658000D01*
X160020000Y-57086000D02*
X157036000Y-57086000D01*
X143256000Y-57150000D02*
X143764000Y-57658000D01*
X140462000Y-57150000D02*
X143256000Y-57150000D01*
X143764000Y-62526000D02*
X143862000Y-62624000D01*
X143764000Y-57658000D02*
X143764000Y-62526000D01*
D25*
X206514000Y-80021000D02*
X204943011Y-81591989D01*
X204943011Y-81591989D02*
X187140010Y-81591989D01*
X187140010Y-81591989D02*
X171577000Y-97155000D01*
X171577000Y-97155000D02*
X112412780Y-97155000D01*
X112412780Y-97155000D02*
X107696000Y-101871780D01*
X113139220Y-98425000D02*
X107696000Y-103868220D01*
X170943410Y-98425000D02*
X113139220Y-98425000D01*
X187326410Y-82042000D02*
X170943410Y-98425000D01*
X207033000Y-82042000D02*
X187326410Y-82042000D01*
X209054000Y-80021000D02*
X207033000Y-82042000D01*
D27*
X147643999Y-51377999D02*
X148844000Y-52578000D01*
X133242001Y-51377999D02*
X147643999Y-51377999D01*
X129620000Y-55000000D02*
X133242001Y-51377999D01*
X143882000Y-55000000D02*
X146304000Y-52578000D01*
X134620000Y-55000000D02*
X143882000Y-55000000D01*
D25*
X155384000Y-66688000D02*
X155064000Y-67008000D01*
X155384000Y-64758000D02*
X155384000Y-66688000D01*
X142912000Y-66434000D02*
X142592000Y-66754000D01*
X142912000Y-64724000D02*
X142912000Y-66434000D01*
X201434000Y-92837000D02*
X201434000Y-95261000D01*
X209248002Y-115608000D02*
X208763000Y-115608000D01*
X209677000Y-112903000D02*
X209677000Y-115179002D01*
X201434000Y-104660000D02*
X209677000Y-112903000D01*
X209677000Y-115179002D02*
X209248002Y-115608000D01*
X201434000Y-95261000D02*
X201434000Y-104660000D01*
X196976996Y-71755000D02*
X200151996Y-74930000D01*
X191897000Y-71755000D02*
X196976996Y-71755000D01*
X186975000Y-66833000D02*
X191897000Y-71755000D01*
X183593000Y-66833000D02*
X186975000Y-66833000D01*
X200152000Y-93980000D02*
X200152000Y-82931000D01*
X201433000Y-95261000D02*
X200152000Y-93980000D01*
X201434000Y-95261000D02*
X201433000Y-95261000D01*
X198894000Y-92837000D02*
X198894000Y-95261000D01*
X208763000Y-112751000D02*
X208763000Y-114108000D01*
X198894000Y-102882000D02*
X208763000Y-112751000D01*
X198894000Y-95261000D02*
X198894000Y-102882000D01*
X197611996Y-93978996D02*
X197611996Y-82931004D01*
X198894000Y-95261000D02*
X197611996Y-93978996D01*
X196660205Y-70168205D02*
X197612000Y-71120000D01*
X191707205Y-70168205D02*
X196660205Y-70168205D01*
X187102000Y-65563000D02*
X191707205Y-70168205D01*
X183593000Y-65563000D02*
X187102000Y-65563000D01*
X211594000Y-82443000D02*
X211582000Y-82455000D01*
X211594000Y-80021000D02*
X211594000Y-82443000D01*
X199518000Y-67945000D02*
X211594000Y-80021000D01*
X190881000Y-67945000D02*
X199518000Y-67945000D01*
X187706000Y-64770000D02*
X190881000Y-67945000D01*
X182499000Y-64770000D02*
X187706000Y-64770000D01*
X179166000Y-68103000D02*
X182499000Y-64770000D01*
X178643000Y-68103000D02*
X179166000Y-68103000D01*
X205927998Y-114608000D02*
X206413000Y-114608000D01*
X204978000Y-115557998D02*
X205927998Y-114608000D01*
X204978000Y-115824000D02*
X204978000Y-115557998D01*
X155064000Y-69008000D02*
X157604000Y-69008000D01*
X201434000Y-80021000D02*
X201434000Y-78369589D01*
X195835410Y-72770999D02*
X161366999Y-72770999D01*
X201434000Y-78369589D02*
X195835410Y-72770999D01*
X161366999Y-72770999D02*
X157604000Y-69008000D01*
X142592000Y-68754000D02*
X145132000Y-68754000D01*
X149599010Y-73221010D02*
X145132000Y-68754000D01*
X195649010Y-73221010D02*
X149599010Y-73221010D01*
X198894000Y-76466000D02*
X195649010Y-73221010D01*
X198894000Y-80021000D02*
X198894000Y-76466000D01*
X204450000Y-57218998D02*
X214630000Y-67398998D01*
X204450000Y-54100000D02*
X204450000Y-57218998D01*
X203974000Y-94245740D02*
X203974000Y-95261000D01*
X214630000Y-83589740D02*
X203974000Y-94245740D01*
X214630000Y-67398998D02*
X214630000Y-83589740D01*
X196216000Y-72263000D02*
X203974000Y-80021000D01*
X181533000Y-72263000D02*
X196216000Y-72263000D01*
X178643000Y-69373000D02*
X181533000Y-72263000D01*
D28*
X143891000Y-107188000D02*
X139573000Y-107188000D01*
X139573000Y-101854000D01*
X143891000Y-101854000D01*
X143891000Y-107188000D01*
G04 #@! TA.AperFunction,Conductor*
D29*
G36*
X143891000Y-107188000D02*
G01*
X139573000Y-107188000D01*
X139573000Y-101854000D01*
X143891000Y-101854000D01*
X143891000Y-107188000D01*
G37*
G04 #@! TD.AperFunction*
D28*
X173101000Y-106426000D02*
X168783000Y-106426000D01*
X168783000Y-102616000D01*
X173101000Y-102616000D01*
X173101000Y-106426000D01*
G04 #@! TA.AperFunction,Conductor*
D29*
G36*
X173101000Y-106426000D02*
G01*
X168783000Y-106426000D01*
X168783000Y-102616000D01*
X173101000Y-102616000D01*
X173101000Y-106426000D01*
G37*
G04 #@! TD.AperFunction*
M02*
