G04 #@! TF.GenerationSoftware,KiCad,Pcbnew,(5.1.10)-1*
G04 #@! TF.CreationDate,2021-10-31T21:23:51-04:00*
G04 #@! TF.ProjectId,Hardware-YurtThermostat,48617264-7761-4726-952d-597572745468,rev?*
G04 #@! TF.SameCoordinates,Original*
G04 #@! TF.FileFunction,Copper,L3,Inr*
G04 #@! TF.FilePolarity,Positive*
%FSLAX46Y46*%
G04 Gerber Fmt 4.6, Leading zero omitted, Abs format (unit mm)*
G04 Created by KiCad (PCBNEW (5.1.10)-1) date 2021-10-31 21:23:51*
%MOMM*%
%LPD*%
G01*
G04 APERTURE LIST*
G04 #@! TA.AperFunction,ComponentPad*
%ADD10C,5.000000*%
G04 #@! TD*
G04 #@! TA.AperFunction,ComponentPad*
%ADD11C,3.400000*%
G04 #@! TD*
G04 #@! TA.AperFunction,ComponentPad*
%ADD12C,1.597660*%
G04 #@! TD*
G04 #@! TA.AperFunction,ComponentPad*
%ADD13R,2.500000X2.500000*%
G04 #@! TD*
G04 #@! TA.AperFunction,ComponentPad*
%ADD14C,2.500000*%
G04 #@! TD*
G04 #@! TA.AperFunction,ComponentPad*
%ADD15C,1.500000*%
G04 #@! TD*
G04 #@! TA.AperFunction,ComponentPad*
%ADD16C,2.000000*%
G04 #@! TD*
G04 #@! TA.AperFunction,ComponentPad*
%ADD17O,1.524000X2.000000*%
G04 #@! TD*
G04 #@! TA.AperFunction,ViaPad*
%ADD18C,0.800000*%
G04 #@! TD*
G04 #@! TA.AperFunction,Conductor*
%ADD19C,1.000000*%
G04 #@! TD*
G04 #@! TA.AperFunction,Conductor*
%ADD20C,0.250000*%
G04 #@! TD*
G04 #@! TA.AperFunction,Conductor*
%ADD21C,0.254000*%
G04 #@! TD*
G04 #@! TA.AperFunction,Conductor*
%ADD22C,0.100000*%
G04 #@! TD*
G04 APERTURE END LIST*
D10*
X97950000Y-113270000D03*
X97950000Y-64730000D03*
X192050000Y-64730000D03*
X192050000Y-113270000D03*
D11*
X215000000Y-115000000D03*
X112000000Y-115000000D03*
X215000000Y-55000000D03*
X95000000Y-55000000D03*
D12*
X107696000Y-105869740D03*
X107696000Y-103868220D03*
X107696000Y-101871780D03*
X107696000Y-99870260D03*
D13*
X129620000Y-55000000D03*
D14*
X134620000Y-55000000D03*
D15*
X156464000Y-57658000D03*
X151384000Y-57658000D03*
X148844000Y-57658000D03*
X146304000Y-57658000D03*
X143764000Y-57658000D03*
X143764000Y-52578000D03*
X146304000Y-52578000D03*
X148844000Y-52578000D03*
X151384000Y-52578000D03*
G04 #@! TA.AperFunction,ComponentPad*
G36*
G01*
X155964500Y-51828000D02*
X156963500Y-51828000D01*
G75*
G02*
X157214000Y-52078500I0J-250500D01*
G01*
X157214000Y-53077500D01*
G75*
G02*
X156963500Y-53328000I-250500J0D01*
G01*
X155964500Y-53328000D01*
G75*
G02*
X155714000Y-53077500I0J250500D01*
G01*
X155714000Y-52078500D01*
G75*
G02*
X155964500Y-51828000I250500J0D01*
G01*
G37*
G04 #@! TD.AperFunction*
D16*
X204450000Y-54100000D03*
X206990000Y-56640000D03*
X201910000Y-56640000D03*
X204450000Y-59180000D03*
D17*
X211594000Y-80021000D03*
X209054000Y-80021000D03*
X206514000Y-80021000D03*
X203974000Y-80021000D03*
X201434000Y-80021000D03*
X198894000Y-80021000D03*
X196354000Y-80021000D03*
X193814000Y-80021000D03*
X191274000Y-80021000D03*
X188734000Y-80021000D03*
X188734000Y-95261000D03*
X191274000Y-95261000D03*
X193814000Y-95261000D03*
X196354000Y-95261000D03*
X198894000Y-95261000D03*
X201434000Y-95261000D03*
X203974000Y-95261000D03*
X206514000Y-95261000D03*
X209054000Y-95261000D03*
X211594000Y-95261000D03*
D18*
X158750000Y-67056000D03*
X146304000Y-66802000D03*
X145542000Y-64008000D03*
X158242000Y-64008000D03*
X139954000Y-104521000D03*
X201930000Y-113792000D03*
X207588000Y-114858000D03*
X198374000Y-62738000D03*
X190500000Y-56642000D03*
X166624000Y-66802000D03*
X175768000Y-63754000D03*
X186182000Y-70866000D03*
X183642000Y-70104000D03*
X143510000Y-104521000D03*
X143510000Y-105791000D03*
X143510000Y-103505000D03*
X139954000Y-105791000D03*
X139954000Y-103505000D03*
X139954000Y-106807000D03*
X139954000Y-102235000D03*
X143510000Y-102235000D03*
X143510000Y-106807000D03*
X145542000Y-65278000D03*
X158242000Y-65532000D03*
X172720000Y-102997000D03*
X172720000Y-105029000D03*
X172720000Y-104013000D03*
X169164000Y-102997000D03*
X169164000Y-104013000D03*
X169164000Y-106045000D03*
X169164000Y-105029000D03*
X172720000Y-106045000D03*
X181991000Y-68199000D03*
X211582000Y-85471000D03*
X198882000Y-89789000D03*
X201422000Y-89789000D03*
X205994000Y-113538000D03*
X177292000Y-66802000D03*
X200152000Y-82931000D03*
X200151996Y-74930000D03*
X197611996Y-82931004D03*
X197612000Y-71120000D03*
D19*
X107696000Y-99653509D02*
X107696000Y-99870260D01*
X107864491Y-99822000D02*
X107696000Y-99653509D01*
D20*
X172720000Y-77470000D02*
X181991000Y-68199000D01*
X172720000Y-102997000D02*
X172720000Y-77470000D01*
D19*
X175006000Y-106172000D02*
X172593000Y-108585000D01*
X175006000Y-98829000D02*
X175006000Y-106172000D01*
X110476911Y-105869740D02*
X107696000Y-105869740D01*
X113192171Y-108585000D02*
X110476911Y-105869740D01*
X193814000Y-80021000D02*
X175006000Y-98829000D01*
X172593000Y-108585000D02*
X113192171Y-108585000D01*
D21*
X215768083Y-50731173D02*
X216511891Y-50934656D01*
X217207905Y-51266638D01*
X217834130Y-51716626D01*
X218370777Y-52270403D01*
X218800871Y-52910451D01*
X219110829Y-53616553D01*
X219292065Y-54371457D01*
X219340000Y-55024207D01*
X219340001Y-114970597D01*
X219268827Y-115768083D01*
X219065344Y-116511890D01*
X218733363Y-117207904D01*
X218283374Y-117834130D01*
X217729597Y-118370777D01*
X217089549Y-118800871D01*
X216383447Y-119110829D01*
X215628543Y-119292065D01*
X214975793Y-119340000D01*
X95029392Y-119340000D01*
X94231917Y-119268827D01*
X93488110Y-119065344D01*
X92792096Y-118733363D01*
X92165870Y-118283374D01*
X91629223Y-117729597D01*
X91199129Y-117089549D01*
X90889171Y-116383447D01*
X90707935Y-115628543D01*
X90660000Y-114975793D01*
X90660000Y-112961229D01*
X94815000Y-112961229D01*
X94815000Y-113578771D01*
X94935476Y-114184446D01*
X95171799Y-114754979D01*
X95514886Y-115268446D01*
X95951554Y-115705114D01*
X96465021Y-116048201D01*
X97035554Y-116284524D01*
X97641229Y-116405000D01*
X98258771Y-116405000D01*
X98864446Y-116284524D01*
X99434979Y-116048201D01*
X99948446Y-115705114D01*
X100385114Y-115268446D01*
X100718148Y-114770023D01*
X109665000Y-114770023D01*
X109665000Y-115229977D01*
X109754733Y-115681094D01*
X109930750Y-116106037D01*
X110186287Y-116488476D01*
X110511524Y-116813713D01*
X110893963Y-117069250D01*
X111318906Y-117245267D01*
X111770023Y-117335000D01*
X112229977Y-117335000D01*
X112681094Y-117245267D01*
X113106037Y-117069250D01*
X113488476Y-116813713D01*
X113813713Y-116488476D01*
X114069250Y-116106037D01*
X114245267Y-115681094D01*
X114335000Y-115229977D01*
X114335000Y-114770023D01*
X114245267Y-114318906D01*
X114069250Y-113893963D01*
X113813713Y-113511524D01*
X113488476Y-113186287D01*
X113151653Y-112961229D01*
X188915000Y-112961229D01*
X188915000Y-113578771D01*
X189035476Y-114184446D01*
X189271799Y-114754979D01*
X189614886Y-115268446D01*
X190051554Y-115705114D01*
X190565021Y-116048201D01*
X191135554Y-116284524D01*
X191741229Y-116405000D01*
X192358771Y-116405000D01*
X192964446Y-116284524D01*
X193534979Y-116048201D01*
X194048446Y-115705114D01*
X194485114Y-115268446D01*
X194828201Y-114754979D01*
X195064524Y-114184446D01*
X195162863Y-113690061D01*
X200895000Y-113690061D01*
X200895000Y-113893939D01*
X200934774Y-114093898D01*
X201012795Y-114282256D01*
X201126063Y-114451774D01*
X201270226Y-114595937D01*
X201439744Y-114709205D01*
X201628102Y-114787226D01*
X201828061Y-114827000D01*
X202031939Y-114827000D01*
X202231898Y-114787226D01*
X202307136Y-114756061D01*
X206553000Y-114756061D01*
X206553000Y-114959939D01*
X206592774Y-115159898D01*
X206670795Y-115348256D01*
X206784063Y-115517774D01*
X206928226Y-115661937D01*
X207097744Y-115775205D01*
X207286102Y-115853226D01*
X207486061Y-115893000D01*
X207689939Y-115893000D01*
X207889898Y-115853226D01*
X208078256Y-115775205D01*
X208247774Y-115661937D01*
X208391937Y-115517774D01*
X208505205Y-115348256D01*
X208583226Y-115159898D01*
X208623000Y-114959939D01*
X208623000Y-114770023D01*
X212665000Y-114770023D01*
X212665000Y-115229977D01*
X212754733Y-115681094D01*
X212930750Y-116106037D01*
X213186287Y-116488476D01*
X213511524Y-116813713D01*
X213893963Y-117069250D01*
X214318906Y-117245267D01*
X214770023Y-117335000D01*
X215229977Y-117335000D01*
X215681094Y-117245267D01*
X216106037Y-117069250D01*
X216488476Y-116813713D01*
X216813713Y-116488476D01*
X217069250Y-116106037D01*
X217245267Y-115681094D01*
X217335000Y-115229977D01*
X217335000Y-114770023D01*
X217245267Y-114318906D01*
X217069250Y-113893963D01*
X216813713Y-113511524D01*
X216488476Y-113186287D01*
X216106037Y-112930750D01*
X215681094Y-112754733D01*
X215229977Y-112665000D01*
X214770023Y-112665000D01*
X214318906Y-112754733D01*
X213893963Y-112930750D01*
X213511524Y-113186287D01*
X213186287Y-113511524D01*
X212930750Y-113893963D01*
X212754733Y-114318906D01*
X212665000Y-114770023D01*
X208623000Y-114770023D01*
X208623000Y-114756061D01*
X208583226Y-114556102D01*
X208505205Y-114367744D01*
X208391937Y-114198226D01*
X208247774Y-114054063D01*
X208078256Y-113940795D01*
X207889898Y-113862774D01*
X207689939Y-113823000D01*
X207486061Y-113823000D01*
X207286102Y-113862774D01*
X207097744Y-113940795D01*
X206928226Y-114054063D01*
X206784063Y-114198226D01*
X206670795Y-114367744D01*
X206592774Y-114556102D01*
X206553000Y-114756061D01*
X202307136Y-114756061D01*
X202420256Y-114709205D01*
X202589774Y-114595937D01*
X202733937Y-114451774D01*
X202847205Y-114282256D01*
X202925226Y-114093898D01*
X202965000Y-113893939D01*
X202965000Y-113690061D01*
X202925226Y-113490102D01*
X202847205Y-113301744D01*
X202733937Y-113132226D01*
X202589774Y-112988063D01*
X202420256Y-112874795D01*
X202231898Y-112796774D01*
X202031939Y-112757000D01*
X201828061Y-112757000D01*
X201628102Y-112796774D01*
X201439744Y-112874795D01*
X201270226Y-112988063D01*
X201126063Y-113132226D01*
X201012795Y-113301744D01*
X200934774Y-113490102D01*
X200895000Y-113690061D01*
X195162863Y-113690061D01*
X195185000Y-113578771D01*
X195185000Y-112961229D01*
X195064524Y-112355554D01*
X194828201Y-111785021D01*
X194485114Y-111271554D01*
X194048446Y-110834886D01*
X193534979Y-110491799D01*
X192964446Y-110255476D01*
X192358771Y-110135000D01*
X191741229Y-110135000D01*
X191135554Y-110255476D01*
X190565021Y-110491799D01*
X190051554Y-110834886D01*
X189614886Y-111271554D01*
X189271799Y-111785021D01*
X189035476Y-112355554D01*
X188915000Y-112961229D01*
X113151653Y-112961229D01*
X113106037Y-112930750D01*
X112681094Y-112754733D01*
X112229977Y-112665000D01*
X111770023Y-112665000D01*
X111318906Y-112754733D01*
X110893963Y-112930750D01*
X110511524Y-113186287D01*
X110186287Y-113511524D01*
X109930750Y-113893963D01*
X109754733Y-114318906D01*
X109665000Y-114770023D01*
X100718148Y-114770023D01*
X100728201Y-114754979D01*
X100964524Y-114184446D01*
X101085000Y-113578771D01*
X101085000Y-112961229D01*
X100964524Y-112355554D01*
X100728201Y-111785021D01*
X100385114Y-111271554D01*
X99948446Y-110834886D01*
X99434979Y-110491799D01*
X98864446Y-110255476D01*
X98258771Y-110135000D01*
X97641229Y-110135000D01*
X97035554Y-110255476D01*
X96465021Y-110491799D01*
X95951554Y-110834886D01*
X95514886Y-111271554D01*
X95171799Y-111785021D01*
X94935476Y-112355554D01*
X94815000Y-112961229D01*
X90660000Y-112961229D01*
X90660000Y-99729040D01*
X106262170Y-99729040D01*
X106262170Y-100011480D01*
X106317271Y-100288493D01*
X106425356Y-100549433D01*
X106582271Y-100784274D01*
X106669017Y-100871020D01*
X106582271Y-100957766D01*
X106425356Y-101192607D01*
X106317271Y-101453547D01*
X106262170Y-101730560D01*
X106262170Y-102013000D01*
X106317271Y-102290013D01*
X106425356Y-102550953D01*
X106582271Y-102785794D01*
X106666477Y-102870000D01*
X106582271Y-102954206D01*
X106425356Y-103189047D01*
X106317271Y-103449987D01*
X106262170Y-103727000D01*
X106262170Y-104009440D01*
X106317271Y-104286453D01*
X106425356Y-104547393D01*
X106582271Y-104782234D01*
X106669017Y-104868980D01*
X106582271Y-104955726D01*
X106425356Y-105190567D01*
X106317271Y-105451507D01*
X106262170Y-105728520D01*
X106262170Y-106010960D01*
X106317271Y-106287973D01*
X106425356Y-106548913D01*
X106582271Y-106783754D01*
X106781986Y-106983469D01*
X107016827Y-107140384D01*
X107277767Y-107248469D01*
X107554780Y-107303570D01*
X107837220Y-107303570D01*
X108114233Y-107248469D01*
X108375173Y-107140384D01*
X108578180Y-107004740D01*
X110006780Y-107004740D01*
X112350184Y-109348146D01*
X112385722Y-109391449D01*
X112429025Y-109426987D01*
X112429027Y-109426989D01*
X112558548Y-109533284D01*
X112755724Y-109638676D01*
X112969672Y-109703577D01*
X113192171Y-109725491D01*
X113247923Y-109720000D01*
X172537249Y-109720000D01*
X172593000Y-109725491D01*
X172648751Y-109720000D01*
X172648752Y-109720000D01*
X172815499Y-109703577D01*
X173029447Y-109638676D01*
X173226623Y-109533284D01*
X173399449Y-109391449D01*
X173434996Y-109348135D01*
X175769141Y-107013991D01*
X175812449Y-106978449D01*
X175954284Y-106805623D01*
X176059676Y-106608447D01*
X176124577Y-106394499D01*
X176141000Y-106227752D01*
X176141000Y-106227743D01*
X176146490Y-106172001D01*
X176141000Y-106116259D01*
X176141000Y-99299131D01*
X180485756Y-94954375D01*
X187337000Y-94954375D01*
X187337000Y-95567624D01*
X187357214Y-95772859D01*
X187437096Y-96036194D01*
X187566817Y-96278886D01*
X187741392Y-96491607D01*
X187954113Y-96666183D01*
X188196805Y-96795904D01*
X188460140Y-96875786D01*
X188734000Y-96902759D01*
X189007859Y-96875786D01*
X189271194Y-96795904D01*
X189513886Y-96666183D01*
X189726607Y-96491608D01*
X189901183Y-96278887D01*
X190004000Y-96086529D01*
X190106817Y-96278886D01*
X190281392Y-96491607D01*
X190494113Y-96666183D01*
X190736805Y-96795904D01*
X191000140Y-96875786D01*
X191274000Y-96902759D01*
X191547859Y-96875786D01*
X191811194Y-96795904D01*
X192053886Y-96666183D01*
X192266607Y-96491608D01*
X192441183Y-96278887D01*
X192544000Y-96086529D01*
X192646817Y-96278886D01*
X192821392Y-96491607D01*
X193034113Y-96666183D01*
X193276805Y-96795904D01*
X193540140Y-96875786D01*
X193814000Y-96902759D01*
X194087859Y-96875786D01*
X194351194Y-96795904D01*
X194593886Y-96666183D01*
X194806607Y-96491608D01*
X194981183Y-96278887D01*
X195084000Y-96086529D01*
X195186817Y-96278886D01*
X195361392Y-96491607D01*
X195574113Y-96666183D01*
X195816805Y-96795904D01*
X196080140Y-96875786D01*
X196354000Y-96902759D01*
X196627859Y-96875786D01*
X196891194Y-96795904D01*
X197133886Y-96666183D01*
X197346607Y-96491608D01*
X197521183Y-96278887D01*
X197624000Y-96086529D01*
X197726817Y-96278886D01*
X197901392Y-96491607D01*
X198114113Y-96666183D01*
X198356805Y-96795904D01*
X198620140Y-96875786D01*
X198894000Y-96902759D01*
X199167859Y-96875786D01*
X199431194Y-96795904D01*
X199673886Y-96666183D01*
X199886607Y-96491608D01*
X200061183Y-96278887D01*
X200164000Y-96086529D01*
X200266817Y-96278886D01*
X200441392Y-96491607D01*
X200654113Y-96666183D01*
X200896805Y-96795904D01*
X201160140Y-96875786D01*
X201434000Y-96902759D01*
X201707859Y-96875786D01*
X201971194Y-96795904D01*
X202213886Y-96666183D01*
X202426607Y-96491608D01*
X202601183Y-96278887D01*
X202704000Y-96086529D01*
X202806817Y-96278886D01*
X202981392Y-96491607D01*
X203194113Y-96666183D01*
X203436805Y-96795904D01*
X203700140Y-96875786D01*
X203974000Y-96902759D01*
X204247859Y-96875786D01*
X204511194Y-96795904D01*
X204753886Y-96666183D01*
X204966607Y-96491608D01*
X205141183Y-96278887D01*
X205244000Y-96086529D01*
X205346817Y-96278886D01*
X205521392Y-96491607D01*
X205734113Y-96666183D01*
X205976805Y-96795904D01*
X206240140Y-96875786D01*
X206514000Y-96902759D01*
X206787859Y-96875786D01*
X207051194Y-96795904D01*
X207293886Y-96666183D01*
X207506607Y-96491608D01*
X207681183Y-96278887D01*
X207784000Y-96086529D01*
X207886817Y-96278886D01*
X208061392Y-96491607D01*
X208274113Y-96666183D01*
X208516805Y-96795904D01*
X208780140Y-96875786D01*
X209054000Y-96902759D01*
X209327859Y-96875786D01*
X209591194Y-96795904D01*
X209833886Y-96666183D01*
X210046607Y-96491608D01*
X210221183Y-96278887D01*
X210324000Y-96086529D01*
X210426817Y-96278886D01*
X210601392Y-96491607D01*
X210814113Y-96666183D01*
X211056805Y-96795904D01*
X211320140Y-96875786D01*
X211594000Y-96902759D01*
X211867859Y-96875786D01*
X212131194Y-96795904D01*
X212373886Y-96666183D01*
X212586607Y-96491608D01*
X212761183Y-96278887D01*
X212890904Y-96036195D01*
X212970786Y-95772860D01*
X212991000Y-95567625D01*
X212991000Y-94954376D01*
X212970786Y-94749141D01*
X212890904Y-94485806D01*
X212761183Y-94243113D01*
X212586608Y-94030392D01*
X212373887Y-93855817D01*
X212131195Y-93726096D01*
X211867860Y-93646214D01*
X211594000Y-93619241D01*
X211320141Y-93646214D01*
X211056806Y-93726096D01*
X210814114Y-93855817D01*
X210601393Y-94030392D01*
X210426817Y-94243113D01*
X210324000Y-94435471D01*
X210221183Y-94243113D01*
X210046608Y-94030392D01*
X209833887Y-93855817D01*
X209591195Y-93726096D01*
X209327860Y-93646214D01*
X209054000Y-93619241D01*
X208780141Y-93646214D01*
X208516806Y-93726096D01*
X208274114Y-93855817D01*
X208061393Y-94030392D01*
X207886817Y-94243113D01*
X207784000Y-94435471D01*
X207681183Y-94243113D01*
X207506608Y-94030392D01*
X207293887Y-93855817D01*
X207051195Y-93726096D01*
X206787860Y-93646214D01*
X206514000Y-93619241D01*
X206240141Y-93646214D01*
X205976806Y-93726096D01*
X205734114Y-93855817D01*
X205521393Y-94030392D01*
X205346817Y-94243113D01*
X205244000Y-94435471D01*
X205141183Y-94243113D01*
X204966608Y-94030392D01*
X204753887Y-93855817D01*
X204511195Y-93726096D01*
X204247860Y-93646214D01*
X203974000Y-93619241D01*
X203700141Y-93646214D01*
X203436806Y-93726096D01*
X203194114Y-93855817D01*
X202981393Y-94030392D01*
X202806817Y-94243113D01*
X202704000Y-94435471D01*
X202601183Y-94243113D01*
X202426608Y-94030392D01*
X202213887Y-93855817D01*
X201971195Y-93726096D01*
X201707860Y-93646214D01*
X201434000Y-93619241D01*
X201160141Y-93646214D01*
X200896806Y-93726096D01*
X200654114Y-93855817D01*
X200441393Y-94030392D01*
X200266817Y-94243113D01*
X200164000Y-94435471D01*
X200061183Y-94243113D01*
X199886608Y-94030392D01*
X199673887Y-93855817D01*
X199431195Y-93726096D01*
X199167860Y-93646214D01*
X198894000Y-93619241D01*
X198620141Y-93646214D01*
X198356806Y-93726096D01*
X198114114Y-93855817D01*
X197901393Y-94030392D01*
X197726817Y-94243113D01*
X197624000Y-94435471D01*
X197521183Y-94243113D01*
X197346608Y-94030392D01*
X197133887Y-93855817D01*
X196891195Y-93726096D01*
X196627860Y-93646214D01*
X196354000Y-93619241D01*
X196080141Y-93646214D01*
X195816806Y-93726096D01*
X195574114Y-93855817D01*
X195361393Y-94030392D01*
X195186817Y-94243113D01*
X195084000Y-94435471D01*
X194981183Y-94243113D01*
X194806608Y-94030392D01*
X194593887Y-93855817D01*
X194351195Y-93726096D01*
X194087860Y-93646214D01*
X193814000Y-93619241D01*
X193540141Y-93646214D01*
X193276806Y-93726096D01*
X193034114Y-93855817D01*
X192821393Y-94030392D01*
X192646817Y-94243113D01*
X192544000Y-94435471D01*
X192441183Y-94243113D01*
X192266608Y-94030392D01*
X192053887Y-93855817D01*
X191811195Y-93726096D01*
X191547860Y-93646214D01*
X191274000Y-93619241D01*
X191000141Y-93646214D01*
X190736806Y-93726096D01*
X190494114Y-93855817D01*
X190281393Y-94030392D01*
X190106817Y-94243113D01*
X190004000Y-94435471D01*
X189901183Y-94243113D01*
X189726608Y-94030392D01*
X189513887Y-93855817D01*
X189271195Y-93726096D01*
X189007860Y-93646214D01*
X188734000Y-93619241D01*
X188460141Y-93646214D01*
X188196806Y-93726096D01*
X187954114Y-93855817D01*
X187741393Y-94030392D01*
X187566817Y-94243113D01*
X187437096Y-94485805D01*
X187357214Y-94749140D01*
X187337000Y-94954375D01*
X180485756Y-94954375D01*
X192611067Y-82829065D01*
X196576996Y-82829065D01*
X196576996Y-83032943D01*
X196616770Y-83232902D01*
X196694791Y-83421260D01*
X196808059Y-83590778D01*
X196952222Y-83734941D01*
X197121740Y-83848209D01*
X197310098Y-83926230D01*
X197510057Y-83966004D01*
X197713935Y-83966004D01*
X197913894Y-83926230D01*
X198102252Y-83848209D01*
X198271770Y-83734941D01*
X198415933Y-83590778D01*
X198529201Y-83421260D01*
X198607222Y-83232902D01*
X198646996Y-83032943D01*
X198646996Y-82829065D01*
X198646996Y-82829061D01*
X199117000Y-82829061D01*
X199117000Y-83032939D01*
X199156774Y-83232898D01*
X199234795Y-83421256D01*
X199348063Y-83590774D01*
X199492226Y-83734937D01*
X199661744Y-83848205D01*
X199850102Y-83926226D01*
X200050061Y-83966000D01*
X200253939Y-83966000D01*
X200453898Y-83926226D01*
X200642256Y-83848205D01*
X200811774Y-83734937D01*
X200955937Y-83590774D01*
X201069205Y-83421256D01*
X201147226Y-83232898D01*
X201187000Y-83032939D01*
X201187000Y-82829061D01*
X201147226Y-82629102D01*
X201069205Y-82440744D01*
X200955937Y-82271226D01*
X200811774Y-82127063D01*
X200642256Y-82013795D01*
X200453898Y-81935774D01*
X200253939Y-81896000D01*
X200050061Y-81896000D01*
X199850102Y-81935774D01*
X199661744Y-82013795D01*
X199492226Y-82127063D01*
X199348063Y-82271226D01*
X199234795Y-82440744D01*
X199156774Y-82629102D01*
X199117000Y-82829061D01*
X198646996Y-82829061D01*
X198607222Y-82629106D01*
X198529201Y-82440748D01*
X198415933Y-82271230D01*
X198271770Y-82127067D01*
X198102252Y-82013799D01*
X197913894Y-81935778D01*
X197713935Y-81896004D01*
X197510057Y-81896004D01*
X197310098Y-81935778D01*
X197121740Y-82013799D01*
X196952222Y-82127067D01*
X196808059Y-82271230D01*
X196694791Y-82440748D01*
X196616770Y-82629106D01*
X196576996Y-82829065D01*
X192611067Y-82829065D01*
X193780658Y-81659475D01*
X193814000Y-81662759D01*
X194087859Y-81635786D01*
X194351194Y-81555904D01*
X194593886Y-81426183D01*
X194806607Y-81251608D01*
X194981183Y-81038887D01*
X195082198Y-80849901D01*
X195100574Y-80896917D01*
X195249110Y-81129191D01*
X195440106Y-81328024D01*
X195666222Y-81485775D01*
X195918769Y-81596382D01*
X196010930Y-81613220D01*
X196227000Y-81490720D01*
X196227000Y-80148000D01*
X196207000Y-80148000D01*
X196207000Y-79894000D01*
X196227000Y-79894000D01*
X196227000Y-78551280D01*
X196481000Y-78551280D01*
X196481000Y-79894000D01*
X196501000Y-79894000D01*
X196501000Y-80148000D01*
X196481000Y-80148000D01*
X196481000Y-81490720D01*
X196697070Y-81613220D01*
X196789231Y-81596382D01*
X197041778Y-81485775D01*
X197267894Y-81328024D01*
X197458890Y-81129191D01*
X197607426Y-80896917D01*
X197625803Y-80849900D01*
X197726817Y-81038886D01*
X197901392Y-81251607D01*
X198114113Y-81426183D01*
X198356805Y-81555904D01*
X198620140Y-81635786D01*
X198894000Y-81662759D01*
X199167859Y-81635786D01*
X199431194Y-81555904D01*
X199673886Y-81426183D01*
X199886607Y-81251608D01*
X200061183Y-81038887D01*
X200164000Y-80846529D01*
X200266817Y-81038886D01*
X200441392Y-81251607D01*
X200654113Y-81426183D01*
X200896805Y-81555904D01*
X201160140Y-81635786D01*
X201434000Y-81662759D01*
X201707859Y-81635786D01*
X201971194Y-81555904D01*
X202213886Y-81426183D01*
X202426607Y-81251608D01*
X202601183Y-81038887D01*
X202704000Y-80846529D01*
X202806817Y-81038886D01*
X202981392Y-81251607D01*
X203194113Y-81426183D01*
X203436805Y-81555904D01*
X203700140Y-81635786D01*
X203974000Y-81662759D01*
X204247859Y-81635786D01*
X204511194Y-81555904D01*
X204753886Y-81426183D01*
X204966607Y-81251608D01*
X205141183Y-81038887D01*
X205244000Y-80846529D01*
X205346817Y-81038886D01*
X205521392Y-81251607D01*
X205734113Y-81426183D01*
X205976805Y-81555904D01*
X206240140Y-81635786D01*
X206514000Y-81662759D01*
X206787859Y-81635786D01*
X207051194Y-81555904D01*
X207293886Y-81426183D01*
X207506607Y-81251608D01*
X207681183Y-81038887D01*
X207784000Y-80846529D01*
X207886817Y-81038886D01*
X208061392Y-81251607D01*
X208274113Y-81426183D01*
X208516805Y-81555904D01*
X208780140Y-81635786D01*
X209054000Y-81662759D01*
X209327859Y-81635786D01*
X209591194Y-81555904D01*
X209833886Y-81426183D01*
X210046607Y-81251608D01*
X210221183Y-81038887D01*
X210324000Y-80846529D01*
X210426817Y-81038886D01*
X210601392Y-81251607D01*
X210814113Y-81426183D01*
X211056805Y-81555904D01*
X211320140Y-81635786D01*
X211594000Y-81662759D01*
X211867859Y-81635786D01*
X212131194Y-81555904D01*
X212373886Y-81426183D01*
X212586607Y-81251608D01*
X212761183Y-81038887D01*
X212890904Y-80796195D01*
X212970786Y-80532860D01*
X212991000Y-80327625D01*
X212991000Y-79714376D01*
X212970786Y-79509141D01*
X212890904Y-79245806D01*
X212761183Y-79003113D01*
X212586608Y-78790392D01*
X212373887Y-78615817D01*
X212131195Y-78486096D01*
X211867860Y-78406214D01*
X211594000Y-78379241D01*
X211320141Y-78406214D01*
X211056806Y-78486096D01*
X210814114Y-78615817D01*
X210601393Y-78790392D01*
X210426817Y-79003113D01*
X210324000Y-79195471D01*
X210221183Y-79003113D01*
X210046608Y-78790392D01*
X209833887Y-78615817D01*
X209591195Y-78486096D01*
X209327860Y-78406214D01*
X209054000Y-78379241D01*
X208780141Y-78406214D01*
X208516806Y-78486096D01*
X208274114Y-78615817D01*
X208061393Y-78790392D01*
X207886817Y-79003113D01*
X207784000Y-79195471D01*
X207681183Y-79003113D01*
X207506608Y-78790392D01*
X207293887Y-78615817D01*
X207051195Y-78486096D01*
X206787860Y-78406214D01*
X206514000Y-78379241D01*
X206240141Y-78406214D01*
X205976806Y-78486096D01*
X205734114Y-78615817D01*
X205521393Y-78790392D01*
X205346817Y-79003113D01*
X205244000Y-79195471D01*
X205141183Y-79003113D01*
X204966608Y-78790392D01*
X204753887Y-78615817D01*
X204511195Y-78486096D01*
X204247860Y-78406214D01*
X203974000Y-78379241D01*
X203700141Y-78406214D01*
X203436806Y-78486096D01*
X203194114Y-78615817D01*
X202981393Y-78790392D01*
X202806817Y-79003113D01*
X202704000Y-79195471D01*
X202601183Y-79003113D01*
X202426608Y-78790392D01*
X202213887Y-78615817D01*
X201971195Y-78486096D01*
X201707860Y-78406214D01*
X201434000Y-78379241D01*
X201160141Y-78406214D01*
X200896806Y-78486096D01*
X200654114Y-78615817D01*
X200441393Y-78790392D01*
X200266817Y-79003113D01*
X200164000Y-79195471D01*
X200061183Y-79003113D01*
X199886608Y-78790392D01*
X199673887Y-78615817D01*
X199431195Y-78486096D01*
X199167860Y-78406214D01*
X198894000Y-78379241D01*
X198620141Y-78406214D01*
X198356806Y-78486096D01*
X198114114Y-78615817D01*
X197901393Y-78790392D01*
X197726817Y-79003113D01*
X197625802Y-79192099D01*
X197607426Y-79145083D01*
X197458890Y-78912809D01*
X197267894Y-78713976D01*
X197041778Y-78556225D01*
X196789231Y-78445618D01*
X196697070Y-78428780D01*
X196481000Y-78551280D01*
X196227000Y-78551280D01*
X196010930Y-78428780D01*
X195918769Y-78445618D01*
X195666222Y-78556225D01*
X195440106Y-78713976D01*
X195249110Y-78912809D01*
X195100574Y-79145083D01*
X195082197Y-79192099D01*
X194981183Y-79003113D01*
X194806608Y-78790392D01*
X194593887Y-78615817D01*
X194351195Y-78486096D01*
X194087860Y-78406214D01*
X193814000Y-78379241D01*
X193540141Y-78406214D01*
X193276806Y-78486096D01*
X193034114Y-78615817D01*
X192821393Y-78790392D01*
X192646817Y-79003113D01*
X192544000Y-79195471D01*
X192441183Y-79003113D01*
X192266608Y-78790392D01*
X192053887Y-78615817D01*
X191811195Y-78486096D01*
X191547860Y-78406214D01*
X191274000Y-78379241D01*
X191000141Y-78406214D01*
X190736806Y-78486096D01*
X190494114Y-78615817D01*
X190281393Y-78790392D01*
X190106817Y-79003113D01*
X190004000Y-79195471D01*
X189901183Y-79003113D01*
X189726608Y-78790392D01*
X189513887Y-78615817D01*
X189271195Y-78486096D01*
X189007860Y-78406214D01*
X188734000Y-78379241D01*
X188460141Y-78406214D01*
X188196806Y-78486096D01*
X187954114Y-78615817D01*
X187741393Y-78790392D01*
X187566817Y-79003113D01*
X187437096Y-79245805D01*
X187357214Y-79509140D01*
X187337000Y-79714375D01*
X187337000Y-80327624D01*
X187357214Y-80532859D01*
X187437096Y-80796194D01*
X187566817Y-81038886D01*
X187741392Y-81251607D01*
X187954113Y-81426183D01*
X188196805Y-81555904D01*
X188460140Y-81635786D01*
X188734000Y-81662759D01*
X189007859Y-81635786D01*
X189271194Y-81555904D01*
X189513886Y-81426183D01*
X189726607Y-81251608D01*
X189901183Y-81038887D01*
X190004000Y-80846529D01*
X190106817Y-81038886D01*
X190281392Y-81251607D01*
X190494113Y-81426183D01*
X190695853Y-81534015D01*
X174242865Y-97987004D01*
X174199551Y-98022551D01*
X174057716Y-98195377D01*
X173952325Y-98392553D01*
X173952324Y-98392554D01*
X173887423Y-98606502D01*
X173865509Y-98829000D01*
X173871000Y-98884752D01*
X173871001Y-105701867D01*
X173863000Y-105709868D01*
X173863000Y-102489000D01*
X173850799Y-102365118D01*
X173814664Y-102245996D01*
X173755983Y-102136213D01*
X173677013Y-102039987D01*
X173580787Y-101961017D01*
X173480000Y-101907145D01*
X173480000Y-77784801D01*
X176436740Y-74828061D01*
X199116996Y-74828061D01*
X199116996Y-75031939D01*
X199156770Y-75231898D01*
X199234791Y-75420256D01*
X199348059Y-75589774D01*
X199492222Y-75733937D01*
X199661740Y-75847205D01*
X199850098Y-75925226D01*
X200050057Y-75965000D01*
X200253935Y-75965000D01*
X200453894Y-75925226D01*
X200642252Y-75847205D01*
X200811770Y-75733937D01*
X200955933Y-75589774D01*
X201069201Y-75420256D01*
X201147222Y-75231898D01*
X201186996Y-75031939D01*
X201186996Y-74828061D01*
X201147222Y-74628102D01*
X201069201Y-74439744D01*
X200955933Y-74270226D01*
X200811770Y-74126063D01*
X200642252Y-74012795D01*
X200453894Y-73934774D01*
X200253935Y-73895000D01*
X200050057Y-73895000D01*
X199850098Y-73934774D01*
X199661740Y-74012795D01*
X199492222Y-74126063D01*
X199348059Y-74270226D01*
X199234791Y-74439744D01*
X199156770Y-74628102D01*
X199116996Y-74828061D01*
X176436740Y-74828061D01*
X181262740Y-70002061D01*
X182607000Y-70002061D01*
X182607000Y-70205939D01*
X182646774Y-70405898D01*
X182724795Y-70594256D01*
X182838063Y-70763774D01*
X182982226Y-70907937D01*
X183151744Y-71021205D01*
X183340102Y-71099226D01*
X183540061Y-71139000D01*
X183743939Y-71139000D01*
X183943898Y-71099226D01*
X184132256Y-71021205D01*
X184301774Y-70907937D01*
X184445650Y-70764061D01*
X185147000Y-70764061D01*
X185147000Y-70967939D01*
X185186774Y-71167898D01*
X185264795Y-71356256D01*
X185378063Y-71525774D01*
X185522226Y-71669937D01*
X185691744Y-71783205D01*
X185880102Y-71861226D01*
X186080061Y-71901000D01*
X186283939Y-71901000D01*
X186483898Y-71861226D01*
X186672256Y-71783205D01*
X186841774Y-71669937D01*
X186985937Y-71525774D01*
X187099205Y-71356256D01*
X187177226Y-71167898D01*
X187207030Y-71018061D01*
X196577000Y-71018061D01*
X196577000Y-71221939D01*
X196616774Y-71421898D01*
X196694795Y-71610256D01*
X196808063Y-71779774D01*
X196952226Y-71923937D01*
X197121744Y-72037205D01*
X197310102Y-72115226D01*
X197510061Y-72155000D01*
X197713939Y-72155000D01*
X197913898Y-72115226D01*
X198102256Y-72037205D01*
X198271774Y-71923937D01*
X198415937Y-71779774D01*
X198529205Y-71610256D01*
X198607226Y-71421898D01*
X198647000Y-71221939D01*
X198647000Y-71018061D01*
X198607226Y-70818102D01*
X198529205Y-70629744D01*
X198415937Y-70460226D01*
X198271774Y-70316063D01*
X198102256Y-70202795D01*
X197913898Y-70124774D01*
X197713939Y-70085000D01*
X197510061Y-70085000D01*
X197310102Y-70124774D01*
X197121744Y-70202795D01*
X196952226Y-70316063D01*
X196808063Y-70460226D01*
X196694795Y-70629744D01*
X196616774Y-70818102D01*
X196577000Y-71018061D01*
X187207030Y-71018061D01*
X187217000Y-70967939D01*
X187217000Y-70764061D01*
X187177226Y-70564102D01*
X187099205Y-70375744D01*
X186985937Y-70206226D01*
X186841774Y-70062063D01*
X186672256Y-69948795D01*
X186483898Y-69870774D01*
X186283939Y-69831000D01*
X186080061Y-69831000D01*
X185880102Y-69870774D01*
X185691744Y-69948795D01*
X185522226Y-70062063D01*
X185378063Y-70206226D01*
X185264795Y-70375744D01*
X185186774Y-70564102D01*
X185147000Y-70764061D01*
X184445650Y-70764061D01*
X184445937Y-70763774D01*
X184559205Y-70594256D01*
X184637226Y-70405898D01*
X184677000Y-70205939D01*
X184677000Y-70002061D01*
X184637226Y-69802102D01*
X184559205Y-69613744D01*
X184445937Y-69444226D01*
X184301774Y-69300063D01*
X184132256Y-69186795D01*
X183943898Y-69108774D01*
X183743939Y-69069000D01*
X183540061Y-69069000D01*
X183340102Y-69108774D01*
X183151744Y-69186795D01*
X182982226Y-69300063D01*
X182838063Y-69444226D01*
X182724795Y-69613744D01*
X182646774Y-69802102D01*
X182607000Y-70002061D01*
X181262740Y-70002061D01*
X182030802Y-69234000D01*
X182092939Y-69234000D01*
X182292898Y-69194226D01*
X182481256Y-69116205D01*
X182650774Y-69002937D01*
X182794937Y-68858774D01*
X182908205Y-68689256D01*
X182986226Y-68500898D01*
X183026000Y-68300939D01*
X183026000Y-68097061D01*
X182986226Y-67897102D01*
X182908205Y-67708744D01*
X182794937Y-67539226D01*
X182650774Y-67395063D01*
X182481256Y-67281795D01*
X182292898Y-67203774D01*
X182092939Y-67164000D01*
X181889061Y-67164000D01*
X181689102Y-67203774D01*
X181500744Y-67281795D01*
X181331226Y-67395063D01*
X181187063Y-67539226D01*
X181073795Y-67708744D01*
X180995774Y-67897102D01*
X180956000Y-68097061D01*
X180956000Y-68159198D01*
X172208998Y-76906201D01*
X172180000Y-76929999D01*
X172156202Y-76958997D01*
X172156201Y-76958998D01*
X172085026Y-77045724D01*
X172014454Y-77177754D01*
X171970998Y-77321015D01*
X171956324Y-77470000D01*
X171960001Y-77507333D01*
X171960000Y-101854000D01*
X168656000Y-101854000D01*
X168532118Y-101866201D01*
X168412996Y-101902336D01*
X168303213Y-101961017D01*
X168206987Y-102039987D01*
X168128017Y-102136213D01*
X168069336Y-102245996D01*
X168033201Y-102365118D01*
X168021000Y-102489000D01*
X168021000Y-106553000D01*
X168033201Y-106676882D01*
X168069336Y-106796004D01*
X168128017Y-106905787D01*
X168206987Y-107002013D01*
X168303213Y-107080983D01*
X168412996Y-107139664D01*
X168532118Y-107175799D01*
X168656000Y-107188000D01*
X172384869Y-107188000D01*
X172122869Y-107450000D01*
X144325145Y-107450000D01*
X144427205Y-107297256D01*
X144505226Y-107108898D01*
X144545000Y-106908939D01*
X144545000Y-106705061D01*
X144505226Y-106505102D01*
X144427205Y-106316744D01*
X144415349Y-106299000D01*
X144427205Y-106281256D01*
X144505226Y-106092898D01*
X144545000Y-105892939D01*
X144545000Y-105689061D01*
X144505226Y-105489102D01*
X144427205Y-105300744D01*
X144330490Y-105156000D01*
X144427205Y-105011256D01*
X144505226Y-104822898D01*
X144545000Y-104622939D01*
X144545000Y-104419061D01*
X144505226Y-104219102D01*
X144427205Y-104030744D01*
X144415349Y-104013000D01*
X144427205Y-103995256D01*
X144505226Y-103806898D01*
X144545000Y-103606939D01*
X144545000Y-103403061D01*
X144505226Y-103203102D01*
X144427205Y-103014744D01*
X144330490Y-102870000D01*
X144427205Y-102725256D01*
X144505226Y-102536898D01*
X144545000Y-102336939D01*
X144545000Y-102133061D01*
X144505226Y-101933102D01*
X144427205Y-101744744D01*
X144313937Y-101575226D01*
X144169774Y-101431063D01*
X144000256Y-101317795D01*
X143811898Y-101239774D01*
X143611939Y-101200000D01*
X143408061Y-101200000D01*
X143208102Y-101239774D01*
X143019744Y-101317795D01*
X142850226Y-101431063D01*
X142706063Y-101575226D01*
X142592795Y-101744744D01*
X142514774Y-101933102D01*
X142475000Y-102133061D01*
X142475000Y-102336939D01*
X142514774Y-102536898D01*
X142592795Y-102725256D01*
X142689510Y-102870000D01*
X142592795Y-103014744D01*
X142514774Y-103203102D01*
X142475000Y-103403061D01*
X142475000Y-103606939D01*
X142514774Y-103806898D01*
X142592795Y-103995256D01*
X142604651Y-104013000D01*
X142592795Y-104030744D01*
X142514774Y-104219102D01*
X142475000Y-104419061D01*
X142475000Y-104622939D01*
X142514774Y-104822898D01*
X142592795Y-105011256D01*
X142689510Y-105156000D01*
X142592795Y-105300744D01*
X142514774Y-105489102D01*
X142475000Y-105689061D01*
X142475000Y-105892939D01*
X142514774Y-106092898D01*
X142592795Y-106281256D01*
X142604651Y-106299000D01*
X142592795Y-106316744D01*
X142514774Y-106505102D01*
X142475000Y-106705061D01*
X142475000Y-106908939D01*
X142514774Y-107108898D01*
X142592795Y-107297256D01*
X142694855Y-107450000D01*
X140769145Y-107450000D01*
X140871205Y-107297256D01*
X140949226Y-107108898D01*
X140989000Y-106908939D01*
X140989000Y-106705061D01*
X140949226Y-106505102D01*
X140871205Y-106316744D01*
X140859349Y-106299000D01*
X140871205Y-106281256D01*
X140949226Y-106092898D01*
X140989000Y-105892939D01*
X140989000Y-105689061D01*
X140949226Y-105489102D01*
X140871205Y-105300744D01*
X140774490Y-105156000D01*
X140871205Y-105011256D01*
X140949226Y-104822898D01*
X140989000Y-104622939D01*
X140989000Y-104419061D01*
X140949226Y-104219102D01*
X140871205Y-104030744D01*
X140859349Y-104013000D01*
X140871205Y-103995256D01*
X140949226Y-103806898D01*
X140989000Y-103606939D01*
X140989000Y-103403061D01*
X140949226Y-103203102D01*
X140871205Y-103014744D01*
X140774490Y-102870000D01*
X140871205Y-102725256D01*
X140949226Y-102536898D01*
X140989000Y-102336939D01*
X140989000Y-102133061D01*
X140949226Y-101933102D01*
X140871205Y-101744744D01*
X140757937Y-101575226D01*
X140613774Y-101431063D01*
X140444256Y-101317795D01*
X140255898Y-101239774D01*
X140055939Y-101200000D01*
X139852061Y-101200000D01*
X139652102Y-101239774D01*
X139463744Y-101317795D01*
X139294226Y-101431063D01*
X139150063Y-101575226D01*
X139036795Y-101744744D01*
X138958774Y-101933102D01*
X138919000Y-102133061D01*
X138919000Y-102336939D01*
X138958774Y-102536898D01*
X139036795Y-102725256D01*
X139133510Y-102870000D01*
X139036795Y-103014744D01*
X138958774Y-103203102D01*
X138919000Y-103403061D01*
X138919000Y-103606939D01*
X138958774Y-103806898D01*
X139036795Y-103995256D01*
X139048651Y-104013000D01*
X139036795Y-104030744D01*
X138958774Y-104219102D01*
X138919000Y-104419061D01*
X138919000Y-104622939D01*
X138958774Y-104822898D01*
X139036795Y-105011256D01*
X139133510Y-105156000D01*
X139036795Y-105300744D01*
X138958774Y-105489102D01*
X138919000Y-105689061D01*
X138919000Y-105892939D01*
X138958774Y-106092898D01*
X139036795Y-106281256D01*
X139048651Y-106299000D01*
X139036795Y-106316744D01*
X138958774Y-106505102D01*
X138919000Y-106705061D01*
X138919000Y-106908939D01*
X138958774Y-107108898D01*
X139036795Y-107297256D01*
X139138855Y-107450000D01*
X113662304Y-107450000D01*
X111318907Y-105106605D01*
X111283360Y-105063291D01*
X111110534Y-104921456D01*
X110913358Y-104816064D01*
X110699410Y-104751163D01*
X110532663Y-104734740D01*
X110532662Y-104734740D01*
X110476911Y-104729249D01*
X110421160Y-104734740D01*
X108841463Y-104734740D01*
X108966644Y-104547393D01*
X109074729Y-104286453D01*
X109129830Y-104009440D01*
X109129830Y-103727000D01*
X109074729Y-103449987D01*
X108966644Y-103189047D01*
X108809729Y-102954206D01*
X108725523Y-102870000D01*
X108809729Y-102785794D01*
X108966644Y-102550953D01*
X109074729Y-102290013D01*
X109129830Y-102013000D01*
X109129830Y-101730560D01*
X109074729Y-101453547D01*
X108966644Y-101192607D01*
X108809729Y-100957766D01*
X108722983Y-100871020D01*
X108809729Y-100784274D01*
X108966644Y-100549433D01*
X109074729Y-100288493D01*
X109129830Y-100011480D01*
X109129830Y-99729040D01*
X109074729Y-99452027D01*
X108966644Y-99191087D01*
X108809729Y-98956246D01*
X108610014Y-98756531D01*
X108375173Y-98599616D01*
X108114233Y-98491531D01*
X107837220Y-98436430D01*
X107554780Y-98436430D01*
X107277767Y-98491531D01*
X107016827Y-98599616D01*
X106781986Y-98756531D01*
X106582271Y-98956246D01*
X106425356Y-99191087D01*
X106317271Y-99452027D01*
X106262170Y-99729040D01*
X90660000Y-99729040D01*
X90660000Y-64421229D01*
X94815000Y-64421229D01*
X94815000Y-65038771D01*
X94935476Y-65644446D01*
X95171799Y-66214979D01*
X95514886Y-66728446D01*
X95951554Y-67165114D01*
X96465021Y-67508201D01*
X97035554Y-67744524D01*
X97641229Y-67865000D01*
X98258771Y-67865000D01*
X98864446Y-67744524D01*
X99434979Y-67508201D01*
X99948446Y-67165114D01*
X100385114Y-66728446D01*
X100728201Y-66214979D01*
X100817248Y-66000000D01*
X109336807Y-66000000D01*
X109340000Y-66032419D01*
X109340001Y-93967571D01*
X109336807Y-94000000D01*
X109349550Y-94129383D01*
X109387290Y-94253793D01*
X109448575Y-94368450D01*
X109531052Y-94468948D01*
X109631550Y-94551425D01*
X109746207Y-94612710D01*
X109870617Y-94650450D01*
X109967581Y-94660000D01*
X110000000Y-94663193D01*
X110032419Y-94660000D01*
X167967581Y-94660000D01*
X168000000Y-94663193D01*
X168032419Y-94660000D01*
X168129383Y-94650450D01*
X168253793Y-94612710D01*
X168368450Y-94551425D01*
X168468948Y-94468948D01*
X168551425Y-94368450D01*
X168612710Y-94253793D01*
X168650450Y-94129383D01*
X168663193Y-94000000D01*
X168660000Y-93967581D01*
X168660000Y-75032419D01*
X168663193Y-75000000D01*
X168650450Y-74870617D01*
X168612710Y-74746207D01*
X168551425Y-74631550D01*
X168468948Y-74531052D01*
X168368450Y-74448575D01*
X168253793Y-74387290D01*
X168129383Y-74349550D01*
X168032419Y-74340000D01*
X168000000Y-74336807D01*
X167967581Y-74340000D01*
X141273381Y-74340000D01*
X138660000Y-71726620D01*
X138660000Y-66032419D01*
X138663193Y-66000000D01*
X138650450Y-65870617D01*
X138612710Y-65746207D01*
X138551425Y-65631550D01*
X138468948Y-65531052D01*
X138368450Y-65448575D01*
X138253793Y-65387290D01*
X138129383Y-65349550D01*
X138032419Y-65340000D01*
X138000000Y-65336807D01*
X137967581Y-65340000D01*
X110032419Y-65340000D01*
X110000000Y-65336807D01*
X109967581Y-65340000D01*
X109870617Y-65349550D01*
X109746207Y-65387290D01*
X109631550Y-65448575D01*
X109531052Y-65531052D01*
X109448575Y-65631550D01*
X109387290Y-65746207D01*
X109349550Y-65870617D01*
X109336807Y-66000000D01*
X100817248Y-66000000D01*
X100964524Y-65644446D01*
X101085000Y-65038771D01*
X101085000Y-64421229D01*
X100982527Y-63906061D01*
X144507000Y-63906061D01*
X144507000Y-64109939D01*
X144546774Y-64309898D01*
X144624795Y-64498256D01*
X144721510Y-64643000D01*
X144624795Y-64787744D01*
X144546774Y-64976102D01*
X144507000Y-65176061D01*
X144507000Y-65379939D01*
X144546774Y-65579898D01*
X144624795Y-65768256D01*
X144738063Y-65937774D01*
X144882226Y-66081937D01*
X145051744Y-66195205D01*
X145240102Y-66273226D01*
X145392303Y-66303500D01*
X145386795Y-66311744D01*
X145308774Y-66500102D01*
X145269000Y-66700061D01*
X145269000Y-66903939D01*
X145308774Y-67103898D01*
X145386795Y-67292256D01*
X145500063Y-67461774D01*
X145644226Y-67605937D01*
X145813744Y-67719205D01*
X146002102Y-67797226D01*
X146202061Y-67837000D01*
X146405939Y-67837000D01*
X146605898Y-67797226D01*
X146794256Y-67719205D01*
X146963774Y-67605937D01*
X147107937Y-67461774D01*
X147221205Y-67292256D01*
X147299226Y-67103898D01*
X147339000Y-66903939D01*
X147339000Y-66700061D01*
X147299226Y-66500102D01*
X147221205Y-66311744D01*
X147107937Y-66142226D01*
X146963774Y-65998063D01*
X146794256Y-65884795D01*
X146605898Y-65806774D01*
X146453697Y-65776500D01*
X146459205Y-65768256D01*
X146537226Y-65579898D01*
X146577000Y-65379939D01*
X146577000Y-65176061D01*
X146537226Y-64976102D01*
X146459205Y-64787744D01*
X146362490Y-64643000D01*
X146459205Y-64498256D01*
X146537226Y-64309898D01*
X146577000Y-64109939D01*
X146577000Y-63906061D01*
X157207000Y-63906061D01*
X157207000Y-64109939D01*
X157246774Y-64309898D01*
X157324795Y-64498256D01*
X157438063Y-64667774D01*
X157540289Y-64770000D01*
X157438063Y-64872226D01*
X157324795Y-65041744D01*
X157246774Y-65230102D01*
X157207000Y-65430061D01*
X157207000Y-65633939D01*
X157246774Y-65833898D01*
X157324795Y-66022256D01*
X157438063Y-66191774D01*
X157582226Y-66335937D01*
X157751744Y-66449205D01*
X157876214Y-66500763D01*
X157832795Y-66565744D01*
X157754774Y-66754102D01*
X157715000Y-66954061D01*
X157715000Y-67157939D01*
X157754774Y-67357898D01*
X157832795Y-67546256D01*
X157946063Y-67715774D01*
X158090226Y-67859937D01*
X158259744Y-67973205D01*
X158448102Y-68051226D01*
X158648061Y-68091000D01*
X158851939Y-68091000D01*
X159051898Y-68051226D01*
X159240256Y-67973205D01*
X159409774Y-67859937D01*
X159553937Y-67715774D01*
X159667205Y-67546256D01*
X159745226Y-67357898D01*
X159785000Y-67157939D01*
X159785000Y-66954061D01*
X159745226Y-66754102D01*
X159722842Y-66700061D01*
X165589000Y-66700061D01*
X165589000Y-66903939D01*
X165628774Y-67103898D01*
X165706795Y-67292256D01*
X165820063Y-67461774D01*
X165964226Y-67605937D01*
X166133744Y-67719205D01*
X166322102Y-67797226D01*
X166522061Y-67837000D01*
X166725939Y-67837000D01*
X166925898Y-67797226D01*
X167114256Y-67719205D01*
X167283774Y-67605937D01*
X167427937Y-67461774D01*
X167541205Y-67292256D01*
X167619226Y-67103898D01*
X167659000Y-66903939D01*
X167659000Y-66700061D01*
X167619226Y-66500102D01*
X167541205Y-66311744D01*
X167427937Y-66142226D01*
X167283774Y-65998063D01*
X167114256Y-65884795D01*
X166925898Y-65806774D01*
X166725939Y-65767000D01*
X166522061Y-65767000D01*
X166322102Y-65806774D01*
X166133744Y-65884795D01*
X165964226Y-65998063D01*
X165820063Y-66142226D01*
X165706795Y-66311744D01*
X165628774Y-66500102D01*
X165589000Y-66700061D01*
X159722842Y-66700061D01*
X159667205Y-66565744D01*
X159553937Y-66396226D01*
X159409774Y-66252063D01*
X159240256Y-66138795D01*
X159115786Y-66087237D01*
X159159205Y-66022256D01*
X159237226Y-65833898D01*
X159277000Y-65633939D01*
X159277000Y-65430061D01*
X159237226Y-65230102D01*
X159159205Y-65041744D01*
X159045937Y-64872226D01*
X158943711Y-64770000D01*
X159045937Y-64667774D01*
X159159205Y-64498256D01*
X159237226Y-64309898D01*
X159277000Y-64109939D01*
X159277000Y-63906061D01*
X159237226Y-63706102D01*
X159214842Y-63652061D01*
X174733000Y-63652061D01*
X174733000Y-63855939D01*
X174772774Y-64055898D01*
X174850795Y-64244256D01*
X174964063Y-64413774D01*
X175108226Y-64557937D01*
X175277744Y-64671205D01*
X175466102Y-64749226D01*
X175666061Y-64789000D01*
X175869939Y-64789000D01*
X176069898Y-64749226D01*
X176258256Y-64671205D01*
X176427774Y-64557937D01*
X176564482Y-64421229D01*
X188915000Y-64421229D01*
X188915000Y-65038771D01*
X189035476Y-65644446D01*
X189271799Y-66214979D01*
X189614886Y-66728446D01*
X190051554Y-67165114D01*
X190565021Y-67508201D01*
X191135554Y-67744524D01*
X191741229Y-67865000D01*
X192358771Y-67865000D01*
X192964446Y-67744524D01*
X193534979Y-67508201D01*
X194048446Y-67165114D01*
X194485114Y-66728446D01*
X194828201Y-66214979D01*
X195064524Y-65644446D01*
X195185000Y-65038771D01*
X195185000Y-64421229D01*
X195064524Y-63815554D01*
X194828201Y-63245021D01*
X194485114Y-62731554D01*
X194389621Y-62636061D01*
X197339000Y-62636061D01*
X197339000Y-62839939D01*
X197378774Y-63039898D01*
X197456795Y-63228256D01*
X197570063Y-63397774D01*
X197714226Y-63541937D01*
X197883744Y-63655205D01*
X198072102Y-63733226D01*
X198272061Y-63773000D01*
X198475939Y-63773000D01*
X198675898Y-63733226D01*
X198864256Y-63655205D01*
X199033774Y-63541937D01*
X199177937Y-63397774D01*
X199291205Y-63228256D01*
X199369226Y-63039898D01*
X199409000Y-62839939D01*
X199409000Y-62636061D01*
X199369226Y-62436102D01*
X199291205Y-62247744D01*
X199177937Y-62078226D01*
X199033774Y-61934063D01*
X198864256Y-61820795D01*
X198675898Y-61742774D01*
X198475939Y-61703000D01*
X198272061Y-61703000D01*
X198072102Y-61742774D01*
X197883744Y-61820795D01*
X197714226Y-61934063D01*
X197570063Y-62078226D01*
X197456795Y-62247744D01*
X197378774Y-62436102D01*
X197339000Y-62636061D01*
X194389621Y-62636061D01*
X194048446Y-62294886D01*
X193534979Y-61951799D01*
X192964446Y-61715476D01*
X192358771Y-61595000D01*
X191741229Y-61595000D01*
X191135554Y-61715476D01*
X190565021Y-61951799D01*
X190051554Y-62294886D01*
X189614886Y-62731554D01*
X189271799Y-63245021D01*
X189035476Y-63815554D01*
X188915000Y-64421229D01*
X176564482Y-64421229D01*
X176571937Y-64413774D01*
X176685205Y-64244256D01*
X176763226Y-64055898D01*
X176803000Y-63855939D01*
X176803000Y-63652061D01*
X176763226Y-63452102D01*
X176685205Y-63263744D01*
X176571937Y-63094226D01*
X176427774Y-62950063D01*
X176258256Y-62836795D01*
X176069898Y-62758774D01*
X175869939Y-62719000D01*
X175666061Y-62719000D01*
X175466102Y-62758774D01*
X175277744Y-62836795D01*
X175108226Y-62950063D01*
X174964063Y-63094226D01*
X174850795Y-63263744D01*
X174772774Y-63452102D01*
X174733000Y-63652061D01*
X159214842Y-63652061D01*
X159159205Y-63517744D01*
X159045937Y-63348226D01*
X158901774Y-63204063D01*
X158732256Y-63090795D01*
X158543898Y-63012774D01*
X158343939Y-62973000D01*
X158140061Y-62973000D01*
X157940102Y-63012774D01*
X157751744Y-63090795D01*
X157582226Y-63204063D01*
X157438063Y-63348226D01*
X157324795Y-63517744D01*
X157246774Y-63706102D01*
X157207000Y-63906061D01*
X146577000Y-63906061D01*
X146537226Y-63706102D01*
X146459205Y-63517744D01*
X146345937Y-63348226D01*
X146201774Y-63204063D01*
X146032256Y-63090795D01*
X145843898Y-63012774D01*
X145643939Y-62973000D01*
X145440061Y-62973000D01*
X145240102Y-63012774D01*
X145051744Y-63090795D01*
X144882226Y-63204063D01*
X144738063Y-63348226D01*
X144624795Y-63517744D01*
X144546774Y-63706102D01*
X144507000Y-63906061D01*
X100982527Y-63906061D01*
X100964524Y-63815554D01*
X100728201Y-63245021D01*
X100385114Y-62731554D01*
X99948446Y-62294886D01*
X99434979Y-61951799D01*
X98864446Y-61715476D01*
X98258771Y-61595000D01*
X97641229Y-61595000D01*
X97035554Y-61715476D01*
X96465021Y-61951799D01*
X95951554Y-62294886D01*
X95514886Y-62731554D01*
X95171799Y-63245021D01*
X94935476Y-63815554D01*
X94815000Y-64421229D01*
X90660000Y-64421229D01*
X90660000Y-57521589D01*
X142379000Y-57521589D01*
X142379000Y-57794411D01*
X142432225Y-58061989D01*
X142536629Y-58314043D01*
X142688201Y-58540886D01*
X142881114Y-58733799D01*
X143107957Y-58885371D01*
X143360011Y-58989775D01*
X143627589Y-59043000D01*
X143900411Y-59043000D01*
X144167989Y-58989775D01*
X144420043Y-58885371D01*
X144646886Y-58733799D01*
X144839799Y-58540886D01*
X144991371Y-58314043D01*
X145034000Y-58211127D01*
X145076629Y-58314043D01*
X145228201Y-58540886D01*
X145421114Y-58733799D01*
X145647957Y-58885371D01*
X145900011Y-58989775D01*
X146167589Y-59043000D01*
X146440411Y-59043000D01*
X146707989Y-58989775D01*
X146960043Y-58885371D01*
X147186886Y-58733799D01*
X147379799Y-58540886D01*
X147531371Y-58314043D01*
X147574000Y-58211127D01*
X147616629Y-58314043D01*
X147768201Y-58540886D01*
X147961114Y-58733799D01*
X148187957Y-58885371D01*
X148440011Y-58989775D01*
X148707589Y-59043000D01*
X148980411Y-59043000D01*
X149247989Y-58989775D01*
X149500043Y-58885371D01*
X149726886Y-58733799D01*
X149919799Y-58540886D01*
X150071371Y-58314043D01*
X150114000Y-58211127D01*
X150156629Y-58314043D01*
X150308201Y-58540886D01*
X150501114Y-58733799D01*
X150727957Y-58885371D01*
X150980011Y-58989775D01*
X151247589Y-59043000D01*
X151520411Y-59043000D01*
X151787989Y-58989775D01*
X152040043Y-58885371D01*
X152266886Y-58733799D01*
X152459799Y-58540886D01*
X152611371Y-58314043D01*
X152715775Y-58061989D01*
X152769000Y-57794411D01*
X152769000Y-57521589D01*
X155079000Y-57521589D01*
X155079000Y-57794411D01*
X155132225Y-58061989D01*
X155236629Y-58314043D01*
X155388201Y-58540886D01*
X155581114Y-58733799D01*
X155807957Y-58885371D01*
X156060011Y-58989775D01*
X156327589Y-59043000D01*
X156600411Y-59043000D01*
X156721232Y-59018967D01*
X202815000Y-59018967D01*
X202815000Y-59341033D01*
X202877832Y-59656912D01*
X203001082Y-59954463D01*
X203180013Y-60222252D01*
X203407748Y-60449987D01*
X203675537Y-60628918D01*
X203973088Y-60752168D01*
X204288967Y-60815000D01*
X204611033Y-60815000D01*
X204926912Y-60752168D01*
X205224463Y-60628918D01*
X205492252Y-60449987D01*
X205719987Y-60222252D01*
X205898918Y-59954463D01*
X206022168Y-59656912D01*
X206085000Y-59341033D01*
X206085000Y-59018967D01*
X206022168Y-58703088D01*
X205898918Y-58405537D01*
X205719987Y-58137748D01*
X205492252Y-57910013D01*
X205224463Y-57731082D01*
X204926912Y-57607832D01*
X204611033Y-57545000D01*
X204288967Y-57545000D01*
X203973088Y-57607832D01*
X203675537Y-57731082D01*
X203407748Y-57910013D01*
X203180013Y-58137748D01*
X203001082Y-58405537D01*
X202877832Y-58703088D01*
X202815000Y-59018967D01*
X156721232Y-59018967D01*
X156867989Y-58989775D01*
X157120043Y-58885371D01*
X157346886Y-58733799D01*
X157539799Y-58540886D01*
X157691371Y-58314043D01*
X157795775Y-58061989D01*
X157849000Y-57794411D01*
X157849000Y-57775413D01*
X200954192Y-57775413D01*
X201049956Y-58039814D01*
X201339571Y-58180704D01*
X201651108Y-58262384D01*
X201972595Y-58281718D01*
X202291675Y-58237961D01*
X202596088Y-58132795D01*
X202770044Y-58039814D01*
X202865808Y-57775413D01*
X201910000Y-56819605D01*
X200954192Y-57775413D01*
X157849000Y-57775413D01*
X157849000Y-57521589D01*
X157795775Y-57254011D01*
X157691371Y-57001957D01*
X157539799Y-56775114D01*
X157346886Y-56582201D01*
X157283820Y-56540061D01*
X189465000Y-56540061D01*
X189465000Y-56743939D01*
X189504774Y-56943898D01*
X189582795Y-57132256D01*
X189696063Y-57301774D01*
X189840226Y-57445937D01*
X190009744Y-57559205D01*
X190198102Y-57637226D01*
X190398061Y-57677000D01*
X190601939Y-57677000D01*
X190801898Y-57637226D01*
X190990256Y-57559205D01*
X191159774Y-57445937D01*
X191303937Y-57301774D01*
X191417205Y-57132256D01*
X191495226Y-56943898D01*
X191535000Y-56743939D01*
X191535000Y-56702595D01*
X200268282Y-56702595D01*
X200312039Y-57021675D01*
X200417205Y-57326088D01*
X200510186Y-57500044D01*
X200774587Y-57595808D01*
X201730395Y-56640000D01*
X202089605Y-56640000D01*
X203045413Y-57595808D01*
X203309814Y-57500044D01*
X203450704Y-57210429D01*
X203532384Y-56898892D01*
X203551718Y-56577405D01*
X203538219Y-56478967D01*
X205355000Y-56478967D01*
X205355000Y-56801033D01*
X205417832Y-57116912D01*
X205541082Y-57414463D01*
X205720013Y-57682252D01*
X205947748Y-57909987D01*
X206215537Y-58088918D01*
X206513088Y-58212168D01*
X206828967Y-58275000D01*
X207151033Y-58275000D01*
X207466912Y-58212168D01*
X207764463Y-58088918D01*
X208032252Y-57909987D01*
X208259987Y-57682252D01*
X208438918Y-57414463D01*
X208562168Y-57116912D01*
X208625000Y-56801033D01*
X208625000Y-56478967D01*
X208562168Y-56163088D01*
X208438918Y-55865537D01*
X208259987Y-55597748D01*
X208032252Y-55370013D01*
X207764463Y-55191082D01*
X207466912Y-55067832D01*
X207151033Y-55005000D01*
X206828967Y-55005000D01*
X206513088Y-55067832D01*
X206215537Y-55191082D01*
X205947748Y-55370013D01*
X205720013Y-55597748D01*
X205541082Y-55865537D01*
X205417832Y-56163088D01*
X205355000Y-56478967D01*
X203538219Y-56478967D01*
X203507961Y-56258325D01*
X203402795Y-55953912D01*
X203309814Y-55779956D01*
X203045413Y-55684192D01*
X202089605Y-56640000D01*
X201730395Y-56640000D01*
X200774587Y-55684192D01*
X200510186Y-55779956D01*
X200369296Y-56069571D01*
X200287616Y-56381108D01*
X200268282Y-56702595D01*
X191535000Y-56702595D01*
X191535000Y-56540061D01*
X191495226Y-56340102D01*
X191417205Y-56151744D01*
X191303937Y-55982226D01*
X191159774Y-55838063D01*
X190990256Y-55724795D01*
X190801898Y-55646774D01*
X190601939Y-55607000D01*
X190398061Y-55607000D01*
X190198102Y-55646774D01*
X190009744Y-55724795D01*
X189840226Y-55838063D01*
X189696063Y-55982226D01*
X189582795Y-56151744D01*
X189504774Y-56340102D01*
X189465000Y-56540061D01*
X157283820Y-56540061D01*
X157120043Y-56430629D01*
X156867989Y-56326225D01*
X156600411Y-56273000D01*
X156327589Y-56273000D01*
X156060011Y-56326225D01*
X155807957Y-56430629D01*
X155581114Y-56582201D01*
X155388201Y-56775114D01*
X155236629Y-57001957D01*
X155132225Y-57254011D01*
X155079000Y-57521589D01*
X152769000Y-57521589D01*
X152715775Y-57254011D01*
X152611371Y-57001957D01*
X152459799Y-56775114D01*
X152266886Y-56582201D01*
X152040043Y-56430629D01*
X151787989Y-56326225D01*
X151520411Y-56273000D01*
X151247589Y-56273000D01*
X150980011Y-56326225D01*
X150727957Y-56430629D01*
X150501114Y-56582201D01*
X150308201Y-56775114D01*
X150156629Y-57001957D01*
X150114000Y-57104873D01*
X150071371Y-57001957D01*
X149919799Y-56775114D01*
X149726886Y-56582201D01*
X149500043Y-56430629D01*
X149247989Y-56326225D01*
X148980411Y-56273000D01*
X148707589Y-56273000D01*
X148440011Y-56326225D01*
X148187957Y-56430629D01*
X147961114Y-56582201D01*
X147768201Y-56775114D01*
X147616629Y-57001957D01*
X147574000Y-57104873D01*
X147531371Y-57001957D01*
X147379799Y-56775114D01*
X147186886Y-56582201D01*
X146960043Y-56430629D01*
X146707989Y-56326225D01*
X146440411Y-56273000D01*
X146167589Y-56273000D01*
X145900011Y-56326225D01*
X145647957Y-56430629D01*
X145421114Y-56582201D01*
X145228201Y-56775114D01*
X145076629Y-57001957D01*
X145034000Y-57104873D01*
X144991371Y-57001957D01*
X144839799Y-56775114D01*
X144646886Y-56582201D01*
X144420043Y-56430629D01*
X144167989Y-56326225D01*
X143900411Y-56273000D01*
X143627589Y-56273000D01*
X143360011Y-56326225D01*
X143107957Y-56430629D01*
X142881114Y-56582201D01*
X142688201Y-56775114D01*
X142536629Y-57001957D01*
X142432225Y-57254011D01*
X142379000Y-57521589D01*
X90660000Y-57521589D01*
X90660000Y-55029392D01*
X90683148Y-54770023D01*
X92665000Y-54770023D01*
X92665000Y-55229977D01*
X92754733Y-55681094D01*
X92930750Y-56106037D01*
X93186287Y-56488476D01*
X93511524Y-56813713D01*
X93893963Y-57069250D01*
X94318906Y-57245267D01*
X94770023Y-57335000D01*
X95229977Y-57335000D01*
X95681094Y-57245267D01*
X96106037Y-57069250D01*
X96488476Y-56813713D01*
X96813713Y-56488476D01*
X97069250Y-56106037D01*
X97245267Y-55681094D01*
X97335000Y-55229977D01*
X97335000Y-54770023D01*
X97245267Y-54318906D01*
X97069250Y-53893963D01*
X96973058Y-53750000D01*
X127731928Y-53750000D01*
X127731928Y-56250000D01*
X127744188Y-56374482D01*
X127780498Y-56494180D01*
X127839463Y-56604494D01*
X127918815Y-56701185D01*
X128015506Y-56780537D01*
X128125820Y-56839502D01*
X128245518Y-56875812D01*
X128370000Y-56888072D01*
X130870000Y-56888072D01*
X130994482Y-56875812D01*
X131114180Y-56839502D01*
X131224494Y-56780537D01*
X131321185Y-56701185D01*
X131400537Y-56604494D01*
X131459502Y-56494180D01*
X131495812Y-56374482D01*
X131508072Y-56250000D01*
X131508072Y-54814344D01*
X132735000Y-54814344D01*
X132735000Y-55185656D01*
X132807439Y-55549834D01*
X132949534Y-55892882D01*
X133155825Y-56201618D01*
X133418382Y-56464175D01*
X133727118Y-56670466D01*
X134070166Y-56812561D01*
X134434344Y-56885000D01*
X134805656Y-56885000D01*
X135169834Y-56812561D01*
X135512882Y-56670466D01*
X135821618Y-56464175D01*
X136084175Y-56201618D01*
X136290466Y-55892882D01*
X136432561Y-55549834D01*
X136441561Y-55504587D01*
X200954192Y-55504587D01*
X201910000Y-56460395D01*
X202865808Y-55504587D01*
X202770044Y-55240186D01*
X202480429Y-55099296D01*
X202168892Y-55017616D01*
X201847405Y-54998282D01*
X201528325Y-55042039D01*
X201223912Y-55147205D01*
X201049956Y-55240186D01*
X200954192Y-55504587D01*
X136441561Y-55504587D01*
X136505000Y-55185656D01*
X136505000Y-54814344D01*
X136432561Y-54450166D01*
X136290466Y-54107118D01*
X136084175Y-53798382D01*
X135821618Y-53535825D01*
X135820373Y-53534993D01*
X142986612Y-53534993D01*
X143052137Y-53773860D01*
X143299116Y-53889760D01*
X143563960Y-53955250D01*
X143836492Y-53967812D01*
X144106238Y-53926965D01*
X144362832Y-53834277D01*
X144475863Y-53773860D01*
X144541388Y-53534993D01*
X143764000Y-52757605D01*
X142986612Y-53534993D01*
X135820373Y-53534993D01*
X135512882Y-53329534D01*
X135169834Y-53187439D01*
X134805656Y-53115000D01*
X134434344Y-53115000D01*
X134070166Y-53187439D01*
X133727118Y-53329534D01*
X133418382Y-53535825D01*
X133155825Y-53798382D01*
X132949534Y-54107118D01*
X132807439Y-54450166D01*
X132735000Y-54814344D01*
X131508072Y-54814344D01*
X131508072Y-53750000D01*
X131495812Y-53625518D01*
X131459502Y-53505820D01*
X131400537Y-53395506D01*
X131321185Y-53298815D01*
X131224494Y-53219463D01*
X131114180Y-53160498D01*
X130994482Y-53124188D01*
X130870000Y-53111928D01*
X128370000Y-53111928D01*
X128245518Y-53124188D01*
X128125820Y-53160498D01*
X128015506Y-53219463D01*
X127918815Y-53298815D01*
X127839463Y-53395506D01*
X127780498Y-53505820D01*
X127744188Y-53625518D01*
X127731928Y-53750000D01*
X96973058Y-53750000D01*
X96813713Y-53511524D01*
X96488476Y-53186287D01*
X96106037Y-52930750D01*
X95681094Y-52754733D01*
X95229977Y-52665000D01*
X94770023Y-52665000D01*
X94318906Y-52754733D01*
X93893963Y-52930750D01*
X93511524Y-53186287D01*
X93186287Y-53511524D01*
X92930750Y-53893963D01*
X92754733Y-54318906D01*
X92665000Y-54770023D01*
X90683148Y-54770023D01*
X90731173Y-54231917D01*
X90934656Y-53488109D01*
X91266638Y-52792095D01*
X91368390Y-52650492D01*
X142374188Y-52650492D01*
X142415035Y-52920238D01*
X142507723Y-53176832D01*
X142568140Y-53289863D01*
X142807007Y-53355388D01*
X143584395Y-52578000D01*
X143943605Y-52578000D01*
X144720993Y-53355388D01*
X144959860Y-53289863D01*
X145034164Y-53131523D01*
X145076629Y-53234043D01*
X145228201Y-53460886D01*
X145421114Y-53653799D01*
X145647957Y-53805371D01*
X145900011Y-53909775D01*
X146167589Y-53963000D01*
X146440411Y-53963000D01*
X146707989Y-53909775D01*
X146960043Y-53805371D01*
X147186886Y-53653799D01*
X147379799Y-53460886D01*
X147531371Y-53234043D01*
X147574000Y-53131127D01*
X147616629Y-53234043D01*
X147768201Y-53460886D01*
X147961114Y-53653799D01*
X148187957Y-53805371D01*
X148440011Y-53909775D01*
X148707589Y-53963000D01*
X148980411Y-53963000D01*
X149247989Y-53909775D01*
X149500043Y-53805371D01*
X149726886Y-53653799D01*
X149919799Y-53460886D01*
X150071371Y-53234043D01*
X150114000Y-53131127D01*
X150156629Y-53234043D01*
X150308201Y-53460886D01*
X150501114Y-53653799D01*
X150727957Y-53805371D01*
X150980011Y-53909775D01*
X151247589Y-53963000D01*
X151520411Y-53963000D01*
X151787989Y-53909775D01*
X152040043Y-53805371D01*
X152266886Y-53653799D01*
X152459799Y-53460886D01*
X152548590Y-53328000D01*
X155075928Y-53328000D01*
X155088188Y-53452482D01*
X155124498Y-53572180D01*
X155183463Y-53682494D01*
X155262815Y-53779185D01*
X155359506Y-53858537D01*
X155469820Y-53917502D01*
X155589518Y-53953812D01*
X155714000Y-53966072D01*
X156178250Y-53963000D01*
X156337000Y-53804250D01*
X156337000Y-52705000D01*
X156591000Y-52705000D01*
X156591000Y-53804250D01*
X156749750Y-53963000D01*
X157214000Y-53966072D01*
X157338482Y-53953812D01*
X157387419Y-53938967D01*
X202815000Y-53938967D01*
X202815000Y-54261033D01*
X202877832Y-54576912D01*
X203001082Y-54874463D01*
X203180013Y-55142252D01*
X203407748Y-55369987D01*
X203675537Y-55548918D01*
X203973088Y-55672168D01*
X204288967Y-55735000D01*
X204611033Y-55735000D01*
X204926912Y-55672168D01*
X205224463Y-55548918D01*
X205492252Y-55369987D01*
X205719987Y-55142252D01*
X205898918Y-54874463D01*
X205942178Y-54770023D01*
X212665000Y-54770023D01*
X212665000Y-55229977D01*
X212754733Y-55681094D01*
X212930750Y-56106037D01*
X213186287Y-56488476D01*
X213511524Y-56813713D01*
X213893963Y-57069250D01*
X214318906Y-57245267D01*
X214770023Y-57335000D01*
X215229977Y-57335000D01*
X215681094Y-57245267D01*
X216106037Y-57069250D01*
X216488476Y-56813713D01*
X216813713Y-56488476D01*
X217069250Y-56106037D01*
X217245267Y-55681094D01*
X217335000Y-55229977D01*
X217335000Y-54770023D01*
X217245267Y-54318906D01*
X217069250Y-53893963D01*
X216813713Y-53511524D01*
X216488476Y-53186287D01*
X216106037Y-52930750D01*
X215681094Y-52754733D01*
X215229977Y-52665000D01*
X214770023Y-52665000D01*
X214318906Y-52754733D01*
X213893963Y-52930750D01*
X213511524Y-53186287D01*
X213186287Y-53511524D01*
X212930750Y-53893963D01*
X212754733Y-54318906D01*
X212665000Y-54770023D01*
X205942178Y-54770023D01*
X206022168Y-54576912D01*
X206085000Y-54261033D01*
X206085000Y-53938967D01*
X206022168Y-53623088D01*
X205898918Y-53325537D01*
X205719987Y-53057748D01*
X205492252Y-52830013D01*
X205224463Y-52651082D01*
X204926912Y-52527832D01*
X204611033Y-52465000D01*
X204288967Y-52465000D01*
X203973088Y-52527832D01*
X203675537Y-52651082D01*
X203407748Y-52830013D01*
X203180013Y-53057748D01*
X203001082Y-53325537D01*
X202877832Y-53623088D01*
X202815000Y-53938967D01*
X157387419Y-53938967D01*
X157458180Y-53917502D01*
X157568494Y-53858537D01*
X157665185Y-53779185D01*
X157744537Y-53682494D01*
X157803502Y-53572180D01*
X157839812Y-53452482D01*
X157852072Y-53328000D01*
X157849000Y-52863750D01*
X157690250Y-52705000D01*
X156591000Y-52705000D01*
X156337000Y-52705000D01*
X155237750Y-52705000D01*
X155079000Y-52863750D01*
X155075928Y-53328000D01*
X152548590Y-53328000D01*
X152611371Y-53234043D01*
X152715775Y-52981989D01*
X152769000Y-52714411D01*
X152769000Y-52441589D01*
X152715775Y-52174011D01*
X152611371Y-51921957D01*
X152548591Y-51828000D01*
X155075928Y-51828000D01*
X155079000Y-52292250D01*
X155237750Y-52451000D01*
X156337000Y-52451000D01*
X156337000Y-51351750D01*
X156591000Y-51351750D01*
X156591000Y-52451000D01*
X157690250Y-52451000D01*
X157849000Y-52292250D01*
X157852072Y-51828000D01*
X157839812Y-51703518D01*
X157803502Y-51583820D01*
X157744537Y-51473506D01*
X157665185Y-51376815D01*
X157568494Y-51297463D01*
X157458180Y-51238498D01*
X157338482Y-51202188D01*
X157214000Y-51189928D01*
X156749750Y-51193000D01*
X156591000Y-51351750D01*
X156337000Y-51351750D01*
X156178250Y-51193000D01*
X155714000Y-51189928D01*
X155589518Y-51202188D01*
X155469820Y-51238498D01*
X155359506Y-51297463D01*
X155262815Y-51376815D01*
X155183463Y-51473506D01*
X155124498Y-51583820D01*
X155088188Y-51703518D01*
X155075928Y-51828000D01*
X152548591Y-51828000D01*
X152459799Y-51695114D01*
X152266886Y-51502201D01*
X152040043Y-51350629D01*
X151787989Y-51246225D01*
X151520411Y-51193000D01*
X151247589Y-51193000D01*
X150980011Y-51246225D01*
X150727957Y-51350629D01*
X150501114Y-51502201D01*
X150308201Y-51695114D01*
X150156629Y-51921957D01*
X150114000Y-52024873D01*
X150071371Y-51921957D01*
X149919799Y-51695114D01*
X149726886Y-51502201D01*
X149500043Y-51350629D01*
X149247989Y-51246225D01*
X148980411Y-51193000D01*
X148707589Y-51193000D01*
X148440011Y-51246225D01*
X148187957Y-51350629D01*
X147961114Y-51502201D01*
X147768201Y-51695114D01*
X147616629Y-51921957D01*
X147574000Y-52024873D01*
X147531371Y-51921957D01*
X147379799Y-51695114D01*
X147186886Y-51502201D01*
X146960043Y-51350629D01*
X146707989Y-51246225D01*
X146440411Y-51193000D01*
X146167589Y-51193000D01*
X145900011Y-51246225D01*
X145647957Y-51350629D01*
X145421114Y-51502201D01*
X145228201Y-51695114D01*
X145076629Y-51921957D01*
X145035489Y-52021279D01*
X145020277Y-51979168D01*
X144959860Y-51866137D01*
X144720993Y-51800612D01*
X143943605Y-52578000D01*
X143584395Y-52578000D01*
X142807007Y-51800612D01*
X142568140Y-51866137D01*
X142452240Y-52113116D01*
X142386750Y-52377960D01*
X142374188Y-52650492D01*
X91368390Y-52650492D01*
X91716626Y-52165870D01*
X92270403Y-51629223D01*
X92282629Y-51621007D01*
X142986612Y-51621007D01*
X143764000Y-52398395D01*
X144541388Y-51621007D01*
X144475863Y-51382140D01*
X144228884Y-51266240D01*
X143964040Y-51200750D01*
X143691508Y-51188188D01*
X143421762Y-51229035D01*
X143165168Y-51321723D01*
X143052137Y-51382140D01*
X142986612Y-51621007D01*
X92282629Y-51621007D01*
X92910451Y-51199129D01*
X93616553Y-50889171D01*
X94371457Y-50707935D01*
X95024207Y-50660000D01*
X214970608Y-50660000D01*
X215768083Y-50731173D01*
G04 #@! TA.AperFunction,Conductor*
D22*
G36*
X215768083Y-50731173D02*
G01*
X216511891Y-50934656D01*
X217207905Y-51266638D01*
X217834130Y-51716626D01*
X218370777Y-52270403D01*
X218800871Y-52910451D01*
X219110829Y-53616553D01*
X219292065Y-54371457D01*
X219340000Y-55024207D01*
X219340001Y-114970597D01*
X219268827Y-115768083D01*
X219065344Y-116511890D01*
X218733363Y-117207904D01*
X218283374Y-117834130D01*
X217729597Y-118370777D01*
X217089549Y-118800871D01*
X216383447Y-119110829D01*
X215628543Y-119292065D01*
X214975793Y-119340000D01*
X95029392Y-119340000D01*
X94231917Y-119268827D01*
X93488110Y-119065344D01*
X92792096Y-118733363D01*
X92165870Y-118283374D01*
X91629223Y-117729597D01*
X91199129Y-117089549D01*
X90889171Y-116383447D01*
X90707935Y-115628543D01*
X90660000Y-114975793D01*
X90660000Y-112961229D01*
X94815000Y-112961229D01*
X94815000Y-113578771D01*
X94935476Y-114184446D01*
X95171799Y-114754979D01*
X95514886Y-115268446D01*
X95951554Y-115705114D01*
X96465021Y-116048201D01*
X97035554Y-116284524D01*
X97641229Y-116405000D01*
X98258771Y-116405000D01*
X98864446Y-116284524D01*
X99434979Y-116048201D01*
X99948446Y-115705114D01*
X100385114Y-115268446D01*
X100718148Y-114770023D01*
X109665000Y-114770023D01*
X109665000Y-115229977D01*
X109754733Y-115681094D01*
X109930750Y-116106037D01*
X110186287Y-116488476D01*
X110511524Y-116813713D01*
X110893963Y-117069250D01*
X111318906Y-117245267D01*
X111770023Y-117335000D01*
X112229977Y-117335000D01*
X112681094Y-117245267D01*
X113106037Y-117069250D01*
X113488476Y-116813713D01*
X113813713Y-116488476D01*
X114069250Y-116106037D01*
X114245267Y-115681094D01*
X114335000Y-115229977D01*
X114335000Y-114770023D01*
X114245267Y-114318906D01*
X114069250Y-113893963D01*
X113813713Y-113511524D01*
X113488476Y-113186287D01*
X113151653Y-112961229D01*
X188915000Y-112961229D01*
X188915000Y-113578771D01*
X189035476Y-114184446D01*
X189271799Y-114754979D01*
X189614886Y-115268446D01*
X190051554Y-115705114D01*
X190565021Y-116048201D01*
X191135554Y-116284524D01*
X191741229Y-116405000D01*
X192358771Y-116405000D01*
X192964446Y-116284524D01*
X193534979Y-116048201D01*
X194048446Y-115705114D01*
X194485114Y-115268446D01*
X194828201Y-114754979D01*
X195064524Y-114184446D01*
X195162863Y-113690061D01*
X200895000Y-113690061D01*
X200895000Y-113893939D01*
X200934774Y-114093898D01*
X201012795Y-114282256D01*
X201126063Y-114451774D01*
X201270226Y-114595937D01*
X201439744Y-114709205D01*
X201628102Y-114787226D01*
X201828061Y-114827000D01*
X202031939Y-114827000D01*
X202231898Y-114787226D01*
X202307136Y-114756061D01*
X206553000Y-114756061D01*
X206553000Y-114959939D01*
X206592774Y-115159898D01*
X206670795Y-115348256D01*
X206784063Y-115517774D01*
X206928226Y-115661937D01*
X207097744Y-115775205D01*
X207286102Y-115853226D01*
X207486061Y-115893000D01*
X207689939Y-115893000D01*
X207889898Y-115853226D01*
X208078256Y-115775205D01*
X208247774Y-115661937D01*
X208391937Y-115517774D01*
X208505205Y-115348256D01*
X208583226Y-115159898D01*
X208623000Y-114959939D01*
X208623000Y-114770023D01*
X212665000Y-114770023D01*
X212665000Y-115229977D01*
X212754733Y-115681094D01*
X212930750Y-116106037D01*
X213186287Y-116488476D01*
X213511524Y-116813713D01*
X213893963Y-117069250D01*
X214318906Y-117245267D01*
X214770023Y-117335000D01*
X215229977Y-117335000D01*
X215681094Y-117245267D01*
X216106037Y-117069250D01*
X216488476Y-116813713D01*
X216813713Y-116488476D01*
X217069250Y-116106037D01*
X217245267Y-115681094D01*
X217335000Y-115229977D01*
X217335000Y-114770023D01*
X217245267Y-114318906D01*
X217069250Y-113893963D01*
X216813713Y-113511524D01*
X216488476Y-113186287D01*
X216106037Y-112930750D01*
X215681094Y-112754733D01*
X215229977Y-112665000D01*
X214770023Y-112665000D01*
X214318906Y-112754733D01*
X213893963Y-112930750D01*
X213511524Y-113186287D01*
X213186287Y-113511524D01*
X212930750Y-113893963D01*
X212754733Y-114318906D01*
X212665000Y-114770023D01*
X208623000Y-114770023D01*
X208623000Y-114756061D01*
X208583226Y-114556102D01*
X208505205Y-114367744D01*
X208391937Y-114198226D01*
X208247774Y-114054063D01*
X208078256Y-113940795D01*
X207889898Y-113862774D01*
X207689939Y-113823000D01*
X207486061Y-113823000D01*
X207286102Y-113862774D01*
X207097744Y-113940795D01*
X206928226Y-114054063D01*
X206784063Y-114198226D01*
X206670795Y-114367744D01*
X206592774Y-114556102D01*
X206553000Y-114756061D01*
X202307136Y-114756061D01*
X202420256Y-114709205D01*
X202589774Y-114595937D01*
X202733937Y-114451774D01*
X202847205Y-114282256D01*
X202925226Y-114093898D01*
X202965000Y-113893939D01*
X202965000Y-113690061D01*
X202925226Y-113490102D01*
X202847205Y-113301744D01*
X202733937Y-113132226D01*
X202589774Y-112988063D01*
X202420256Y-112874795D01*
X202231898Y-112796774D01*
X202031939Y-112757000D01*
X201828061Y-112757000D01*
X201628102Y-112796774D01*
X201439744Y-112874795D01*
X201270226Y-112988063D01*
X201126063Y-113132226D01*
X201012795Y-113301744D01*
X200934774Y-113490102D01*
X200895000Y-113690061D01*
X195162863Y-113690061D01*
X195185000Y-113578771D01*
X195185000Y-112961229D01*
X195064524Y-112355554D01*
X194828201Y-111785021D01*
X194485114Y-111271554D01*
X194048446Y-110834886D01*
X193534979Y-110491799D01*
X192964446Y-110255476D01*
X192358771Y-110135000D01*
X191741229Y-110135000D01*
X191135554Y-110255476D01*
X190565021Y-110491799D01*
X190051554Y-110834886D01*
X189614886Y-111271554D01*
X189271799Y-111785021D01*
X189035476Y-112355554D01*
X188915000Y-112961229D01*
X113151653Y-112961229D01*
X113106037Y-112930750D01*
X112681094Y-112754733D01*
X112229977Y-112665000D01*
X111770023Y-112665000D01*
X111318906Y-112754733D01*
X110893963Y-112930750D01*
X110511524Y-113186287D01*
X110186287Y-113511524D01*
X109930750Y-113893963D01*
X109754733Y-114318906D01*
X109665000Y-114770023D01*
X100718148Y-114770023D01*
X100728201Y-114754979D01*
X100964524Y-114184446D01*
X101085000Y-113578771D01*
X101085000Y-112961229D01*
X100964524Y-112355554D01*
X100728201Y-111785021D01*
X100385114Y-111271554D01*
X99948446Y-110834886D01*
X99434979Y-110491799D01*
X98864446Y-110255476D01*
X98258771Y-110135000D01*
X97641229Y-110135000D01*
X97035554Y-110255476D01*
X96465021Y-110491799D01*
X95951554Y-110834886D01*
X95514886Y-111271554D01*
X95171799Y-111785021D01*
X94935476Y-112355554D01*
X94815000Y-112961229D01*
X90660000Y-112961229D01*
X90660000Y-99729040D01*
X106262170Y-99729040D01*
X106262170Y-100011480D01*
X106317271Y-100288493D01*
X106425356Y-100549433D01*
X106582271Y-100784274D01*
X106669017Y-100871020D01*
X106582271Y-100957766D01*
X106425356Y-101192607D01*
X106317271Y-101453547D01*
X106262170Y-101730560D01*
X106262170Y-102013000D01*
X106317271Y-102290013D01*
X106425356Y-102550953D01*
X106582271Y-102785794D01*
X106666477Y-102870000D01*
X106582271Y-102954206D01*
X106425356Y-103189047D01*
X106317271Y-103449987D01*
X106262170Y-103727000D01*
X106262170Y-104009440D01*
X106317271Y-104286453D01*
X106425356Y-104547393D01*
X106582271Y-104782234D01*
X106669017Y-104868980D01*
X106582271Y-104955726D01*
X106425356Y-105190567D01*
X106317271Y-105451507D01*
X106262170Y-105728520D01*
X106262170Y-106010960D01*
X106317271Y-106287973D01*
X106425356Y-106548913D01*
X106582271Y-106783754D01*
X106781986Y-106983469D01*
X107016827Y-107140384D01*
X107277767Y-107248469D01*
X107554780Y-107303570D01*
X107837220Y-107303570D01*
X108114233Y-107248469D01*
X108375173Y-107140384D01*
X108578180Y-107004740D01*
X110006780Y-107004740D01*
X112350184Y-109348146D01*
X112385722Y-109391449D01*
X112429025Y-109426987D01*
X112429027Y-109426989D01*
X112558548Y-109533284D01*
X112755724Y-109638676D01*
X112969672Y-109703577D01*
X113192171Y-109725491D01*
X113247923Y-109720000D01*
X172537249Y-109720000D01*
X172593000Y-109725491D01*
X172648751Y-109720000D01*
X172648752Y-109720000D01*
X172815499Y-109703577D01*
X173029447Y-109638676D01*
X173226623Y-109533284D01*
X173399449Y-109391449D01*
X173434996Y-109348135D01*
X175769141Y-107013991D01*
X175812449Y-106978449D01*
X175954284Y-106805623D01*
X176059676Y-106608447D01*
X176124577Y-106394499D01*
X176141000Y-106227752D01*
X176141000Y-106227743D01*
X176146490Y-106172001D01*
X176141000Y-106116259D01*
X176141000Y-99299131D01*
X180485756Y-94954375D01*
X187337000Y-94954375D01*
X187337000Y-95567624D01*
X187357214Y-95772859D01*
X187437096Y-96036194D01*
X187566817Y-96278886D01*
X187741392Y-96491607D01*
X187954113Y-96666183D01*
X188196805Y-96795904D01*
X188460140Y-96875786D01*
X188734000Y-96902759D01*
X189007859Y-96875786D01*
X189271194Y-96795904D01*
X189513886Y-96666183D01*
X189726607Y-96491608D01*
X189901183Y-96278887D01*
X190004000Y-96086529D01*
X190106817Y-96278886D01*
X190281392Y-96491607D01*
X190494113Y-96666183D01*
X190736805Y-96795904D01*
X191000140Y-96875786D01*
X191274000Y-96902759D01*
X191547859Y-96875786D01*
X191811194Y-96795904D01*
X192053886Y-96666183D01*
X192266607Y-96491608D01*
X192441183Y-96278887D01*
X192544000Y-96086529D01*
X192646817Y-96278886D01*
X192821392Y-96491607D01*
X193034113Y-96666183D01*
X193276805Y-96795904D01*
X193540140Y-96875786D01*
X193814000Y-96902759D01*
X194087859Y-96875786D01*
X194351194Y-96795904D01*
X194593886Y-96666183D01*
X194806607Y-96491608D01*
X194981183Y-96278887D01*
X195084000Y-96086529D01*
X195186817Y-96278886D01*
X195361392Y-96491607D01*
X195574113Y-96666183D01*
X195816805Y-96795904D01*
X196080140Y-96875786D01*
X196354000Y-96902759D01*
X196627859Y-96875786D01*
X196891194Y-96795904D01*
X197133886Y-96666183D01*
X197346607Y-96491608D01*
X197521183Y-96278887D01*
X197624000Y-96086529D01*
X197726817Y-96278886D01*
X197901392Y-96491607D01*
X198114113Y-96666183D01*
X198356805Y-96795904D01*
X198620140Y-96875786D01*
X198894000Y-96902759D01*
X199167859Y-96875786D01*
X199431194Y-96795904D01*
X199673886Y-96666183D01*
X199886607Y-96491608D01*
X200061183Y-96278887D01*
X200164000Y-96086529D01*
X200266817Y-96278886D01*
X200441392Y-96491607D01*
X200654113Y-96666183D01*
X200896805Y-96795904D01*
X201160140Y-96875786D01*
X201434000Y-96902759D01*
X201707859Y-96875786D01*
X201971194Y-96795904D01*
X202213886Y-96666183D01*
X202426607Y-96491608D01*
X202601183Y-96278887D01*
X202704000Y-96086529D01*
X202806817Y-96278886D01*
X202981392Y-96491607D01*
X203194113Y-96666183D01*
X203436805Y-96795904D01*
X203700140Y-96875786D01*
X203974000Y-96902759D01*
X204247859Y-96875786D01*
X204511194Y-96795904D01*
X204753886Y-96666183D01*
X204966607Y-96491608D01*
X205141183Y-96278887D01*
X205244000Y-96086529D01*
X205346817Y-96278886D01*
X205521392Y-96491607D01*
X205734113Y-96666183D01*
X205976805Y-96795904D01*
X206240140Y-96875786D01*
X206514000Y-96902759D01*
X206787859Y-96875786D01*
X207051194Y-96795904D01*
X207293886Y-96666183D01*
X207506607Y-96491608D01*
X207681183Y-96278887D01*
X207784000Y-96086529D01*
X207886817Y-96278886D01*
X208061392Y-96491607D01*
X208274113Y-96666183D01*
X208516805Y-96795904D01*
X208780140Y-96875786D01*
X209054000Y-96902759D01*
X209327859Y-96875786D01*
X209591194Y-96795904D01*
X209833886Y-96666183D01*
X210046607Y-96491608D01*
X210221183Y-96278887D01*
X210324000Y-96086529D01*
X210426817Y-96278886D01*
X210601392Y-96491607D01*
X210814113Y-96666183D01*
X211056805Y-96795904D01*
X211320140Y-96875786D01*
X211594000Y-96902759D01*
X211867859Y-96875786D01*
X212131194Y-96795904D01*
X212373886Y-96666183D01*
X212586607Y-96491608D01*
X212761183Y-96278887D01*
X212890904Y-96036195D01*
X212970786Y-95772860D01*
X212991000Y-95567625D01*
X212991000Y-94954376D01*
X212970786Y-94749141D01*
X212890904Y-94485806D01*
X212761183Y-94243113D01*
X212586608Y-94030392D01*
X212373887Y-93855817D01*
X212131195Y-93726096D01*
X211867860Y-93646214D01*
X211594000Y-93619241D01*
X211320141Y-93646214D01*
X211056806Y-93726096D01*
X210814114Y-93855817D01*
X210601393Y-94030392D01*
X210426817Y-94243113D01*
X210324000Y-94435471D01*
X210221183Y-94243113D01*
X210046608Y-94030392D01*
X209833887Y-93855817D01*
X209591195Y-93726096D01*
X209327860Y-93646214D01*
X209054000Y-93619241D01*
X208780141Y-93646214D01*
X208516806Y-93726096D01*
X208274114Y-93855817D01*
X208061393Y-94030392D01*
X207886817Y-94243113D01*
X207784000Y-94435471D01*
X207681183Y-94243113D01*
X207506608Y-94030392D01*
X207293887Y-93855817D01*
X207051195Y-93726096D01*
X206787860Y-93646214D01*
X206514000Y-93619241D01*
X206240141Y-93646214D01*
X205976806Y-93726096D01*
X205734114Y-93855817D01*
X205521393Y-94030392D01*
X205346817Y-94243113D01*
X205244000Y-94435471D01*
X205141183Y-94243113D01*
X204966608Y-94030392D01*
X204753887Y-93855817D01*
X204511195Y-93726096D01*
X204247860Y-93646214D01*
X203974000Y-93619241D01*
X203700141Y-93646214D01*
X203436806Y-93726096D01*
X203194114Y-93855817D01*
X202981393Y-94030392D01*
X202806817Y-94243113D01*
X202704000Y-94435471D01*
X202601183Y-94243113D01*
X202426608Y-94030392D01*
X202213887Y-93855817D01*
X201971195Y-93726096D01*
X201707860Y-93646214D01*
X201434000Y-93619241D01*
X201160141Y-93646214D01*
X200896806Y-93726096D01*
X200654114Y-93855817D01*
X200441393Y-94030392D01*
X200266817Y-94243113D01*
X200164000Y-94435471D01*
X200061183Y-94243113D01*
X199886608Y-94030392D01*
X199673887Y-93855817D01*
X199431195Y-93726096D01*
X199167860Y-93646214D01*
X198894000Y-93619241D01*
X198620141Y-93646214D01*
X198356806Y-93726096D01*
X198114114Y-93855817D01*
X197901393Y-94030392D01*
X197726817Y-94243113D01*
X197624000Y-94435471D01*
X197521183Y-94243113D01*
X197346608Y-94030392D01*
X197133887Y-93855817D01*
X196891195Y-93726096D01*
X196627860Y-93646214D01*
X196354000Y-93619241D01*
X196080141Y-93646214D01*
X195816806Y-93726096D01*
X195574114Y-93855817D01*
X195361393Y-94030392D01*
X195186817Y-94243113D01*
X195084000Y-94435471D01*
X194981183Y-94243113D01*
X194806608Y-94030392D01*
X194593887Y-93855817D01*
X194351195Y-93726096D01*
X194087860Y-93646214D01*
X193814000Y-93619241D01*
X193540141Y-93646214D01*
X193276806Y-93726096D01*
X193034114Y-93855817D01*
X192821393Y-94030392D01*
X192646817Y-94243113D01*
X192544000Y-94435471D01*
X192441183Y-94243113D01*
X192266608Y-94030392D01*
X192053887Y-93855817D01*
X191811195Y-93726096D01*
X191547860Y-93646214D01*
X191274000Y-93619241D01*
X191000141Y-93646214D01*
X190736806Y-93726096D01*
X190494114Y-93855817D01*
X190281393Y-94030392D01*
X190106817Y-94243113D01*
X190004000Y-94435471D01*
X189901183Y-94243113D01*
X189726608Y-94030392D01*
X189513887Y-93855817D01*
X189271195Y-93726096D01*
X189007860Y-93646214D01*
X188734000Y-93619241D01*
X188460141Y-93646214D01*
X188196806Y-93726096D01*
X187954114Y-93855817D01*
X187741393Y-94030392D01*
X187566817Y-94243113D01*
X187437096Y-94485805D01*
X187357214Y-94749140D01*
X187337000Y-94954375D01*
X180485756Y-94954375D01*
X192611067Y-82829065D01*
X196576996Y-82829065D01*
X196576996Y-83032943D01*
X196616770Y-83232902D01*
X196694791Y-83421260D01*
X196808059Y-83590778D01*
X196952222Y-83734941D01*
X197121740Y-83848209D01*
X197310098Y-83926230D01*
X197510057Y-83966004D01*
X197713935Y-83966004D01*
X197913894Y-83926230D01*
X198102252Y-83848209D01*
X198271770Y-83734941D01*
X198415933Y-83590778D01*
X198529201Y-83421260D01*
X198607222Y-83232902D01*
X198646996Y-83032943D01*
X198646996Y-82829065D01*
X198646996Y-82829061D01*
X199117000Y-82829061D01*
X199117000Y-83032939D01*
X199156774Y-83232898D01*
X199234795Y-83421256D01*
X199348063Y-83590774D01*
X199492226Y-83734937D01*
X199661744Y-83848205D01*
X199850102Y-83926226D01*
X200050061Y-83966000D01*
X200253939Y-83966000D01*
X200453898Y-83926226D01*
X200642256Y-83848205D01*
X200811774Y-83734937D01*
X200955937Y-83590774D01*
X201069205Y-83421256D01*
X201147226Y-83232898D01*
X201187000Y-83032939D01*
X201187000Y-82829061D01*
X201147226Y-82629102D01*
X201069205Y-82440744D01*
X200955937Y-82271226D01*
X200811774Y-82127063D01*
X200642256Y-82013795D01*
X200453898Y-81935774D01*
X200253939Y-81896000D01*
X200050061Y-81896000D01*
X199850102Y-81935774D01*
X199661744Y-82013795D01*
X199492226Y-82127063D01*
X199348063Y-82271226D01*
X199234795Y-82440744D01*
X199156774Y-82629102D01*
X199117000Y-82829061D01*
X198646996Y-82829061D01*
X198607222Y-82629106D01*
X198529201Y-82440748D01*
X198415933Y-82271230D01*
X198271770Y-82127067D01*
X198102252Y-82013799D01*
X197913894Y-81935778D01*
X197713935Y-81896004D01*
X197510057Y-81896004D01*
X197310098Y-81935778D01*
X197121740Y-82013799D01*
X196952222Y-82127067D01*
X196808059Y-82271230D01*
X196694791Y-82440748D01*
X196616770Y-82629106D01*
X196576996Y-82829065D01*
X192611067Y-82829065D01*
X193780658Y-81659475D01*
X193814000Y-81662759D01*
X194087859Y-81635786D01*
X194351194Y-81555904D01*
X194593886Y-81426183D01*
X194806607Y-81251608D01*
X194981183Y-81038887D01*
X195082198Y-80849901D01*
X195100574Y-80896917D01*
X195249110Y-81129191D01*
X195440106Y-81328024D01*
X195666222Y-81485775D01*
X195918769Y-81596382D01*
X196010930Y-81613220D01*
X196227000Y-81490720D01*
X196227000Y-80148000D01*
X196207000Y-80148000D01*
X196207000Y-79894000D01*
X196227000Y-79894000D01*
X196227000Y-78551280D01*
X196481000Y-78551280D01*
X196481000Y-79894000D01*
X196501000Y-79894000D01*
X196501000Y-80148000D01*
X196481000Y-80148000D01*
X196481000Y-81490720D01*
X196697070Y-81613220D01*
X196789231Y-81596382D01*
X197041778Y-81485775D01*
X197267894Y-81328024D01*
X197458890Y-81129191D01*
X197607426Y-80896917D01*
X197625803Y-80849900D01*
X197726817Y-81038886D01*
X197901392Y-81251607D01*
X198114113Y-81426183D01*
X198356805Y-81555904D01*
X198620140Y-81635786D01*
X198894000Y-81662759D01*
X199167859Y-81635786D01*
X199431194Y-81555904D01*
X199673886Y-81426183D01*
X199886607Y-81251608D01*
X200061183Y-81038887D01*
X200164000Y-80846529D01*
X200266817Y-81038886D01*
X200441392Y-81251607D01*
X200654113Y-81426183D01*
X200896805Y-81555904D01*
X201160140Y-81635786D01*
X201434000Y-81662759D01*
X201707859Y-81635786D01*
X201971194Y-81555904D01*
X202213886Y-81426183D01*
X202426607Y-81251608D01*
X202601183Y-81038887D01*
X202704000Y-80846529D01*
X202806817Y-81038886D01*
X202981392Y-81251607D01*
X203194113Y-81426183D01*
X203436805Y-81555904D01*
X203700140Y-81635786D01*
X203974000Y-81662759D01*
X204247859Y-81635786D01*
X204511194Y-81555904D01*
X204753886Y-81426183D01*
X204966607Y-81251608D01*
X205141183Y-81038887D01*
X205244000Y-80846529D01*
X205346817Y-81038886D01*
X205521392Y-81251607D01*
X205734113Y-81426183D01*
X205976805Y-81555904D01*
X206240140Y-81635786D01*
X206514000Y-81662759D01*
X206787859Y-81635786D01*
X207051194Y-81555904D01*
X207293886Y-81426183D01*
X207506607Y-81251608D01*
X207681183Y-81038887D01*
X207784000Y-80846529D01*
X207886817Y-81038886D01*
X208061392Y-81251607D01*
X208274113Y-81426183D01*
X208516805Y-81555904D01*
X208780140Y-81635786D01*
X209054000Y-81662759D01*
X209327859Y-81635786D01*
X209591194Y-81555904D01*
X209833886Y-81426183D01*
X210046607Y-81251608D01*
X210221183Y-81038887D01*
X210324000Y-80846529D01*
X210426817Y-81038886D01*
X210601392Y-81251607D01*
X210814113Y-81426183D01*
X211056805Y-81555904D01*
X211320140Y-81635786D01*
X211594000Y-81662759D01*
X211867859Y-81635786D01*
X212131194Y-81555904D01*
X212373886Y-81426183D01*
X212586607Y-81251608D01*
X212761183Y-81038887D01*
X212890904Y-80796195D01*
X212970786Y-80532860D01*
X212991000Y-80327625D01*
X212991000Y-79714376D01*
X212970786Y-79509141D01*
X212890904Y-79245806D01*
X212761183Y-79003113D01*
X212586608Y-78790392D01*
X212373887Y-78615817D01*
X212131195Y-78486096D01*
X211867860Y-78406214D01*
X211594000Y-78379241D01*
X211320141Y-78406214D01*
X211056806Y-78486096D01*
X210814114Y-78615817D01*
X210601393Y-78790392D01*
X210426817Y-79003113D01*
X210324000Y-79195471D01*
X210221183Y-79003113D01*
X210046608Y-78790392D01*
X209833887Y-78615817D01*
X209591195Y-78486096D01*
X209327860Y-78406214D01*
X209054000Y-78379241D01*
X208780141Y-78406214D01*
X208516806Y-78486096D01*
X208274114Y-78615817D01*
X208061393Y-78790392D01*
X207886817Y-79003113D01*
X207784000Y-79195471D01*
X207681183Y-79003113D01*
X207506608Y-78790392D01*
X207293887Y-78615817D01*
X207051195Y-78486096D01*
X206787860Y-78406214D01*
X206514000Y-78379241D01*
X206240141Y-78406214D01*
X205976806Y-78486096D01*
X205734114Y-78615817D01*
X205521393Y-78790392D01*
X205346817Y-79003113D01*
X205244000Y-79195471D01*
X205141183Y-79003113D01*
X204966608Y-78790392D01*
X204753887Y-78615817D01*
X204511195Y-78486096D01*
X204247860Y-78406214D01*
X203974000Y-78379241D01*
X203700141Y-78406214D01*
X203436806Y-78486096D01*
X203194114Y-78615817D01*
X202981393Y-78790392D01*
X202806817Y-79003113D01*
X202704000Y-79195471D01*
X202601183Y-79003113D01*
X202426608Y-78790392D01*
X202213887Y-78615817D01*
X201971195Y-78486096D01*
X201707860Y-78406214D01*
X201434000Y-78379241D01*
X201160141Y-78406214D01*
X200896806Y-78486096D01*
X200654114Y-78615817D01*
X200441393Y-78790392D01*
X200266817Y-79003113D01*
X200164000Y-79195471D01*
X200061183Y-79003113D01*
X199886608Y-78790392D01*
X199673887Y-78615817D01*
X199431195Y-78486096D01*
X199167860Y-78406214D01*
X198894000Y-78379241D01*
X198620141Y-78406214D01*
X198356806Y-78486096D01*
X198114114Y-78615817D01*
X197901393Y-78790392D01*
X197726817Y-79003113D01*
X197625802Y-79192099D01*
X197607426Y-79145083D01*
X197458890Y-78912809D01*
X197267894Y-78713976D01*
X197041778Y-78556225D01*
X196789231Y-78445618D01*
X196697070Y-78428780D01*
X196481000Y-78551280D01*
X196227000Y-78551280D01*
X196010930Y-78428780D01*
X195918769Y-78445618D01*
X195666222Y-78556225D01*
X195440106Y-78713976D01*
X195249110Y-78912809D01*
X195100574Y-79145083D01*
X195082197Y-79192099D01*
X194981183Y-79003113D01*
X194806608Y-78790392D01*
X194593887Y-78615817D01*
X194351195Y-78486096D01*
X194087860Y-78406214D01*
X193814000Y-78379241D01*
X193540141Y-78406214D01*
X193276806Y-78486096D01*
X193034114Y-78615817D01*
X192821393Y-78790392D01*
X192646817Y-79003113D01*
X192544000Y-79195471D01*
X192441183Y-79003113D01*
X192266608Y-78790392D01*
X192053887Y-78615817D01*
X191811195Y-78486096D01*
X191547860Y-78406214D01*
X191274000Y-78379241D01*
X191000141Y-78406214D01*
X190736806Y-78486096D01*
X190494114Y-78615817D01*
X190281393Y-78790392D01*
X190106817Y-79003113D01*
X190004000Y-79195471D01*
X189901183Y-79003113D01*
X189726608Y-78790392D01*
X189513887Y-78615817D01*
X189271195Y-78486096D01*
X189007860Y-78406214D01*
X188734000Y-78379241D01*
X188460141Y-78406214D01*
X188196806Y-78486096D01*
X187954114Y-78615817D01*
X187741393Y-78790392D01*
X187566817Y-79003113D01*
X187437096Y-79245805D01*
X187357214Y-79509140D01*
X187337000Y-79714375D01*
X187337000Y-80327624D01*
X187357214Y-80532859D01*
X187437096Y-80796194D01*
X187566817Y-81038886D01*
X187741392Y-81251607D01*
X187954113Y-81426183D01*
X188196805Y-81555904D01*
X188460140Y-81635786D01*
X188734000Y-81662759D01*
X189007859Y-81635786D01*
X189271194Y-81555904D01*
X189513886Y-81426183D01*
X189726607Y-81251608D01*
X189901183Y-81038887D01*
X190004000Y-80846529D01*
X190106817Y-81038886D01*
X190281392Y-81251607D01*
X190494113Y-81426183D01*
X190695853Y-81534015D01*
X174242865Y-97987004D01*
X174199551Y-98022551D01*
X174057716Y-98195377D01*
X173952325Y-98392553D01*
X173952324Y-98392554D01*
X173887423Y-98606502D01*
X173865509Y-98829000D01*
X173871000Y-98884752D01*
X173871001Y-105701867D01*
X173863000Y-105709868D01*
X173863000Y-102489000D01*
X173850799Y-102365118D01*
X173814664Y-102245996D01*
X173755983Y-102136213D01*
X173677013Y-102039987D01*
X173580787Y-101961017D01*
X173480000Y-101907145D01*
X173480000Y-77784801D01*
X176436740Y-74828061D01*
X199116996Y-74828061D01*
X199116996Y-75031939D01*
X199156770Y-75231898D01*
X199234791Y-75420256D01*
X199348059Y-75589774D01*
X199492222Y-75733937D01*
X199661740Y-75847205D01*
X199850098Y-75925226D01*
X200050057Y-75965000D01*
X200253935Y-75965000D01*
X200453894Y-75925226D01*
X200642252Y-75847205D01*
X200811770Y-75733937D01*
X200955933Y-75589774D01*
X201069201Y-75420256D01*
X201147222Y-75231898D01*
X201186996Y-75031939D01*
X201186996Y-74828061D01*
X201147222Y-74628102D01*
X201069201Y-74439744D01*
X200955933Y-74270226D01*
X200811770Y-74126063D01*
X200642252Y-74012795D01*
X200453894Y-73934774D01*
X200253935Y-73895000D01*
X200050057Y-73895000D01*
X199850098Y-73934774D01*
X199661740Y-74012795D01*
X199492222Y-74126063D01*
X199348059Y-74270226D01*
X199234791Y-74439744D01*
X199156770Y-74628102D01*
X199116996Y-74828061D01*
X176436740Y-74828061D01*
X181262740Y-70002061D01*
X182607000Y-70002061D01*
X182607000Y-70205939D01*
X182646774Y-70405898D01*
X182724795Y-70594256D01*
X182838063Y-70763774D01*
X182982226Y-70907937D01*
X183151744Y-71021205D01*
X183340102Y-71099226D01*
X183540061Y-71139000D01*
X183743939Y-71139000D01*
X183943898Y-71099226D01*
X184132256Y-71021205D01*
X184301774Y-70907937D01*
X184445650Y-70764061D01*
X185147000Y-70764061D01*
X185147000Y-70967939D01*
X185186774Y-71167898D01*
X185264795Y-71356256D01*
X185378063Y-71525774D01*
X185522226Y-71669937D01*
X185691744Y-71783205D01*
X185880102Y-71861226D01*
X186080061Y-71901000D01*
X186283939Y-71901000D01*
X186483898Y-71861226D01*
X186672256Y-71783205D01*
X186841774Y-71669937D01*
X186985937Y-71525774D01*
X187099205Y-71356256D01*
X187177226Y-71167898D01*
X187207030Y-71018061D01*
X196577000Y-71018061D01*
X196577000Y-71221939D01*
X196616774Y-71421898D01*
X196694795Y-71610256D01*
X196808063Y-71779774D01*
X196952226Y-71923937D01*
X197121744Y-72037205D01*
X197310102Y-72115226D01*
X197510061Y-72155000D01*
X197713939Y-72155000D01*
X197913898Y-72115226D01*
X198102256Y-72037205D01*
X198271774Y-71923937D01*
X198415937Y-71779774D01*
X198529205Y-71610256D01*
X198607226Y-71421898D01*
X198647000Y-71221939D01*
X198647000Y-71018061D01*
X198607226Y-70818102D01*
X198529205Y-70629744D01*
X198415937Y-70460226D01*
X198271774Y-70316063D01*
X198102256Y-70202795D01*
X197913898Y-70124774D01*
X197713939Y-70085000D01*
X197510061Y-70085000D01*
X197310102Y-70124774D01*
X197121744Y-70202795D01*
X196952226Y-70316063D01*
X196808063Y-70460226D01*
X196694795Y-70629744D01*
X196616774Y-70818102D01*
X196577000Y-71018061D01*
X187207030Y-71018061D01*
X187217000Y-70967939D01*
X187217000Y-70764061D01*
X187177226Y-70564102D01*
X187099205Y-70375744D01*
X186985937Y-70206226D01*
X186841774Y-70062063D01*
X186672256Y-69948795D01*
X186483898Y-69870774D01*
X186283939Y-69831000D01*
X186080061Y-69831000D01*
X185880102Y-69870774D01*
X185691744Y-69948795D01*
X185522226Y-70062063D01*
X185378063Y-70206226D01*
X185264795Y-70375744D01*
X185186774Y-70564102D01*
X185147000Y-70764061D01*
X184445650Y-70764061D01*
X184445937Y-70763774D01*
X184559205Y-70594256D01*
X184637226Y-70405898D01*
X184677000Y-70205939D01*
X184677000Y-70002061D01*
X184637226Y-69802102D01*
X184559205Y-69613744D01*
X184445937Y-69444226D01*
X184301774Y-69300063D01*
X184132256Y-69186795D01*
X183943898Y-69108774D01*
X183743939Y-69069000D01*
X183540061Y-69069000D01*
X183340102Y-69108774D01*
X183151744Y-69186795D01*
X182982226Y-69300063D01*
X182838063Y-69444226D01*
X182724795Y-69613744D01*
X182646774Y-69802102D01*
X182607000Y-70002061D01*
X181262740Y-70002061D01*
X182030802Y-69234000D01*
X182092939Y-69234000D01*
X182292898Y-69194226D01*
X182481256Y-69116205D01*
X182650774Y-69002937D01*
X182794937Y-68858774D01*
X182908205Y-68689256D01*
X182986226Y-68500898D01*
X183026000Y-68300939D01*
X183026000Y-68097061D01*
X182986226Y-67897102D01*
X182908205Y-67708744D01*
X182794937Y-67539226D01*
X182650774Y-67395063D01*
X182481256Y-67281795D01*
X182292898Y-67203774D01*
X182092939Y-67164000D01*
X181889061Y-67164000D01*
X181689102Y-67203774D01*
X181500744Y-67281795D01*
X181331226Y-67395063D01*
X181187063Y-67539226D01*
X181073795Y-67708744D01*
X180995774Y-67897102D01*
X180956000Y-68097061D01*
X180956000Y-68159198D01*
X172208998Y-76906201D01*
X172180000Y-76929999D01*
X172156202Y-76958997D01*
X172156201Y-76958998D01*
X172085026Y-77045724D01*
X172014454Y-77177754D01*
X171970998Y-77321015D01*
X171956324Y-77470000D01*
X171960001Y-77507333D01*
X171960000Y-101854000D01*
X168656000Y-101854000D01*
X168532118Y-101866201D01*
X168412996Y-101902336D01*
X168303213Y-101961017D01*
X168206987Y-102039987D01*
X168128017Y-102136213D01*
X168069336Y-102245996D01*
X168033201Y-102365118D01*
X168021000Y-102489000D01*
X168021000Y-106553000D01*
X168033201Y-106676882D01*
X168069336Y-106796004D01*
X168128017Y-106905787D01*
X168206987Y-107002013D01*
X168303213Y-107080983D01*
X168412996Y-107139664D01*
X168532118Y-107175799D01*
X168656000Y-107188000D01*
X172384869Y-107188000D01*
X172122869Y-107450000D01*
X144325145Y-107450000D01*
X144427205Y-107297256D01*
X144505226Y-107108898D01*
X144545000Y-106908939D01*
X144545000Y-106705061D01*
X144505226Y-106505102D01*
X144427205Y-106316744D01*
X144415349Y-106299000D01*
X144427205Y-106281256D01*
X144505226Y-106092898D01*
X144545000Y-105892939D01*
X144545000Y-105689061D01*
X144505226Y-105489102D01*
X144427205Y-105300744D01*
X144330490Y-105156000D01*
X144427205Y-105011256D01*
X144505226Y-104822898D01*
X144545000Y-104622939D01*
X144545000Y-104419061D01*
X144505226Y-104219102D01*
X144427205Y-104030744D01*
X144415349Y-104013000D01*
X144427205Y-103995256D01*
X144505226Y-103806898D01*
X144545000Y-103606939D01*
X144545000Y-103403061D01*
X144505226Y-103203102D01*
X144427205Y-103014744D01*
X144330490Y-102870000D01*
X144427205Y-102725256D01*
X144505226Y-102536898D01*
X144545000Y-102336939D01*
X144545000Y-102133061D01*
X144505226Y-101933102D01*
X144427205Y-101744744D01*
X144313937Y-101575226D01*
X144169774Y-101431063D01*
X144000256Y-101317795D01*
X143811898Y-101239774D01*
X143611939Y-101200000D01*
X143408061Y-101200000D01*
X143208102Y-101239774D01*
X143019744Y-101317795D01*
X142850226Y-101431063D01*
X142706063Y-101575226D01*
X142592795Y-101744744D01*
X142514774Y-101933102D01*
X142475000Y-102133061D01*
X142475000Y-102336939D01*
X142514774Y-102536898D01*
X142592795Y-102725256D01*
X142689510Y-102870000D01*
X142592795Y-103014744D01*
X142514774Y-103203102D01*
X142475000Y-103403061D01*
X142475000Y-103606939D01*
X142514774Y-103806898D01*
X142592795Y-103995256D01*
X142604651Y-104013000D01*
X142592795Y-104030744D01*
X142514774Y-104219102D01*
X142475000Y-104419061D01*
X142475000Y-104622939D01*
X142514774Y-104822898D01*
X142592795Y-105011256D01*
X142689510Y-105156000D01*
X142592795Y-105300744D01*
X142514774Y-105489102D01*
X142475000Y-105689061D01*
X142475000Y-105892939D01*
X142514774Y-106092898D01*
X142592795Y-106281256D01*
X142604651Y-106299000D01*
X142592795Y-106316744D01*
X142514774Y-106505102D01*
X142475000Y-106705061D01*
X142475000Y-106908939D01*
X142514774Y-107108898D01*
X142592795Y-107297256D01*
X142694855Y-107450000D01*
X140769145Y-107450000D01*
X140871205Y-107297256D01*
X140949226Y-107108898D01*
X140989000Y-106908939D01*
X140989000Y-106705061D01*
X140949226Y-106505102D01*
X140871205Y-106316744D01*
X140859349Y-106299000D01*
X140871205Y-106281256D01*
X140949226Y-106092898D01*
X140989000Y-105892939D01*
X140989000Y-105689061D01*
X140949226Y-105489102D01*
X140871205Y-105300744D01*
X140774490Y-105156000D01*
X140871205Y-105011256D01*
X140949226Y-104822898D01*
X140989000Y-104622939D01*
X140989000Y-104419061D01*
X140949226Y-104219102D01*
X140871205Y-104030744D01*
X140859349Y-104013000D01*
X140871205Y-103995256D01*
X140949226Y-103806898D01*
X140989000Y-103606939D01*
X140989000Y-103403061D01*
X140949226Y-103203102D01*
X140871205Y-103014744D01*
X140774490Y-102870000D01*
X140871205Y-102725256D01*
X140949226Y-102536898D01*
X140989000Y-102336939D01*
X140989000Y-102133061D01*
X140949226Y-101933102D01*
X140871205Y-101744744D01*
X140757937Y-101575226D01*
X140613774Y-101431063D01*
X140444256Y-101317795D01*
X140255898Y-101239774D01*
X140055939Y-101200000D01*
X139852061Y-101200000D01*
X139652102Y-101239774D01*
X139463744Y-101317795D01*
X139294226Y-101431063D01*
X139150063Y-101575226D01*
X139036795Y-101744744D01*
X138958774Y-101933102D01*
X138919000Y-102133061D01*
X138919000Y-102336939D01*
X138958774Y-102536898D01*
X139036795Y-102725256D01*
X139133510Y-102870000D01*
X139036795Y-103014744D01*
X138958774Y-103203102D01*
X138919000Y-103403061D01*
X138919000Y-103606939D01*
X138958774Y-103806898D01*
X139036795Y-103995256D01*
X139048651Y-104013000D01*
X139036795Y-104030744D01*
X138958774Y-104219102D01*
X138919000Y-104419061D01*
X138919000Y-104622939D01*
X138958774Y-104822898D01*
X139036795Y-105011256D01*
X139133510Y-105156000D01*
X139036795Y-105300744D01*
X138958774Y-105489102D01*
X138919000Y-105689061D01*
X138919000Y-105892939D01*
X138958774Y-106092898D01*
X139036795Y-106281256D01*
X139048651Y-106299000D01*
X139036795Y-106316744D01*
X138958774Y-106505102D01*
X138919000Y-106705061D01*
X138919000Y-106908939D01*
X138958774Y-107108898D01*
X139036795Y-107297256D01*
X139138855Y-107450000D01*
X113662304Y-107450000D01*
X111318907Y-105106605D01*
X111283360Y-105063291D01*
X111110534Y-104921456D01*
X110913358Y-104816064D01*
X110699410Y-104751163D01*
X110532663Y-104734740D01*
X110532662Y-104734740D01*
X110476911Y-104729249D01*
X110421160Y-104734740D01*
X108841463Y-104734740D01*
X108966644Y-104547393D01*
X109074729Y-104286453D01*
X109129830Y-104009440D01*
X109129830Y-103727000D01*
X109074729Y-103449987D01*
X108966644Y-103189047D01*
X108809729Y-102954206D01*
X108725523Y-102870000D01*
X108809729Y-102785794D01*
X108966644Y-102550953D01*
X109074729Y-102290013D01*
X109129830Y-102013000D01*
X109129830Y-101730560D01*
X109074729Y-101453547D01*
X108966644Y-101192607D01*
X108809729Y-100957766D01*
X108722983Y-100871020D01*
X108809729Y-100784274D01*
X108966644Y-100549433D01*
X109074729Y-100288493D01*
X109129830Y-100011480D01*
X109129830Y-99729040D01*
X109074729Y-99452027D01*
X108966644Y-99191087D01*
X108809729Y-98956246D01*
X108610014Y-98756531D01*
X108375173Y-98599616D01*
X108114233Y-98491531D01*
X107837220Y-98436430D01*
X107554780Y-98436430D01*
X107277767Y-98491531D01*
X107016827Y-98599616D01*
X106781986Y-98756531D01*
X106582271Y-98956246D01*
X106425356Y-99191087D01*
X106317271Y-99452027D01*
X106262170Y-99729040D01*
X90660000Y-99729040D01*
X90660000Y-64421229D01*
X94815000Y-64421229D01*
X94815000Y-65038771D01*
X94935476Y-65644446D01*
X95171799Y-66214979D01*
X95514886Y-66728446D01*
X95951554Y-67165114D01*
X96465021Y-67508201D01*
X97035554Y-67744524D01*
X97641229Y-67865000D01*
X98258771Y-67865000D01*
X98864446Y-67744524D01*
X99434979Y-67508201D01*
X99948446Y-67165114D01*
X100385114Y-66728446D01*
X100728201Y-66214979D01*
X100817248Y-66000000D01*
X109336807Y-66000000D01*
X109340000Y-66032419D01*
X109340001Y-93967571D01*
X109336807Y-94000000D01*
X109349550Y-94129383D01*
X109387290Y-94253793D01*
X109448575Y-94368450D01*
X109531052Y-94468948D01*
X109631550Y-94551425D01*
X109746207Y-94612710D01*
X109870617Y-94650450D01*
X109967581Y-94660000D01*
X110000000Y-94663193D01*
X110032419Y-94660000D01*
X167967581Y-94660000D01*
X168000000Y-94663193D01*
X168032419Y-94660000D01*
X168129383Y-94650450D01*
X168253793Y-94612710D01*
X168368450Y-94551425D01*
X168468948Y-94468948D01*
X168551425Y-94368450D01*
X168612710Y-94253793D01*
X168650450Y-94129383D01*
X168663193Y-94000000D01*
X168660000Y-93967581D01*
X168660000Y-75032419D01*
X168663193Y-75000000D01*
X168650450Y-74870617D01*
X168612710Y-74746207D01*
X168551425Y-74631550D01*
X168468948Y-74531052D01*
X168368450Y-74448575D01*
X168253793Y-74387290D01*
X168129383Y-74349550D01*
X168032419Y-74340000D01*
X168000000Y-74336807D01*
X167967581Y-74340000D01*
X141273381Y-74340000D01*
X138660000Y-71726620D01*
X138660000Y-66032419D01*
X138663193Y-66000000D01*
X138650450Y-65870617D01*
X138612710Y-65746207D01*
X138551425Y-65631550D01*
X138468948Y-65531052D01*
X138368450Y-65448575D01*
X138253793Y-65387290D01*
X138129383Y-65349550D01*
X138032419Y-65340000D01*
X138000000Y-65336807D01*
X137967581Y-65340000D01*
X110032419Y-65340000D01*
X110000000Y-65336807D01*
X109967581Y-65340000D01*
X109870617Y-65349550D01*
X109746207Y-65387290D01*
X109631550Y-65448575D01*
X109531052Y-65531052D01*
X109448575Y-65631550D01*
X109387290Y-65746207D01*
X109349550Y-65870617D01*
X109336807Y-66000000D01*
X100817248Y-66000000D01*
X100964524Y-65644446D01*
X101085000Y-65038771D01*
X101085000Y-64421229D01*
X100982527Y-63906061D01*
X144507000Y-63906061D01*
X144507000Y-64109939D01*
X144546774Y-64309898D01*
X144624795Y-64498256D01*
X144721510Y-64643000D01*
X144624795Y-64787744D01*
X144546774Y-64976102D01*
X144507000Y-65176061D01*
X144507000Y-65379939D01*
X144546774Y-65579898D01*
X144624795Y-65768256D01*
X144738063Y-65937774D01*
X144882226Y-66081937D01*
X145051744Y-66195205D01*
X145240102Y-66273226D01*
X145392303Y-66303500D01*
X145386795Y-66311744D01*
X145308774Y-66500102D01*
X145269000Y-66700061D01*
X145269000Y-66903939D01*
X145308774Y-67103898D01*
X145386795Y-67292256D01*
X145500063Y-67461774D01*
X145644226Y-67605937D01*
X145813744Y-67719205D01*
X146002102Y-67797226D01*
X146202061Y-67837000D01*
X146405939Y-67837000D01*
X146605898Y-67797226D01*
X146794256Y-67719205D01*
X146963774Y-67605937D01*
X147107937Y-67461774D01*
X147221205Y-67292256D01*
X147299226Y-67103898D01*
X147339000Y-66903939D01*
X147339000Y-66700061D01*
X147299226Y-66500102D01*
X147221205Y-66311744D01*
X147107937Y-66142226D01*
X146963774Y-65998063D01*
X146794256Y-65884795D01*
X146605898Y-65806774D01*
X146453697Y-65776500D01*
X146459205Y-65768256D01*
X146537226Y-65579898D01*
X146577000Y-65379939D01*
X146577000Y-65176061D01*
X146537226Y-64976102D01*
X146459205Y-64787744D01*
X146362490Y-64643000D01*
X146459205Y-64498256D01*
X146537226Y-64309898D01*
X146577000Y-64109939D01*
X146577000Y-63906061D01*
X157207000Y-63906061D01*
X157207000Y-64109939D01*
X157246774Y-64309898D01*
X157324795Y-64498256D01*
X157438063Y-64667774D01*
X157540289Y-64770000D01*
X157438063Y-64872226D01*
X157324795Y-65041744D01*
X157246774Y-65230102D01*
X157207000Y-65430061D01*
X157207000Y-65633939D01*
X157246774Y-65833898D01*
X157324795Y-66022256D01*
X157438063Y-66191774D01*
X157582226Y-66335937D01*
X157751744Y-66449205D01*
X157876214Y-66500763D01*
X157832795Y-66565744D01*
X157754774Y-66754102D01*
X157715000Y-66954061D01*
X157715000Y-67157939D01*
X157754774Y-67357898D01*
X157832795Y-67546256D01*
X157946063Y-67715774D01*
X158090226Y-67859937D01*
X158259744Y-67973205D01*
X158448102Y-68051226D01*
X158648061Y-68091000D01*
X158851939Y-68091000D01*
X159051898Y-68051226D01*
X159240256Y-67973205D01*
X159409774Y-67859937D01*
X159553937Y-67715774D01*
X159667205Y-67546256D01*
X159745226Y-67357898D01*
X159785000Y-67157939D01*
X159785000Y-66954061D01*
X159745226Y-66754102D01*
X159722842Y-66700061D01*
X165589000Y-66700061D01*
X165589000Y-66903939D01*
X165628774Y-67103898D01*
X165706795Y-67292256D01*
X165820063Y-67461774D01*
X165964226Y-67605937D01*
X166133744Y-67719205D01*
X166322102Y-67797226D01*
X166522061Y-67837000D01*
X166725939Y-67837000D01*
X166925898Y-67797226D01*
X167114256Y-67719205D01*
X167283774Y-67605937D01*
X167427937Y-67461774D01*
X167541205Y-67292256D01*
X167619226Y-67103898D01*
X167659000Y-66903939D01*
X167659000Y-66700061D01*
X167619226Y-66500102D01*
X167541205Y-66311744D01*
X167427937Y-66142226D01*
X167283774Y-65998063D01*
X167114256Y-65884795D01*
X166925898Y-65806774D01*
X166725939Y-65767000D01*
X166522061Y-65767000D01*
X166322102Y-65806774D01*
X166133744Y-65884795D01*
X165964226Y-65998063D01*
X165820063Y-66142226D01*
X165706795Y-66311744D01*
X165628774Y-66500102D01*
X165589000Y-66700061D01*
X159722842Y-66700061D01*
X159667205Y-66565744D01*
X159553937Y-66396226D01*
X159409774Y-66252063D01*
X159240256Y-66138795D01*
X159115786Y-66087237D01*
X159159205Y-66022256D01*
X159237226Y-65833898D01*
X159277000Y-65633939D01*
X159277000Y-65430061D01*
X159237226Y-65230102D01*
X159159205Y-65041744D01*
X159045937Y-64872226D01*
X158943711Y-64770000D01*
X159045937Y-64667774D01*
X159159205Y-64498256D01*
X159237226Y-64309898D01*
X159277000Y-64109939D01*
X159277000Y-63906061D01*
X159237226Y-63706102D01*
X159214842Y-63652061D01*
X174733000Y-63652061D01*
X174733000Y-63855939D01*
X174772774Y-64055898D01*
X174850795Y-64244256D01*
X174964063Y-64413774D01*
X175108226Y-64557937D01*
X175277744Y-64671205D01*
X175466102Y-64749226D01*
X175666061Y-64789000D01*
X175869939Y-64789000D01*
X176069898Y-64749226D01*
X176258256Y-64671205D01*
X176427774Y-64557937D01*
X176564482Y-64421229D01*
X188915000Y-64421229D01*
X188915000Y-65038771D01*
X189035476Y-65644446D01*
X189271799Y-66214979D01*
X189614886Y-66728446D01*
X190051554Y-67165114D01*
X190565021Y-67508201D01*
X191135554Y-67744524D01*
X191741229Y-67865000D01*
X192358771Y-67865000D01*
X192964446Y-67744524D01*
X193534979Y-67508201D01*
X194048446Y-67165114D01*
X194485114Y-66728446D01*
X194828201Y-66214979D01*
X195064524Y-65644446D01*
X195185000Y-65038771D01*
X195185000Y-64421229D01*
X195064524Y-63815554D01*
X194828201Y-63245021D01*
X194485114Y-62731554D01*
X194389621Y-62636061D01*
X197339000Y-62636061D01*
X197339000Y-62839939D01*
X197378774Y-63039898D01*
X197456795Y-63228256D01*
X197570063Y-63397774D01*
X197714226Y-63541937D01*
X197883744Y-63655205D01*
X198072102Y-63733226D01*
X198272061Y-63773000D01*
X198475939Y-63773000D01*
X198675898Y-63733226D01*
X198864256Y-63655205D01*
X199033774Y-63541937D01*
X199177937Y-63397774D01*
X199291205Y-63228256D01*
X199369226Y-63039898D01*
X199409000Y-62839939D01*
X199409000Y-62636061D01*
X199369226Y-62436102D01*
X199291205Y-62247744D01*
X199177937Y-62078226D01*
X199033774Y-61934063D01*
X198864256Y-61820795D01*
X198675898Y-61742774D01*
X198475939Y-61703000D01*
X198272061Y-61703000D01*
X198072102Y-61742774D01*
X197883744Y-61820795D01*
X197714226Y-61934063D01*
X197570063Y-62078226D01*
X197456795Y-62247744D01*
X197378774Y-62436102D01*
X197339000Y-62636061D01*
X194389621Y-62636061D01*
X194048446Y-62294886D01*
X193534979Y-61951799D01*
X192964446Y-61715476D01*
X192358771Y-61595000D01*
X191741229Y-61595000D01*
X191135554Y-61715476D01*
X190565021Y-61951799D01*
X190051554Y-62294886D01*
X189614886Y-62731554D01*
X189271799Y-63245021D01*
X189035476Y-63815554D01*
X188915000Y-64421229D01*
X176564482Y-64421229D01*
X176571937Y-64413774D01*
X176685205Y-64244256D01*
X176763226Y-64055898D01*
X176803000Y-63855939D01*
X176803000Y-63652061D01*
X176763226Y-63452102D01*
X176685205Y-63263744D01*
X176571937Y-63094226D01*
X176427774Y-62950063D01*
X176258256Y-62836795D01*
X176069898Y-62758774D01*
X175869939Y-62719000D01*
X175666061Y-62719000D01*
X175466102Y-62758774D01*
X175277744Y-62836795D01*
X175108226Y-62950063D01*
X174964063Y-63094226D01*
X174850795Y-63263744D01*
X174772774Y-63452102D01*
X174733000Y-63652061D01*
X159214842Y-63652061D01*
X159159205Y-63517744D01*
X159045937Y-63348226D01*
X158901774Y-63204063D01*
X158732256Y-63090795D01*
X158543898Y-63012774D01*
X158343939Y-62973000D01*
X158140061Y-62973000D01*
X157940102Y-63012774D01*
X157751744Y-63090795D01*
X157582226Y-63204063D01*
X157438063Y-63348226D01*
X157324795Y-63517744D01*
X157246774Y-63706102D01*
X157207000Y-63906061D01*
X146577000Y-63906061D01*
X146537226Y-63706102D01*
X146459205Y-63517744D01*
X146345937Y-63348226D01*
X146201774Y-63204063D01*
X146032256Y-63090795D01*
X145843898Y-63012774D01*
X145643939Y-62973000D01*
X145440061Y-62973000D01*
X145240102Y-63012774D01*
X145051744Y-63090795D01*
X144882226Y-63204063D01*
X144738063Y-63348226D01*
X144624795Y-63517744D01*
X144546774Y-63706102D01*
X144507000Y-63906061D01*
X100982527Y-63906061D01*
X100964524Y-63815554D01*
X100728201Y-63245021D01*
X100385114Y-62731554D01*
X99948446Y-62294886D01*
X99434979Y-61951799D01*
X98864446Y-61715476D01*
X98258771Y-61595000D01*
X97641229Y-61595000D01*
X97035554Y-61715476D01*
X96465021Y-61951799D01*
X95951554Y-62294886D01*
X95514886Y-62731554D01*
X95171799Y-63245021D01*
X94935476Y-63815554D01*
X94815000Y-64421229D01*
X90660000Y-64421229D01*
X90660000Y-57521589D01*
X142379000Y-57521589D01*
X142379000Y-57794411D01*
X142432225Y-58061989D01*
X142536629Y-58314043D01*
X142688201Y-58540886D01*
X142881114Y-58733799D01*
X143107957Y-58885371D01*
X143360011Y-58989775D01*
X143627589Y-59043000D01*
X143900411Y-59043000D01*
X144167989Y-58989775D01*
X144420043Y-58885371D01*
X144646886Y-58733799D01*
X144839799Y-58540886D01*
X144991371Y-58314043D01*
X145034000Y-58211127D01*
X145076629Y-58314043D01*
X145228201Y-58540886D01*
X145421114Y-58733799D01*
X145647957Y-58885371D01*
X145900011Y-58989775D01*
X146167589Y-59043000D01*
X146440411Y-59043000D01*
X146707989Y-58989775D01*
X146960043Y-58885371D01*
X147186886Y-58733799D01*
X147379799Y-58540886D01*
X147531371Y-58314043D01*
X147574000Y-58211127D01*
X147616629Y-58314043D01*
X147768201Y-58540886D01*
X147961114Y-58733799D01*
X148187957Y-58885371D01*
X148440011Y-58989775D01*
X148707589Y-59043000D01*
X148980411Y-59043000D01*
X149247989Y-58989775D01*
X149500043Y-58885371D01*
X149726886Y-58733799D01*
X149919799Y-58540886D01*
X150071371Y-58314043D01*
X150114000Y-58211127D01*
X150156629Y-58314043D01*
X150308201Y-58540886D01*
X150501114Y-58733799D01*
X150727957Y-58885371D01*
X150980011Y-58989775D01*
X151247589Y-59043000D01*
X151520411Y-59043000D01*
X151787989Y-58989775D01*
X152040043Y-58885371D01*
X152266886Y-58733799D01*
X152459799Y-58540886D01*
X152611371Y-58314043D01*
X152715775Y-58061989D01*
X152769000Y-57794411D01*
X152769000Y-57521589D01*
X155079000Y-57521589D01*
X155079000Y-57794411D01*
X155132225Y-58061989D01*
X155236629Y-58314043D01*
X155388201Y-58540886D01*
X155581114Y-58733799D01*
X155807957Y-58885371D01*
X156060011Y-58989775D01*
X156327589Y-59043000D01*
X156600411Y-59043000D01*
X156721232Y-59018967D01*
X202815000Y-59018967D01*
X202815000Y-59341033D01*
X202877832Y-59656912D01*
X203001082Y-59954463D01*
X203180013Y-60222252D01*
X203407748Y-60449987D01*
X203675537Y-60628918D01*
X203973088Y-60752168D01*
X204288967Y-60815000D01*
X204611033Y-60815000D01*
X204926912Y-60752168D01*
X205224463Y-60628918D01*
X205492252Y-60449987D01*
X205719987Y-60222252D01*
X205898918Y-59954463D01*
X206022168Y-59656912D01*
X206085000Y-59341033D01*
X206085000Y-59018967D01*
X206022168Y-58703088D01*
X205898918Y-58405537D01*
X205719987Y-58137748D01*
X205492252Y-57910013D01*
X205224463Y-57731082D01*
X204926912Y-57607832D01*
X204611033Y-57545000D01*
X204288967Y-57545000D01*
X203973088Y-57607832D01*
X203675537Y-57731082D01*
X203407748Y-57910013D01*
X203180013Y-58137748D01*
X203001082Y-58405537D01*
X202877832Y-58703088D01*
X202815000Y-59018967D01*
X156721232Y-59018967D01*
X156867989Y-58989775D01*
X157120043Y-58885371D01*
X157346886Y-58733799D01*
X157539799Y-58540886D01*
X157691371Y-58314043D01*
X157795775Y-58061989D01*
X157849000Y-57794411D01*
X157849000Y-57775413D01*
X200954192Y-57775413D01*
X201049956Y-58039814D01*
X201339571Y-58180704D01*
X201651108Y-58262384D01*
X201972595Y-58281718D01*
X202291675Y-58237961D01*
X202596088Y-58132795D01*
X202770044Y-58039814D01*
X202865808Y-57775413D01*
X201910000Y-56819605D01*
X200954192Y-57775413D01*
X157849000Y-57775413D01*
X157849000Y-57521589D01*
X157795775Y-57254011D01*
X157691371Y-57001957D01*
X157539799Y-56775114D01*
X157346886Y-56582201D01*
X157283820Y-56540061D01*
X189465000Y-56540061D01*
X189465000Y-56743939D01*
X189504774Y-56943898D01*
X189582795Y-57132256D01*
X189696063Y-57301774D01*
X189840226Y-57445937D01*
X190009744Y-57559205D01*
X190198102Y-57637226D01*
X190398061Y-57677000D01*
X190601939Y-57677000D01*
X190801898Y-57637226D01*
X190990256Y-57559205D01*
X191159774Y-57445937D01*
X191303937Y-57301774D01*
X191417205Y-57132256D01*
X191495226Y-56943898D01*
X191535000Y-56743939D01*
X191535000Y-56702595D01*
X200268282Y-56702595D01*
X200312039Y-57021675D01*
X200417205Y-57326088D01*
X200510186Y-57500044D01*
X200774587Y-57595808D01*
X201730395Y-56640000D01*
X202089605Y-56640000D01*
X203045413Y-57595808D01*
X203309814Y-57500044D01*
X203450704Y-57210429D01*
X203532384Y-56898892D01*
X203551718Y-56577405D01*
X203538219Y-56478967D01*
X205355000Y-56478967D01*
X205355000Y-56801033D01*
X205417832Y-57116912D01*
X205541082Y-57414463D01*
X205720013Y-57682252D01*
X205947748Y-57909987D01*
X206215537Y-58088918D01*
X206513088Y-58212168D01*
X206828967Y-58275000D01*
X207151033Y-58275000D01*
X207466912Y-58212168D01*
X207764463Y-58088918D01*
X208032252Y-57909987D01*
X208259987Y-57682252D01*
X208438918Y-57414463D01*
X208562168Y-57116912D01*
X208625000Y-56801033D01*
X208625000Y-56478967D01*
X208562168Y-56163088D01*
X208438918Y-55865537D01*
X208259987Y-55597748D01*
X208032252Y-55370013D01*
X207764463Y-55191082D01*
X207466912Y-55067832D01*
X207151033Y-55005000D01*
X206828967Y-55005000D01*
X206513088Y-55067832D01*
X206215537Y-55191082D01*
X205947748Y-55370013D01*
X205720013Y-55597748D01*
X205541082Y-55865537D01*
X205417832Y-56163088D01*
X205355000Y-56478967D01*
X203538219Y-56478967D01*
X203507961Y-56258325D01*
X203402795Y-55953912D01*
X203309814Y-55779956D01*
X203045413Y-55684192D01*
X202089605Y-56640000D01*
X201730395Y-56640000D01*
X200774587Y-55684192D01*
X200510186Y-55779956D01*
X200369296Y-56069571D01*
X200287616Y-56381108D01*
X200268282Y-56702595D01*
X191535000Y-56702595D01*
X191535000Y-56540061D01*
X191495226Y-56340102D01*
X191417205Y-56151744D01*
X191303937Y-55982226D01*
X191159774Y-55838063D01*
X190990256Y-55724795D01*
X190801898Y-55646774D01*
X190601939Y-55607000D01*
X190398061Y-55607000D01*
X190198102Y-55646774D01*
X190009744Y-55724795D01*
X189840226Y-55838063D01*
X189696063Y-55982226D01*
X189582795Y-56151744D01*
X189504774Y-56340102D01*
X189465000Y-56540061D01*
X157283820Y-56540061D01*
X157120043Y-56430629D01*
X156867989Y-56326225D01*
X156600411Y-56273000D01*
X156327589Y-56273000D01*
X156060011Y-56326225D01*
X155807957Y-56430629D01*
X155581114Y-56582201D01*
X155388201Y-56775114D01*
X155236629Y-57001957D01*
X155132225Y-57254011D01*
X155079000Y-57521589D01*
X152769000Y-57521589D01*
X152715775Y-57254011D01*
X152611371Y-57001957D01*
X152459799Y-56775114D01*
X152266886Y-56582201D01*
X152040043Y-56430629D01*
X151787989Y-56326225D01*
X151520411Y-56273000D01*
X151247589Y-56273000D01*
X150980011Y-56326225D01*
X150727957Y-56430629D01*
X150501114Y-56582201D01*
X150308201Y-56775114D01*
X150156629Y-57001957D01*
X150114000Y-57104873D01*
X150071371Y-57001957D01*
X149919799Y-56775114D01*
X149726886Y-56582201D01*
X149500043Y-56430629D01*
X149247989Y-56326225D01*
X148980411Y-56273000D01*
X148707589Y-56273000D01*
X148440011Y-56326225D01*
X148187957Y-56430629D01*
X147961114Y-56582201D01*
X147768201Y-56775114D01*
X147616629Y-57001957D01*
X147574000Y-57104873D01*
X147531371Y-57001957D01*
X147379799Y-56775114D01*
X147186886Y-56582201D01*
X146960043Y-56430629D01*
X146707989Y-56326225D01*
X146440411Y-56273000D01*
X146167589Y-56273000D01*
X145900011Y-56326225D01*
X145647957Y-56430629D01*
X145421114Y-56582201D01*
X145228201Y-56775114D01*
X145076629Y-57001957D01*
X145034000Y-57104873D01*
X144991371Y-57001957D01*
X144839799Y-56775114D01*
X144646886Y-56582201D01*
X144420043Y-56430629D01*
X144167989Y-56326225D01*
X143900411Y-56273000D01*
X143627589Y-56273000D01*
X143360011Y-56326225D01*
X143107957Y-56430629D01*
X142881114Y-56582201D01*
X142688201Y-56775114D01*
X142536629Y-57001957D01*
X142432225Y-57254011D01*
X142379000Y-57521589D01*
X90660000Y-57521589D01*
X90660000Y-55029392D01*
X90683148Y-54770023D01*
X92665000Y-54770023D01*
X92665000Y-55229977D01*
X92754733Y-55681094D01*
X92930750Y-56106037D01*
X93186287Y-56488476D01*
X93511524Y-56813713D01*
X93893963Y-57069250D01*
X94318906Y-57245267D01*
X94770023Y-57335000D01*
X95229977Y-57335000D01*
X95681094Y-57245267D01*
X96106037Y-57069250D01*
X96488476Y-56813713D01*
X96813713Y-56488476D01*
X97069250Y-56106037D01*
X97245267Y-55681094D01*
X97335000Y-55229977D01*
X97335000Y-54770023D01*
X97245267Y-54318906D01*
X97069250Y-53893963D01*
X96973058Y-53750000D01*
X127731928Y-53750000D01*
X127731928Y-56250000D01*
X127744188Y-56374482D01*
X127780498Y-56494180D01*
X127839463Y-56604494D01*
X127918815Y-56701185D01*
X128015506Y-56780537D01*
X128125820Y-56839502D01*
X128245518Y-56875812D01*
X128370000Y-56888072D01*
X130870000Y-56888072D01*
X130994482Y-56875812D01*
X131114180Y-56839502D01*
X131224494Y-56780537D01*
X131321185Y-56701185D01*
X131400537Y-56604494D01*
X131459502Y-56494180D01*
X131495812Y-56374482D01*
X131508072Y-56250000D01*
X131508072Y-54814344D01*
X132735000Y-54814344D01*
X132735000Y-55185656D01*
X132807439Y-55549834D01*
X132949534Y-55892882D01*
X133155825Y-56201618D01*
X133418382Y-56464175D01*
X133727118Y-56670466D01*
X134070166Y-56812561D01*
X134434344Y-56885000D01*
X134805656Y-56885000D01*
X135169834Y-56812561D01*
X135512882Y-56670466D01*
X135821618Y-56464175D01*
X136084175Y-56201618D01*
X136290466Y-55892882D01*
X136432561Y-55549834D01*
X136441561Y-55504587D01*
X200954192Y-55504587D01*
X201910000Y-56460395D01*
X202865808Y-55504587D01*
X202770044Y-55240186D01*
X202480429Y-55099296D01*
X202168892Y-55017616D01*
X201847405Y-54998282D01*
X201528325Y-55042039D01*
X201223912Y-55147205D01*
X201049956Y-55240186D01*
X200954192Y-55504587D01*
X136441561Y-55504587D01*
X136505000Y-55185656D01*
X136505000Y-54814344D01*
X136432561Y-54450166D01*
X136290466Y-54107118D01*
X136084175Y-53798382D01*
X135821618Y-53535825D01*
X135820373Y-53534993D01*
X142986612Y-53534993D01*
X143052137Y-53773860D01*
X143299116Y-53889760D01*
X143563960Y-53955250D01*
X143836492Y-53967812D01*
X144106238Y-53926965D01*
X144362832Y-53834277D01*
X144475863Y-53773860D01*
X144541388Y-53534993D01*
X143764000Y-52757605D01*
X142986612Y-53534993D01*
X135820373Y-53534993D01*
X135512882Y-53329534D01*
X135169834Y-53187439D01*
X134805656Y-53115000D01*
X134434344Y-53115000D01*
X134070166Y-53187439D01*
X133727118Y-53329534D01*
X133418382Y-53535825D01*
X133155825Y-53798382D01*
X132949534Y-54107118D01*
X132807439Y-54450166D01*
X132735000Y-54814344D01*
X131508072Y-54814344D01*
X131508072Y-53750000D01*
X131495812Y-53625518D01*
X131459502Y-53505820D01*
X131400537Y-53395506D01*
X131321185Y-53298815D01*
X131224494Y-53219463D01*
X131114180Y-53160498D01*
X130994482Y-53124188D01*
X130870000Y-53111928D01*
X128370000Y-53111928D01*
X128245518Y-53124188D01*
X128125820Y-53160498D01*
X128015506Y-53219463D01*
X127918815Y-53298815D01*
X127839463Y-53395506D01*
X127780498Y-53505820D01*
X127744188Y-53625518D01*
X127731928Y-53750000D01*
X96973058Y-53750000D01*
X96813713Y-53511524D01*
X96488476Y-53186287D01*
X96106037Y-52930750D01*
X95681094Y-52754733D01*
X95229977Y-52665000D01*
X94770023Y-52665000D01*
X94318906Y-52754733D01*
X93893963Y-52930750D01*
X93511524Y-53186287D01*
X93186287Y-53511524D01*
X92930750Y-53893963D01*
X92754733Y-54318906D01*
X92665000Y-54770023D01*
X90683148Y-54770023D01*
X90731173Y-54231917D01*
X90934656Y-53488109D01*
X91266638Y-52792095D01*
X91368390Y-52650492D01*
X142374188Y-52650492D01*
X142415035Y-52920238D01*
X142507723Y-53176832D01*
X142568140Y-53289863D01*
X142807007Y-53355388D01*
X143584395Y-52578000D01*
X143943605Y-52578000D01*
X144720993Y-53355388D01*
X144959860Y-53289863D01*
X145034164Y-53131523D01*
X145076629Y-53234043D01*
X145228201Y-53460886D01*
X145421114Y-53653799D01*
X145647957Y-53805371D01*
X145900011Y-53909775D01*
X146167589Y-53963000D01*
X146440411Y-53963000D01*
X146707989Y-53909775D01*
X146960043Y-53805371D01*
X147186886Y-53653799D01*
X147379799Y-53460886D01*
X147531371Y-53234043D01*
X147574000Y-53131127D01*
X147616629Y-53234043D01*
X147768201Y-53460886D01*
X147961114Y-53653799D01*
X148187957Y-53805371D01*
X148440011Y-53909775D01*
X148707589Y-53963000D01*
X148980411Y-53963000D01*
X149247989Y-53909775D01*
X149500043Y-53805371D01*
X149726886Y-53653799D01*
X149919799Y-53460886D01*
X150071371Y-53234043D01*
X150114000Y-53131127D01*
X150156629Y-53234043D01*
X150308201Y-53460886D01*
X150501114Y-53653799D01*
X150727957Y-53805371D01*
X150980011Y-53909775D01*
X151247589Y-53963000D01*
X151520411Y-53963000D01*
X151787989Y-53909775D01*
X152040043Y-53805371D01*
X152266886Y-53653799D01*
X152459799Y-53460886D01*
X152548590Y-53328000D01*
X155075928Y-53328000D01*
X155088188Y-53452482D01*
X155124498Y-53572180D01*
X155183463Y-53682494D01*
X155262815Y-53779185D01*
X155359506Y-53858537D01*
X155469820Y-53917502D01*
X155589518Y-53953812D01*
X155714000Y-53966072D01*
X156178250Y-53963000D01*
X156337000Y-53804250D01*
X156337000Y-52705000D01*
X156591000Y-52705000D01*
X156591000Y-53804250D01*
X156749750Y-53963000D01*
X157214000Y-53966072D01*
X157338482Y-53953812D01*
X157387419Y-53938967D01*
X202815000Y-53938967D01*
X202815000Y-54261033D01*
X202877832Y-54576912D01*
X203001082Y-54874463D01*
X203180013Y-55142252D01*
X203407748Y-55369987D01*
X203675537Y-55548918D01*
X203973088Y-55672168D01*
X204288967Y-55735000D01*
X204611033Y-55735000D01*
X204926912Y-55672168D01*
X205224463Y-55548918D01*
X205492252Y-55369987D01*
X205719987Y-55142252D01*
X205898918Y-54874463D01*
X205942178Y-54770023D01*
X212665000Y-54770023D01*
X212665000Y-55229977D01*
X212754733Y-55681094D01*
X212930750Y-56106037D01*
X213186287Y-56488476D01*
X213511524Y-56813713D01*
X213893963Y-57069250D01*
X214318906Y-57245267D01*
X214770023Y-57335000D01*
X215229977Y-57335000D01*
X215681094Y-57245267D01*
X216106037Y-57069250D01*
X216488476Y-56813713D01*
X216813713Y-56488476D01*
X217069250Y-56106037D01*
X217245267Y-55681094D01*
X217335000Y-55229977D01*
X217335000Y-54770023D01*
X217245267Y-54318906D01*
X217069250Y-53893963D01*
X216813713Y-53511524D01*
X216488476Y-53186287D01*
X216106037Y-52930750D01*
X215681094Y-52754733D01*
X215229977Y-52665000D01*
X214770023Y-52665000D01*
X214318906Y-52754733D01*
X213893963Y-52930750D01*
X213511524Y-53186287D01*
X213186287Y-53511524D01*
X212930750Y-53893963D01*
X212754733Y-54318906D01*
X212665000Y-54770023D01*
X205942178Y-54770023D01*
X206022168Y-54576912D01*
X206085000Y-54261033D01*
X206085000Y-53938967D01*
X206022168Y-53623088D01*
X205898918Y-53325537D01*
X205719987Y-53057748D01*
X205492252Y-52830013D01*
X205224463Y-52651082D01*
X204926912Y-52527832D01*
X204611033Y-52465000D01*
X204288967Y-52465000D01*
X203973088Y-52527832D01*
X203675537Y-52651082D01*
X203407748Y-52830013D01*
X203180013Y-53057748D01*
X203001082Y-53325537D01*
X202877832Y-53623088D01*
X202815000Y-53938967D01*
X157387419Y-53938967D01*
X157458180Y-53917502D01*
X157568494Y-53858537D01*
X157665185Y-53779185D01*
X157744537Y-53682494D01*
X157803502Y-53572180D01*
X157839812Y-53452482D01*
X157852072Y-53328000D01*
X157849000Y-52863750D01*
X157690250Y-52705000D01*
X156591000Y-52705000D01*
X156337000Y-52705000D01*
X155237750Y-52705000D01*
X155079000Y-52863750D01*
X155075928Y-53328000D01*
X152548590Y-53328000D01*
X152611371Y-53234043D01*
X152715775Y-52981989D01*
X152769000Y-52714411D01*
X152769000Y-52441589D01*
X152715775Y-52174011D01*
X152611371Y-51921957D01*
X152548591Y-51828000D01*
X155075928Y-51828000D01*
X155079000Y-52292250D01*
X155237750Y-52451000D01*
X156337000Y-52451000D01*
X156337000Y-51351750D01*
X156591000Y-51351750D01*
X156591000Y-52451000D01*
X157690250Y-52451000D01*
X157849000Y-52292250D01*
X157852072Y-51828000D01*
X157839812Y-51703518D01*
X157803502Y-51583820D01*
X157744537Y-51473506D01*
X157665185Y-51376815D01*
X157568494Y-51297463D01*
X157458180Y-51238498D01*
X157338482Y-51202188D01*
X157214000Y-51189928D01*
X156749750Y-51193000D01*
X156591000Y-51351750D01*
X156337000Y-51351750D01*
X156178250Y-51193000D01*
X155714000Y-51189928D01*
X155589518Y-51202188D01*
X155469820Y-51238498D01*
X155359506Y-51297463D01*
X155262815Y-51376815D01*
X155183463Y-51473506D01*
X155124498Y-51583820D01*
X155088188Y-51703518D01*
X155075928Y-51828000D01*
X152548591Y-51828000D01*
X152459799Y-51695114D01*
X152266886Y-51502201D01*
X152040043Y-51350629D01*
X151787989Y-51246225D01*
X151520411Y-51193000D01*
X151247589Y-51193000D01*
X150980011Y-51246225D01*
X150727957Y-51350629D01*
X150501114Y-51502201D01*
X150308201Y-51695114D01*
X150156629Y-51921957D01*
X150114000Y-52024873D01*
X150071371Y-51921957D01*
X149919799Y-51695114D01*
X149726886Y-51502201D01*
X149500043Y-51350629D01*
X149247989Y-51246225D01*
X148980411Y-51193000D01*
X148707589Y-51193000D01*
X148440011Y-51246225D01*
X148187957Y-51350629D01*
X147961114Y-51502201D01*
X147768201Y-51695114D01*
X147616629Y-51921957D01*
X147574000Y-52024873D01*
X147531371Y-51921957D01*
X147379799Y-51695114D01*
X147186886Y-51502201D01*
X146960043Y-51350629D01*
X146707989Y-51246225D01*
X146440411Y-51193000D01*
X146167589Y-51193000D01*
X145900011Y-51246225D01*
X145647957Y-51350629D01*
X145421114Y-51502201D01*
X145228201Y-51695114D01*
X145076629Y-51921957D01*
X145035489Y-52021279D01*
X145020277Y-51979168D01*
X144959860Y-51866137D01*
X144720993Y-51800612D01*
X143943605Y-52578000D01*
X143584395Y-52578000D01*
X142807007Y-51800612D01*
X142568140Y-51866137D01*
X142452240Y-52113116D01*
X142386750Y-52377960D01*
X142374188Y-52650492D01*
X91368390Y-52650492D01*
X91716626Y-52165870D01*
X92270403Y-51629223D01*
X92282629Y-51621007D01*
X142986612Y-51621007D01*
X143764000Y-52398395D01*
X144541388Y-51621007D01*
X144475863Y-51382140D01*
X144228884Y-51266240D01*
X143964040Y-51200750D01*
X143691508Y-51188188D01*
X143421762Y-51229035D01*
X143165168Y-51321723D01*
X143052137Y-51382140D01*
X142986612Y-51621007D01*
X92282629Y-51621007D01*
X92910451Y-51199129D01*
X93616553Y-50889171D01*
X94371457Y-50707935D01*
X95024207Y-50660000D01*
X214970608Y-50660000D01*
X215768083Y-50731173D01*
G37*
G04 #@! TD.AperFunction*
D21*
X173101000Y-106426000D02*
X168783000Y-106426000D01*
X168783000Y-102616000D01*
X173101000Y-102616000D01*
X173101000Y-106426000D01*
G04 #@! TA.AperFunction,Conductor*
D22*
G36*
X173101000Y-106426000D02*
G01*
X168783000Y-106426000D01*
X168783000Y-102616000D01*
X173101000Y-102616000D01*
X173101000Y-106426000D01*
G37*
G04 #@! TD.AperFunction*
M02*
